<?xml version="1.0" encoding="UTF-8"?><svg id="Layer_2" xmlns="http://www.w3.org/2000/svg" viewBox="0 0 11.09 9.98"><defs><style>.cls-1{fill:#999;}</style></defs><g id="ADD_A_NEW_ORGANISER"><g id="__Add_New_Organiser"><g id="Top_Buttons"><g id="Save_changes_button"><path class="cls-1" d="M.15,5.8c.2,0,.3,.1,.5,.1,.2,.1,.3,.2,.4,.3,.3,.2,.5,.4,.8,.5,.2,.2,.5,.3,.8,.5,.1,.1,.3,.1,.4,.2,.1,.1,.2,0,.3-.1l.2-.2c.3-.4,.6-.7,.9-1.1,.6-.8,1.2-1.7,1.9-2.4,.6-.7,1.3-1.4,2.1-2,.5-.4,.9-.8,1.5-1.1,.2-.1,.4-.3,.7-.4,.1,0,.2-.1,.2-.1q.1,0,.2,.1s.1,.1,0,.1c0,.1-.1,.1-.1,.2l-.2,.2c-.3,.2-.6,.5-.8,.8-1,1-1.9,2-2.8,3.1-.7,.9-1.3,1.9-1.9,3-.3,.6-.7,1.3-1,1.9-.1,.1-.2,.3-.2,.4s-.1,.1-.1,.1c-.1,.1-.2,.1-.3,0-.1,0-.1-.1-.1-.1-.5-.6-.9-1.1-1.4-1.7-.6-.6-1.1-1.3-1.7-1.9-.1-.1-.1-.2-.2-.3l-.1-.1q-.2,.1,0,0c-.1,0,0,0,0,0H.15Z"/></g></g></g></g></svg>