<?xml version="1.0" encoding="UTF-8"?><svg id="Layer_2" xmlns="http://www.w3.org/2000/svg" viewBox="0 0 85.61 84.28"><defs><style>.cls-1{fill:#a3a7ab;}</style></defs><g id="ORGANISERS_PAGE"><g id="HEADER_and_LEFT_PANEL"><g id="LEFT_PANEL"><g id="Logo_BBaze"><g><path class="cls-1" d="M70.2,33.7h0c0,.1,0,.2,.1,.3v-.2c-.1,0-.1-.1-.1-.1Z"/><polygon class="cls-1" points="27.5 42.3 27.4 42.3 27.5 42.4 27.5 42.3"/><path class="cls-1" d="M27.2,42.9h0l-.1-.2v.2h.1Z"/><path class="cls-1" d="M27.7,43.4h0c-.1-.1-.2-.1-.2,0h.2Z"/><rect class="cls-1" x="25.8" y="51.1" width=".1" height=".1"/><path class="cls-1" d="M27.2,44.6l.1-.1h-.1v.1Z"/><path class="cls-1" d="M21.8,44.5h0c-.1,.1,0,0,0,0h0Z"/><path class="cls-1" d="M26.4,47.4v-.1h-.1l.1,.1h0Z"/><path class="cls-1" d="M25.2,51s0,.1,0,0l.2,.1c.1-.1,.3-.1,.6-.2v-.1c0,.2-.3,.2-.8,.2Z"/><path class="cls-1" d="M27.4,43.3h0c-.2-.1-.3-.2-.3-.2l.2,.2c-.1,0,0,0,.1,0Z"/><polygon class="cls-1" points="26.5 42.3 26.4 42.3 26.5 42.4 26.5 42.3"/><polygon class="cls-1" points="27 43.6 26.9 43.6 27 43.8 27 43.6"/><path class="cls-1" d="M27.2,43.5h0c0,.1,.1,.1,0,0l.1-.1h-.3c.1,.1,.2,.1,.2,.1h0Z"/><path class="cls-1" d="M26.6,42.2c.1,0,.1,.1,.2,.1l.1,.1,.1-.1c-.1-.1-.1-.2-.2-.2-.3,.1-.5,.1-.7,.1l.5,.2v-.2h0Z"/><polygon class="cls-1" points="26.9 42.5 26.8 42.5 26.9 42.6 26.9 42.5"/><path class="cls-1" d="M22.2,45.7l.3,.1c.1,0,.2-.1,.1-.1h-.4Z"/><path class="cls-1" d="M22.4,51.4c.1,0,.2-.1,.1-.1l-.1,.1Z"/><path class="cls-1" d="M21.9,48.8c.1,0,.2,0,.2-.1q.1,0,.2-.1c-.1,0-.2,0-.2,.1q-.1,0-.2,.1Z"/><path class="cls-1" d="M25,51.4h.1v-.1h-.2l.1,.1Z"/><polygon class="cls-1" points="21.4 44.7 21.3 44.7 21.4 44.8 21.4 44.7"/><path class="cls-1" d="M21.9,45.9s.1-.1,0,0h.1c-.1,0-.2,0-.5,.1v.1c.1,0,.2,.1,.2,.1h.1l.1-.3c-.1,0,0,0,0,0h0Z"/><path class="cls-1" d="M24.3,51.1q0,.1,.1,.2h-.1v.1h.2l.1-.1-.1-.1,.1-.1h.2l-.2,.1-.3-.1h0Z"/><polygon class="cls-1" points="25.5 50.9 25.4 50.9 25.5 51 25.5 50.9"/><polygon class="cls-1" points="23.5 51.4 23.5 51.3 23.4 51.4 23.5 51.4"/><rect class="cls-1" x="24" y="51.4" width=".1" height=".1"/><path class="cls-1" d="M24.1,51.1h.1l-.1-.1v.1Z"/><path class="cls-1" d="M26,43.1l.1,.1q0-.1-.1-.2v.1Z"/><path class="cls-1" d="M25.8,39.4l-.2,.1c.2-.1,.3-.1,.2-.1h0Z"/><rect class="cls-1" x="25.6" y="39.5" width=".2" height=".1"/><polygon class="cls-1" points="25.4 39.6 25.4 39.5 25.3 39.5 25.4 39.6"/><rect class="cls-1" x="25.5" y="38.1" width=".1" height=".1"/><rect class="cls-1" x="25.6" y="36.8" width=".1" height=".1"/><path class="cls-1" d="M25.4,39.4h0q.1,0,0,0,.1,0,.1-.1l-.1,.1h0Z"/><path class="cls-1" d="M26.1,37.6h.1s0-.1-.1,0c.1,0,0,0,0,0Z"/><path class="cls-1" d="M26.2,38.1c-.1,0-.2,0-.3,.1h-.2v-.1l-.1,.1c0,.1,.1,.1,.2,.2v.1h.2c.1,0,.2,0,.3,.1,.1-.1,.2-.1,.3,0l.1-.2h-.1v.1c-.2,0-.3,0-.4-.1v-.3h0Z"/><path class="cls-1" d="M25.9,38l.4-.1c-.2,0-.4,0-.4,.1-.1,0,0,0,0,0h0Z"/><polygon class="cls-1" points="26.1 37.7 26 37.7 26.1 37.8 26.1 37.7"/><rect class="cls-1" x="25.7" y="38.7" width=".1" height=".1"/><polygon class="cls-1" points="26.1 37.4 26 37.4 26.1 37.5 26.1 37.4"/><path class="cls-1" d="M26,38.9h.1s0-.1-.1,0h0Z"/><rect class="cls-1" x="26" y="38.6" width=".1" height=".1"/><path class="cls-1" d="M27.1,38.3h-.2v.1c-.1,0,0,0,.2-.1h0Z"/><polygon class="cls-1" points="26.4 39 26.4 38.9 26.3 38.9 26.4 39"/><path class="cls-1" d="M26,38.1h-.1v.1l.1-.1h0Z"/><path class="cls-1" d="M25.9,37.9s-.1,0-.4,.1c.1,0,.2,0,.2-.1h.2Z"/><polygon class="cls-1" points="25.7 42.1 25.6 42.1 25.7 42.2 25.7 42.1"/><path class="cls-1" d="M25.6,42.4h.2c-.1,0-.2-.1-.2-.1v.1Z"/><path class="cls-1" d="M26.2,36.8l-.1-.1-.1,.2q.1-.1,.2-.1Z"/><rect class="cls-1" x="26" y="42.4" width=".2" height=".1"/><path class="cls-1" d="M25.4,40.1h0c-.1,0-.1,.1,0,.1l.2-.1h-.2q.1,0,0,0h0Z"/><path class="cls-1" d="M25.3,38.4c.1,0,.1-.1,.2-.1h-.2v.1h0Z"/><path class="cls-1" d="M26.1,43.2l.2,.2c0-.1,0-.2-.2-.2Z"/><path class="cls-1" d="M25.3,39s.1,0,.1,.1h.1l-.2-.1c.1-.1,0-.1,0,0Z"/><path class="cls-1" d="M22.6,42.5s.1,0,.1,.1c0,0,.1-.1,.1-.2h-.2v.1Z"/><path class="cls-1" d="M23.4,38h0c-.1-.1-.2-.1-.2-.1h-.1l.3,.1h0Z"/><polygon class="cls-1" points="21.4 40.2 21.4 40.1 21.3 40.1 21.4 40.2"/><polygon class="cls-1" points="21.1 39.1 21.1 39 21 39 21.1 39.1"/><path class="cls-1" d="M21.4,42.9h0c0,.1,.1,.1,.1,.1v-.2l-.1,.1h0Z"/><rect class="cls-1" x="21.2" y="37.6" width=".1" height=".1"/><polygon class="cls-1" points="22.1 37.4 22.2 37.5 22.2 37.4 22.1 37.4"/><rect class="cls-1" x="21" y="37.9" width=".1" height=".1"/><path class="cls-1" d="M20.4,42.8h0c.1,0,0-.1,0,0h0Z"/><path class="cls-1" d="M20.6,37.2h-.2v.1s.1,0,.2-.1h0Z"/><polygon class="cls-1" points="20.5 43 20.8 43 20.6 42.8 20.5 43"/><path class="cls-1" d="M23.2,36c-.1,0-.2,0-.3,.1l.3-.1h0Z"/><path class="cls-1" d="M23.1,35.7s.1,.1,0,0v.2c.1-.1,.2-.2,.3-.2h-.3Z"/><path class="cls-1" d="M22.1,37.9h.2s-.1,0-.2-.1v.1Z"/><path class="cls-1" d="M22.5,37.3v-.1c.2,0,.4,0,.4,.1v-.1h-.6s.1,0,.2,.1h0Z"/><polygon class="cls-1" points="20.7 39 20.6 39.1 20.7 39.1 20.7 39"/><path class="cls-1" d="M23.2,36.1s.1,0,.1,.1h.1v-.1l-.2-.1v.1Z"/><path class="cls-1" d="M23,37.4h0q.1-.1,0,0Z"/><rect class="cls-1" x="22.8" y="37.5" width=".1" height=".1"/><path class="cls-1" d="M23.3,36.4v-.2h-.1l.1,.2h0Z"/><path class="cls-1" d="M26.6,37.9v-.1h-.2l.1,.1h.1Z"/><polygon class="cls-1" points="26.6 37.3 26.5 37.3 26.6 37.4 26.6 37.3"/><path class="cls-1" d="M26.5,37.7l.2-.2v.2l.2-.1v-.2c-.1,0-.2,0-.4,.1,.1,0,.1,.1,.1,.1v.1h-.1Z"/><path class="cls-1" d="M27.2,37.5h.1v-.1l-.1,.1Z"/><path class="cls-1" d="M27.5,37.5h0q.1,0,.2-.1l-.2,.1c-.1,0,0,0,0,0h0Z"/><path class="cls-1" d="M27.3,37.8l.2-.1h-.4s.1,0,.2,.1q0-.1,0,0h0Z"/><path class="cls-1" d="M27.3,36.8s-.1,0,0,0q-.1,0,0,0h-.1q0,.1,.1,0,0,.1,0,0h0Z"/><path class="cls-1" d="M25.3,37.3s0,.1,0,0c0,.1,.1,.1,0,0,.1,.1,.1,0,0,0Z"/><polygon class="cls-1" points="20.7 42.7 20.6 42.7 20.7 42.8 20.7 42.7"/><polygon class="cls-1" points="24.9 37 24.8 37 24.9 37.1 24.9 37"/><path class="cls-1" d="M24.8,37.4h.1q0-.1-.1,0,0-.1,0,0Z"/><path class="cls-1" d="M21.5,37.7l.2-.1h-.1q-.2,.1-.1,.1Z"/><rect class="cls-1" x="23.4" y="42.4" width=".1" height=".1"/><path class="cls-1" d="M23.4,38.7h-.1v.1c-.1,0,0,0,.1-.1,0,.1,0,0,0,0Z"/><rect class="cls-1" x="23.1" y="39.2" width=".1" height=".1"/><polygon class="cls-1" points="22.4 38 22.3 38 22.4 38.1 22.4 38"/><polygon class="cls-1" points="25 41.8 24.9 41.8 25 41.9 25 41.8"/><rect class="cls-1" x="23" y="38.4" width=".2" height=".1"/><polygon class="cls-1" points="20.6 45 20.6 44.9 20.5 44.9 20.6 45"/><rect class="cls-1" x="24.8" y="39.8" width=".1" height=".1"/><rect class="cls-1" x="22.1" y="44.3" width=".1" height=".1"/><path class="cls-1" d="M22.5,45.6h.2s-.2-.1-.5-.1l.3,.1Z"/><path class="cls-1" d="M21,44.7h-.2v.2h.2c-.1-.1-.1-.2,0-.2h0Z"/><polygon class="cls-1" points="25 43 25 42.9 24.9 42.9 25 43"/><polygon class="cls-1" points="25 42.7 25 42.6 24.9 42.6 25 42.7"/><path class="cls-1" d="M22.1,37.1h-.7l.1,.1,.6-.1h0Z"/><path class="cls-1" d="M22,37.9h0c-.1-.1-.1,0,0,0Z"/><polygon class="cls-1" points="22.6 36.2 22.6 36.1 22.5 36.1 22.6 36.2"/><polygon class="cls-1" points="21.4 37.8 21.4 37.9 21.8 37.8 21.4 37.8"/><polygon class="cls-1" points="22.4 36.1 22.5 36.2 22.5 36.1 22.4 36.1"/><path class="cls-1" d="M22.3,35.9l-.1,.1,.1-.1q0,.1,0,0h0Z"/><path class="cls-1" d="M22.4,35.9h.1q-.1,.1-.1,0l.2,.1c-.1-.2-.2-.3-.3-.3,0,0-.1,0-.1,.1l.2,.1h0Z"/><polygon class="cls-1" points="22.1 35.9 22 35.9 22.1 36 22.1 35.9"/><path class="cls-1" d="M25.1,38.2l-.1,.1,.1-.1h0Z"/><path class="cls-1" d="M22.9,38.3s0-.1,0,0c-.1,0-.2-.1-.2-.1,0,0,.1-.1,.3-.1l.1,.1,.1-.1-.4-.1h-.2c-.1,.1-.2,.1-.4,.1v-.1h-.5l.1-.1q-.1,0-.2,.1l.4,.4c.2-.1,.5-.1,.6-.1h.3Zm-1,.1h0Zm.3,0h0Zm.4-.2s.1,0,.1,.1c-.1,0-.2,0-.1-.1h0Z"/><path class="cls-1" d="M21.5,39.1h.1v-.1s-.1,0-.1,.1h0Z"/><path class="cls-1" d="M22.1,42.5s0,.1,0,0c.1,.1,.2,0,.2,0h-.2c.1-.1,0,0,0,0Z"/><polygon class="cls-1" points="22.2 42 22.1 42 22.2 42.1 22.2 42"/><path class="cls-1" d="M30.9,35l-.1,.1s0-.1,.1-.1h0Z"/><path class="cls-1" d="M31,35.2c-.1,0-.2,0-.2,.1,0,.2,0,.3,.1,.3l.2-.2-.1-.1h.1l-.1-.1h0Z"/><polygon class="cls-1" points="31.1 34.1 31 34.1 31.1 34.2 31.1 34.1"/><path class="cls-1" d="M30.9,33.6h0c.1,.1,.2,.1,.3,0h-.3Z"/><path class="cls-1" d="M30.9,34s.1-.1,0,0q0-.1,0,0Z"/><path class="cls-1" d="M30.8,34.7l.1-.1c-.1,0-.2,0-.2-.1,0,.2,.1,.2,.1,.2h0Z"/><path class="cls-1" d="M31.4,33.7h0c-.1,.1-.1,.2-.1,.2,.1,.1,.1,0,.1-.2h0Z"/><path class="cls-1" d="M32.2,32.4s-.1,.1,0,0q0,.1,0,0c0,.1,0,0,0,0h0Z"/><polygon class="cls-1" points="32.2 34.2 32.1 34.2 32.2 34.3 32.2 34.2"/><rect class="cls-1" x="32" y="33.2" width=".1" height=".1"/><path class="cls-1" d="M31.3,34.4h.1v-.2s0,.1-.1,.2Z"/><rect class="cls-1" x="31.3" y="33.6" width=".1" height=".1"/><polygon class="cls-1" points="32.3 34 32.3 33.9 32.2 33.9 32.3 34"/><path class="cls-1" d="M30.3,33.7v0l-.2-.1v-.1h-.1c0,.2,.2,.3,.3,.2h0Z"/><path class="cls-1" d="M29.8,34.5v-.1q-.1,.1,0,.1Z"/><rect class="cls-1" x="30.4" y="34.4" width=".1" height=".1"/><path class="cls-1" d="M30.1,33.9h.2c-.1-.1-.2-.1-.4-.1l.2,.1Z"/><path class="cls-1" d="M30.1,35.3l-.1-.1c-.1,.1,0,.1,.1,.1Z"/><path class="cls-1" d="M29.7,32.2v-.2s-.1,.1,0,.2Z"/><path class="cls-1" d="M30.4,35h0c.1,0,.1-.1,.1-.1l-.1,.1c0-.1,0,0,0,0Z"/><polygon class="cls-1" points="30.5 35.2 30.5 35.1 30.4 35.1 30.5 35.2"/><rect class="cls-1" x="30.3" y="35.1" width=".1" height=".1"/><path class="cls-1" d="M30.4,34.7h0c.1,.1,.1,0,.1,0h-.1Z"/><polygon class="cls-1" points="30.4 34.3 30.3 34.3 30.4 34.4 30.4 34.3"/><path class="cls-1" d="M30,34.6s.1,0,.2-.1c.1,0,.2,0,.2-.1h-.3c0-.2-.1-.3-.1-.3l.1,.1-.2,.1q0,.2,.1,.3h0Z"/><path class="cls-1" d="M30,34.7h0l-.1-.1v.1h.1Z"/><polygon class="cls-1" points="30.3 35.4 30.3 35.3 30.1 35.4 30.3 35.4"/><path class="cls-1" d="M30.2,35h-.2l.1,.1,.1-.1h0Z"/><polygon class="cls-1" points="30.8 32.9 30.7 32.9 30.8 33 30.8 32.9"/><polygon class="cls-1" points="30.6 33 30.6 32.8 30.5 32.9 30.6 33"/><polygon class="cls-1" points="30.8 33.1 30.7 33.1 30.8 33.2 30.8 33.1"/><rect class="cls-1" x="30.6" y="33.1" width=".1" height=".1"/><path class="cls-1" d="M31.1,33h0c.1-.1,0,0,0,0Z"/><rect class="cls-1" x="31.1" y="34.5" width=".1" height=".1"/><polygon class="cls-1" points="30.9 31.9 30.8 31.9 30.9 32 30.9 31.9"/><path class="cls-1" d="M30.3,33.2s.1,0,0,0c-.1-.1-.2-.1-.2-.1l.2,.1h0Z"/><polygon class="cls-1" points="30.5 32.2 30.4 32.2 30.5 32.3 30.5 32.2"/><polygon class="cls-1" points="30.5 33.5 30.4 33.5 30.5 33.6 30.5 33.5"/><path class="cls-1" d="M30.6,34h.2l-.3-.1v.1h.1Z"/><rect class="cls-1" x="32.5" y="35.4" width=".1" height=".1"/><path class="cls-1" d="M32.4,35.4s0-.1,0,0l.1-.1h-.2l.1,.1Z"/><rect class="cls-1" x="32.5" y="35.3" width=".1" height=".1"/><path class="cls-1" d="M31.6,33.8h-.1v.1s.1,0,.1-.1Z"/><rect class="cls-1" x="31.6" y="33.1" width=".1" height=".1"/><path class="cls-1" d="M31.4,33.1c0,.1-.1,.1-.1,.2l.1-.1v-.1Z"/><path class="cls-1" d="M32.2,32.1l-.1-.1s0,.1,.1,.1h0Z"/><polygon class="cls-1" points="32 32.3 31.9 32.3 32 32.4 32 32.3"/><polygon class="cls-1" points="31.9 32.7 31.9 32.6 31.8 32.6 31.9 32.7"/><rect class="cls-1" x="36.7" y="35.3" width=".1" height=".1"/><polygon class="cls-1" points="27.3 47 27.3 46.9 27.2 46.9 27.3 47"/><polygon class="cls-1" points="27.5 49.7 27.5 49.6 27.4 49.6 27.5 49.7"/><path class="cls-1" d="M27.6,49.3l.1-.1h-.1v.1h0Z"/><polygon class="cls-1" points="27.3 48.3 27.3 48.2 27.2 48.2 27.3 48.3"/><path class="cls-1" d="M27.1,48.2h0c.1-.1,0-.1,0,0h0Z"/><polygon class="cls-1" points="27.3 49.5 27.3 49.4 27.2 49.4 27.3 49.5"/><path class="cls-1" d="M29.7,33.6s-.1,0,0,0h0v.1q-.1-.1,0-.1Z"/><rect class="cls-1" x="36.7" y="35.2" width=".1" height=".1"/><polygon class="cls-1" points="27.1 48.2 27.1 48.1 27 48.1 27.1 48.2"/><path class="cls-1" d="M37,35.8s0-.1,0,0c-.1-.1,0,0,0,0Z"/><polygon class="cls-1" points="36.9 35.6 37 35.7 37 35.6 36.9 35.6"/><path class="cls-1" d="M35.4,35.8v.1l.2-.1v-.1c-.1,0-.1,.1-.2,.1h0Z"/><path class="cls-1" d="M34.6,35.8h0c0,.1,0,0,0,0,.1,0,0,0,0,0h0Z"/><path class="cls-1" d="M35.2,35.9h0q0,.1,0,0c.1,0,0,0,0,0h0Z"/><path class="cls-1" d="M36.5,35.9h0c0-.1-.1-.1-.2-.1l.2,.1h0Z"/><path class="cls-1" d="M36.7,36l.1-.1-.2-.1-.1,.1c.1,0,.2,0,.2,.1h0Z"/><rect class="cls-1" x="25.7" y="42.7" width=".1" height=".1"/><rect class="cls-1" x="25.2" y="42.8" width=".1" height=".1"/><path class="cls-1" d="M25.4,43c0,.1,.1,.2,.3,.2l-.3-.2Z"/><path class="cls-1" d="M25.2,38.4h-.3l.1,.1c.1,0,.2,0,.2-.1h0Z"/><path class="cls-1" d="M25.5,42.8h.2l-.1-.1c.3-.1,.5-.1,.5-.1,0,0-.1-.1-.3-.1-.1,0-.2,.1-.4,.1h-.3l.1-.1h-.1l-.1,.2h.4l.1,.1h0Z"/><polygon class="cls-1" points="25.3 38.8 25.2 38.8 25.3 38.9 25.3 38.8"/><polygon class="cls-1" points="25 38.6 25 38.5 24.9 38.5 25 38.6"/><path class="cls-1" d="M25.2,39.9h.2c-.1,0-.1-.1-.1-.1h-.2c0,.1,.1,.1,.1,.1Z"/><path class="cls-1" d="M25.9,43.6c.1,0,.1-.1,.1-.1l-.1,.1h0Z"/><rect class="cls-1" x="26.8" y="48" width=".1" height=".1"/><path class="cls-1" d="M26.3,43.2v.1c.1,0,.2,0,.3,.1,.2-.2,0-.2-.3-.2Z"/><path class="cls-1" d="M26.1,43.6s.1-.1,0,0h0Z"/><path class="cls-1" d="M25.9,43.1l-.2,.2,.2-.1,.1,.1,.1-.1s-.1-.1-.2-.1Z"/><path class="cls-1" d="M25.1,43.1s.1,0,0,0l.1,.1h.1q-.1-.1-.2-.1h0Z"/><polygon class="cls-1" points="33 33 33.2 33 33.2 33 33 32.9 33 33"/><polygon class="cls-1" points="33.1 33.8 33.1 33.7 33 33.7 33.1 33.8"/><polygon class="cls-1" points="33.8 33.2 33.7 33.2 33.8 33.3 33.8 33.2"/><rect class="cls-1" x="33.9" y="33.4" width=".1" height=".1"/><polygon class="cls-1" points="33 33.8 33 33.7 32.9 33.7 33 33.8"/><polygon class="cls-1" points="33 32.9 32.9 32.9 33 33 33 32.9"/><polygon class="cls-1" points="32.9 33.8 32.9 33.7 32.8 33.7 32.9 33.8"/><path class="cls-1" d="M33.7,33.2s-.1-.1-.3-.1l.2,.1h.1Z"/><polygon class="cls-1" points="33.3 33.1 33.2 33.1 33.3 33.2 33.3 33.1"/><path class="cls-1" d="M34.7,32.8s0-.1,0,0l-.1,.2h.2c0-.1,0-.2-.1-.2Z"/><path class="cls-1" d="M34.6,35.7h.1v.1c.2,0,.4,0,.5-.1h.4l.1,.2h.1v-.2c.2,.1,.4,.1,.6,.1q.1,0,.2-.1h-.4l-.3-.2v.1h-.6c-.1,.1-.2,.1-.3,.1-.2,0-.3-.1-.3-.1q-.1,0-.1,.1h0Z"/><rect class="cls-1" x="35.1" y="32.8" width=".1" height=".1"/><polygon class="cls-1" points="34.6 33.1 34.6 33 34.5 33 34.6 33.1"/><polygon class="cls-1" points="36.5 35.5 36.2 35.4 36.3 35.5 36.5 35.5"/><rect class="cls-1" x="35.3" y="35.4" width=".1" height=".1"/><rect class="cls-1" x="35.6" y="35.5" width=".1" height=".1"/><path class="cls-1" d="M34.3,32.6h0c.1-.1,0-.1,0,0Z"/><polygon class="cls-1" points="34.2 32.6 34.1 32.6 34.2 32.7 34.2 32.6"/><polygon class="cls-1" points="34.4 32.8 34.3 32.8 34.4 32.9 34.4 32.8"/><polygon class="cls-1" points="34.2 33.4 34.1 33.4 34.2 33.5 34.2 33.4"/><polygon class="cls-1" points="34.6 32.9 34.5 32.9 34.5 33 34.6 32.9"/><rect class="cls-1" x="34.4" y="33.5" width=".1" height=".1"/><polygon class="cls-1" points="34.2 35.9 34.4 35.8 34.1 35.8 34.2 35.9"/><polygon class="cls-1" points="35.3 32.7 35.2 32.7 35.3 32.8 35.3 32.7"/><polygon class="cls-1" points="43 41 43 40.9 42.9 40.9 43 41"/><path class="cls-1" d="M43,40.9h0c.1-.1,0-.1,0,0h0Z"/><polygon class="cls-1" points="43 38.2 43 38.1 42.9 38.1 43 38.2"/><path class="cls-1" d="M42.9,42.4h0q0-.1-.1-.1t.1,.1h0Z"/><polygon class="cls-1" points="44.4 39.5 44.5 39.4 44.3 39.4 44.4 39.5"/><path class="cls-1" d="M42.6,39.7h0q0,.1,0,0c.1,0,0,0,0,0h0Z"/><polygon class="cls-1" points="42.5 39.3 42.4 39.3 42.5 39.4 42.5 39.3"/><rect class="cls-1" x="42.6" y="32.2" width=".1" height=".1"/><rect class="cls-1" x="42.7" y="40.1" width=".1" height=".1"/><path class="cls-1" d="M42.8,36.5h0l.4,.1s-.1-.1-.4-.1h0Z"/><polygon class="cls-1" points="43.3 38.7 43.3 38.6 43.2 38.6 43.3 38.7"/><polygon class="cls-1" points="42.1 40.6 42.2 40.7 42.2 40.6 42.1 40.6"/><path class="cls-1" d="M42.5,40.8l.1,.1h.1v-.1h-.1v-.2h-.2l.1,.2h0Z"/><rect class="cls-1" x="41.9" y="41" width=".1" height=".1"/><path class="cls-1" d="M41.9,41.1q-.1,0,0,0c0,.1,0,0,0,0Z"/><path class="cls-1" d="M42.2,41.6h-.2l-.1,.1,.1,.1,.2-.2c.1,.1,0,0,0,0Z"/><path class="cls-1" d="M27.3,38.5h0l-.1-.1c0,.1,.1,.1,.1,.1Z"/><path class="cls-1" d="M42.4,41.1v.1h.1s-.1,0-.1-.1Z"/><path class="cls-1" d="M42.7,42.3h0c-.1-.1-.1,0-.1,0v.1l.1-.1h0Z"/><rect class="cls-1" x="42.2" y="41.5" width=".1" height=".1"/><polygon class="cls-1" points="42.4 40.2 42.3 40.2 42.4 40.3 42.4 40.2"/><polygon class="cls-1" points="42.3 40.7 42.3 40.6 42.2 40.6 42.3 40.7"/><polygon class="cls-1" points="42.4 40 42.3 40 42.4 40.1 42.4 40"/><polygon class="cls-1" points="42.7 41.5 42.6 41.5 42.7 41.6 42.7 41.5"/><path class="cls-1" d="M40.1,41.7h0c-.1,0,0,.1,0,0Z"/><path class="cls-1" d="M40.2,41.9l.1-.1s0,0-.1,.1h0Z"/><rect class="cls-1" x="40.9" y="39.3" width=".1" height=".1"/><rect class="cls-1" x="40.7" y="36.5" width=".1" height=".1"/><path class="cls-1" d="M40.6,40h-.1v.1h.1v-.1Z"/><path class="cls-1" d="M40.5,42.1l.1-.1v-.1h-.1v.2Z"/><path class="cls-1" d="M41.3,41.6l-.2,.1v.1c.1-.1,.2-.1,.2-.2h0Z"/><path class="cls-1" d="M41,42.1l.1-.1c0,.1,0,0-.1,.1h0Z"/><path class="cls-1" d="M41,41.8s-.1,0,0,0h0q0,.1,0,0h0Z"/><path class="cls-1" d="M41.2,42.3s0,.1,.1,.1c-.1,0-.1-.1-.1-.1h0Z"/><path class="cls-1" d="M41.2,41.9c.1,0,.1-.1,.1-.1,0,0-.1,0-.1,.1Z"/><polygon class="cls-1" points="40.5 41.7 40.5 41.6 40.4 41.6 40.5 41.7"/><path class="cls-1" d="M40.3,40.8l.1-.1-.1,.1q0-.1,0,0Z"/><path class="cls-1" d="M40.6,41.8s.1,0,.1,.1c0,0,.1,0,.1-.1h-.2Z"/><path class="cls-1" d="M40.7,42.1l.1-.1s0,0-.1,.1h0Z"/><path class="cls-1" d="M41.7,41.1s.1-.1,0,0q.1-.1,0,0Z"/><path class="cls-1" d="M42,40.6h0c.1-.1,0-.1-.1-.1q0,.1,.1,.1h0Z"/><polygon class="cls-1" points="42 36.5 41.9 36.5 42 36.6 42 36.5"/><polygon class="cls-1" points="41.3 36.5 41.2 36.5 41.2 36.6 41.4 36.6 41.3 36.5"/><polygon class="cls-1" points="41.8 38.2 41.7 38.2 41.8 38.3 41.8 38.2"/><path class="cls-1" d="M42.4,41h0c.1-.1,0-.1,0,0h0Z"/><rect class="cls-1" x="42" y="40.2" width=".2" height=".1"/><path class="cls-1" d="M42.4,36.6h-.3l.1,.1,.2-.1h0Z"/><path class="cls-1" d="M41.2,40.9h0c0,.1,.1,0,0,0h0Z"/><path class="cls-1" d="M40.8,40.1h0l.2,.1s-.1-.1-.2-.1Z"/><rect class="cls-1" x="40.4" y="40.1" width=".1" height=".1"/><path class="cls-1" d="M40.8,40.9h0l.1,.1q0-.1-.1-.1Z"/><path class="cls-1" d="M40.7,41.5l-.1,.1h.1v-.1Z"/><path class="cls-1" d="M41.2,40.6c-.2-.1-.3-.1-.4-.1s-.2,0-.4,.1l.1,.1s0-.1,.1-.1l.2,.1v-.1h.2v.1q-.1,.1-.1,.2c.1-.1,.2-.1,.4-.1q-.1-.1-.1-.2h0Z"/><polygon class="cls-1" points="45.3 40 45.2 40 45.3 40.1 45.3 40"/><polygon class="cls-1" points="45.2 37.4 45.1 37.4 45.2 37.5 45.2 37.4"/><path class="cls-1" d="M45.4,42.8v0c-.1,0,0,0,0,0Z"/><rect class="cls-1" x="44.8" y="39.6" width=".1" height=".1"/><polygon class="cls-1" points="45.1 39.8 45 39.8 45.1 39.9 45.1 39.8"/><path class="cls-1" d="M45.2,39.8v-.1h-.1l.1,.1Z"/><path class="cls-1" d="M45.7,39.7l-.2-.1v.2s.1-.1,.2-.1h0Z"/><path class="cls-1" d="M45.6,40.3s0-.1,0,0q0-.1,0,0l-.1,.1,.1-.1q.1,0,0,0h0Z"/><path class="cls-1" d="M45.7,39.5v-.3c-.1,0-.2,.1-.3,.1q.2,.1,.3,.2Z"/><rect class="cls-1" x="45.7" y="39.7" width=".1" height=".1"/><path class="cls-1" d="M45.9,40.3c.1,0,.1-.1,.2-.1-.1,0-.2,0-.2,.1Z"/><polygon class="cls-1" points="45.5 40.1 45.5 40 45.4 40 45.5 40.1"/><polygon class="cls-1" points="46 39.3 46 39.2 45.9 39.2 46 39.3"/><polygon class="cls-1" points="45.9 39.3 45.9 39.2 45.8 39.2 45.9 39.3"/><path class="cls-1" d="M45.9,34.5h0l-.1-.1s0,.1,.1,.1Z"/><path class="cls-1" d="M46.8,43.4s-.1,0-.1-.1-.1,0-.2-.1c0-.1-.1-.1-.1-.1,0,.1-.1,.1-.1,.1h0l-.3,.1-.1-.1c.1,0,.2,0,.4-.1,.2-.1,.3-.1,.4-.1l-.2,.2h.4v.1h-.1l.2,.1h-.1s-.1,.1-.1,0q0,.1,0,0l.2,.1v-.1c.1,0,.2,0,.2-.1h.3v.1l.1-.1c-.1-.1-.2-.2-.4-.2h.1l-.1-.1s-.1,0-.1,.1l-.1-.2q0,.1-.1,.1v-.1h-.6l-.1,.2c0-.2-.1-.3,0-.3h-.1v.1s-.1,0-.1-.1v-.1c-.2,0-.3-.1-.4-.1v.1h.3v.1l-.1-.1c0,.1,0,.2-.1,.2l-.1-.1h-.2c-.1,0-.1-.1-.2-.1l.2,.2s-.1,0-.1,.1l.1,.1h.3l.1,.1c.5,0,.7,.1,.7,.2h-.5l.1,.1h.1c.3,.1,.5,0,.6-.1,0,.1,0,0,0,0h0Zm.4-.1h0Zm-.2-.2v0Zm-1.5,.1v-.2l.1,.1-.1,.1Z"/><path class="cls-1" d="M42.8,43.5v-.1c-.1,0-.1,.1,0,.1q-.1,0,0,0Z"/><polygon class="cls-1" points="42.3 43.1 42.2 43.1 42.2 43.2 42.3 43.1"/><path class="cls-1" d="M45.5,43.5h0c-.1-.1-.1,0,0,0l-.1,.1,.1-.1Z"/><path class="cls-1" d="M45.7,43.4v.1c.1,0,.2-.1,.2-.1h-.2Z"/><path class="cls-1" d="M46.9,42.9s0-.1,0,0q-.1,0,0,0h0Z"/><rect class="cls-1" x="44.8" y="40.2" width=".1" height=".1"/><polygon class="cls-1" points="47 43.7 47 43.6 46.9 43.6 47 43.7"/><path class="cls-1" d="M45.3,32h-.4l.1,.1c.1,0,.2-.1,.3-.1Z"/><path class="cls-1" d="M41.3,40.4h.2q-.1,.1-.2,0h0Z"/><path class="cls-1" d="M47.3,43.6h0l.2-.1v-.1l-.2,.2h0Z"/><polygon class="cls-1" points="47.3 42.4 47.2 42.4 47.3 42.5 47.3 42.4"/><polygon class="cls-1" points="45.2 33.2 45.1 33.2 45.2 33.3 45.2 33.2"/><polygon class="cls-1" points="45.2 33.4 45.1 33.4 45.2 33.5 45.2 33.4"/><rect class="cls-1" x="45" y="39.5" width=".1" height=".1"/><path class="cls-1" d="M46.2,34s-.1,0,0,0l.3,.1c0-.1-.1-.1-.3-.1Z"/><path class="cls-1" d="M45.6,33.5h.3s-.2,0-.6-.1l-.1,.1h.4c0,.1,0,0,0,0h0Z"/><path class="cls-1" d="M45.9,33.9l-.1,.1c.1,0,.2-.1,.2-.1h-.1q.1-.1,.2-.1v-.1c-.3,0-.5,.1-.6,.1,.1,.1,.2,.1,.4,.1Z"/><path class="cls-1" d="M45.4,33.2c-.1,0-.1,.1-.1,.1l.1-.1h0Z"/><path class="cls-1" d="M45.9,34.3c.1,0,.1,.1,.1,.1h.1v-.1c0-.1-.1-.1-.2,0,0-.1,0,0,0,0Z"/><polygon class="cls-1" points="44.3 39.6 44.3 39.5 44.2 39.5 44.3 39.6"/><polygon class="cls-1" points="44.3 40.1 44.3 40 44.2 40 44.3 40.1"/><path class="cls-1" d="M44.4,39.8s0-.1,.1-.1h-.1v.1h0Z"/><path class="cls-1" d="M44.6,39.6c.2-.1,.2-.2,.2-.2-.1,0-.1,.1-.2,.2Z"/><polygon class="cls-1" points="45 42.8 45 42.7 44.9 42.7 45 42.8"/><polygon class="cls-1" points="44.6 40.5 44.5 40.5 44.6 40.6 44.6 40.5"/><path class="cls-1" d="M46,39.3h0c0,.1,.1,.1,0,0,.1,.1,.2,.1,.2,.1h.1v-.2c-.1,0-.2,.1-.3,.1h0Z"/><path class="cls-1" d="M46.1,40.1v-.1h-.1l.1,.1Z"/><path class="cls-1" d="M45.8,40l-.1,.1q.1,0,.1-.1h0Z"/><polygon class="cls-1" points="46.1 40.6 46.1 40.5 46 40.5 46.1 40.6"/><polygon class="cls-1" points="42.4 41.1 42.3 41.1 42.4 41.2 42.4 41.1"/><polygon class="cls-1" points="23 34 23 33.9 22.9 33.9 23 34"/><path class="cls-1" d="M23.1,35.4s0-.1,0,0l.1-.1h-.2l.1,.1Z"/><rect class="cls-1" x="22.7" y="33.2" width=".1" height=".1"/><rect class="cls-1" x="23.2" y="35.3" width=".1" height=".1"/><path class="cls-1" d="M22.9,32.1l-.1-.1s0,.1,.1,.1h0Z"/><rect class="cls-1" x="23.2" y="35.4" width=".1" height=".1"/><rect class="cls-1" x="21.2" y="34.4" width=".1" height=".1"/><path class="cls-1" d="M21.5,34.7l.1-.1c-.1,0-.2,0-.2-.1,0,.2,.1,.2,.1,.2h0Z"/><path class="cls-1" d="M21.1,34.7h0c.1,.1,.1,0,.1,0h-.1Z"/><rect class="cls-1" x="21.1" y="35.1" width=".1" height=".1"/><path class="cls-1" d="M21.1,35h0c.1,0,.1-.1,.1-.1l-.1,.1c0-.1,0,0,0,0Z"/><path class="cls-1" d="M21.6,33.6h0c.1,.1,.2,.1,.3,0h-.3Z"/><rect class="cls-1" x="22.1" y="33.6" width=".1" height=".1"/><path class="cls-1" d="M22.1,33.7h0c-.1,.1-.1,.2-.1,.2,.1,.1,.1,0,.1-.2h0Z"/><path class="cls-1" d="M21.6,34s.1-.1,0,0c.1-.1,0-.1,0,0Z"/><path class="cls-1" d="M22.1,34.4h.1v-.2s-.1,.1-.1,.2Z"/><polygon class="cls-1" points="21.8 34.9 21.8 34.8 21.7 34.8 21.8 34.9"/><path class="cls-1" d="M21.8,35.2c-.1,0-.2,0-.2,.1,0,.2,0,.3,.1,.3l.2-.2-.1-.1h.1l-.1-.1h0Z"/><polygon class="cls-1" points="21.8 34.3 21.7 34.3 21.8 34.4 21.8 34.3"/><path class="cls-1" d="M20.7,32.9s0-.1,0,0c-.1-.1-.1,0,0,0Z"/><path class="cls-1" d="M21.1,33.2h0c-.1-.1-.2-.1-.2-.1l.2,.1h0Z"/><path class="cls-1" d="M20.6,32h.2c0,.1-.1,0-.2,0h0Z"/><path class="cls-1" d="M21.3,34h.2l-.3-.1v.1h.1Z"/><polygon class="cls-1" points="21.2 33.5 21.1 33.5 21.2 33.6 21.2 33.5"/><polygon class="cls-1" points="21.1 32.2 21 32.2 21.1 32.3 21.1 32.2"/><path class="cls-1" d="M24.8,39.7c.1,0,.1-.1,.1-.1h-.3s.1,0,.2,.1c0-.1,0,0,0,0h0Z"/><polygon class="cls-1" points="22.7 32.3 22.6 32.3 22.7 32.4 22.7 32.3"/><polygon class="cls-1" points="21.2 32.2 21.1 32.2 21.2 32.3 21.2 32.2"/><path class="cls-1" d="M27.7,44h0c0,.1,.1,.1,.2,.1v-.1c-.1-.1-.2-.1-.2,0q-.1,0,0,0Z"/><path class="cls-1" d="M20.7,33.1s.1,0,0,0h-.1q.1,.1,.1,0,0,.1,0,0h0Z"/><polygon class="cls-1" points="20.5 32.9 20.4 32.9 20.5 33 20.5 32.9"/><path class="cls-1" d="M20.4,35.1l.1-.1,.1,.1c0-.1,.1-.1,.2-.1h-.3c0-.1-.1-.1-.1-.2v.2l.1,.1c-.1-.1-.1,0-.1,0Z"/><polygon class="cls-1" points="20.6 33.3 20.6 33.2 20.5 33.2 20.6 33.3"/><path class="cls-1" d="M20.5,33.4c-.1,0-.1,.1-.2,.1h.2v-.1Z"/><path class="cls-1" d="M20.6,33.2l-.2-.1q0,.1,.1,.1l-.1,.1,.2-.1h0Z"/><path class="cls-1" d="M27.5,39s.1-.1,0,0c.1,0,.2,0,.2-.1l-.1-.1-.1,.2Z"/><path class="cls-1" d="M22.2,33.1c0,.1-.1,.1-.1,.2l.1-.1v-.1Z"/><path class="cls-1" d="M22.3,33.8h-.1v.1s.1,0,.1-.1Z"/><rect class="cls-1" x="21.8" y="34.5" width=".1" height=".1"/><path class="cls-1" d="M21.8,33h0c.1-.1,.1,0,0,0Z"/><polygon class="cls-1" points="22.6 32.7 22.6 32.6 22.5 32.6 22.6 32.7"/><rect class="cls-1" x="22.4" y="33.1" width=".1" height=".1"/><polygon class="cls-1" points="21 35.4 21 35.3 20.8 35.4 21 35.4"/><polygon class="cls-1" points="21.6 31.9 21.5 31.9 21.6 32 21.6 31.9"/><polygon class="cls-1" points="21.3 33 21.3 32.8 21.2 32.9 21.3 33"/><path class="cls-1" d="M21.2,33.2h0c0,.1,.1,0,0,0Z"/><rect class="cls-1" x="21.3" y="33.1" width=".1" height=".1"/><path class="cls-1" d="M21.6,35l-.1,.1s0-.1,.1-.1h0Z"/><polygon class="cls-1" points="27.2 35.5 26.9 35.4 27 35.5 27.2 35.5"/><rect class="cls-1" x="26.3" y="35.5" width=".1" height=".1"/><rect class="cls-1" x="26" y="35.4" width=".1" height=".1"/><polygon class="cls-1" points="26 32.7 25.9 32.7 26 32.8 26 32.7"/><rect class="cls-1" x="27.4" y="35.2" width=".1" height=".1"/><rect class="cls-1" x="25.8" y="32.8" width=".1" height=".1"/><path class="cls-1" d="M27.5,36l.1-.1-.2-.1-.1,.1s.1,0,.2,.1h0Z"/><polygon class="cls-1" points="25.3 32.9 25.2 32.9 25.2 33 25.3 32.9"/><rect class="cls-1" x="25.2" y="33.5" width=".1" height=".1"/><polygon class="cls-1" points="26 35.2 25.9 35.2 26 35.3 26 35.2"/><polygon class="cls-1" points="24.9 35.9 25.1 35.8 24.8 35.8 24.9 35.9"/><polygon class="cls-1" points="25.3 33.1 25.3 33 25.2 33 25.3 33.1"/><path class="cls-1" d="M25.3,35.7h.1v.1c.2,0,.4,0,.5-.1h.4l.1,.2h.1v-.2c.2,.1,.4,.1,.6,.1q.1,0,.2-.1h-.4l-.3-.2v.1h-.6c-.1,.1-.2,.1-.3,.1-.2,0-.3-.1-.3-.1q-.1,0-.1,.1h0Z"/><path class="cls-1" d="M25.5,32.8s-.1-.1,0,0l-.1,.2h.2c-.1-.1-.1-.2-.1-.2Z"/><path class="cls-1" d="M40.3,43.1l.1-.1s-.1,0-.1,.1Z"/><path class="cls-1" d="M39.8,43.5l.1-.1h-.1v.1Z"/><path class="cls-1" d="M40.4,42.8h.2v-.1h-.2v-.1h-.2l.2,.2h0Z"/><path class="cls-1" d="M40.7,43.6h0v-.2h-.3l-.1,.1c.1,0,.3,0,.4,.1h0Z"/><path class="cls-1" d="M40.3,42.7h0q0,.1,0,0Z"/><path class="cls-1" d="M41.9,42.6l.1-.1q0,.1-.1,.1h0Z"/><path class="cls-1" d="M40.6,42.9h.1l.1-.1-.2,.1h0Z"/><path class="cls-1" d="M40.7,43.1h0c.1-.1,0-.1,0,0Z"/><path class="cls-1" d="M42,42.2v.2h.1v-.1l.1,.1,.2-.1q-.3,0-.4-.1h0Z"/><path class="cls-1" d="M43.6,44.8h0q0-.1,0,0h0Z"/><path class="cls-1" d="M27.2,35.9h0c0-.1-.1-.1-.2-.1l.2,.1h0Z"/><rect class="cls-1" x="27.5" y="35.3" width=".1" height=".1"/><path class="cls-1" d="M26.1,35.8v.1l.2-.1v-.1c-.1,0-.1,.1-.2,.1h0Z"/><path class="cls-1" d="M25.9,35.9h0q.1,.1,0,0,.1,0,0,0h0Z"/><path class="cls-1" d="M43.9,44.8s.1-.1,0,0q0-.1,0,0Z"/><path class="cls-1" d="M25.3,35.8h0c0,.1,.1,0,0,0,.1,0,0,0,0,0h0Z"/><path class="cls-1" d="M20.4,33.6s-.1,0,0,0h0v.1q-.1-.1,0-.1Z"/><path class="cls-1" d="M20.4,32.2v-.2s-.1,.1,0,.2Z"/><path class="cls-1" d="M20.8,35.3l-.1-.1q0,.1,.1,.1Z"/><polygon class="cls-1" points="23.7 32.9 23.6 32.9 23.7 33 23.7 32.9"/><polygon class="cls-1" points="23.6 33.8 23.6 33.7 23.5 33.7 23.6 33.8"/><polygon class="cls-1" points="20.6 34.7 20.5 34.7 20.6 34.8 20.6 34.7"/><path class="cls-1" d="M20.7,34.6s.1,0,.2-.1c.1,0,.2,0,.2-.1h-.3c0-.2-.1-.3-.1-.3l.1,.1-.2,.1c0,.2,.1,.2,.1,.3h0Z"/><path class="cls-1" d="M20.8,34.7s-.1,0,0,0l-.1-.1v.1h.1Z"/><path class="cls-1" d="M25,32.6h0q.1-.1,0,0Z"/><path class="cls-1" d="M21,33.7v0l-.2-.1v-.1h-.1c.1,.2,.2,.3,.3,.2h0Z"/><path class="cls-1" d="M20.5,33.7v0c.1,0,0,0,0,0Z"/><path class="cls-1" d="M21,35h-.2l.1,.1,.1-.1h0Z"/><path class="cls-1" d="M20.8,33.9h.2c-.1-.1-.2-.1-.4-.1l.2,.1Z"/><rect class="cls-1" x="24.6" y="33.4" width=".1" height=".1"/><polygon class="cls-1" points="24.9 32.6 24.8 32.6 24.9 32.7 24.9 32.6"/><polygon class="cls-1" points="25.1 32.8 25 32.8 25.1 32.9 25.1 32.8"/><polygon class="cls-1" points="24.9 33.4 24.8 33.4 24.9 33.5 24.9 33.4"/><polygon class="cls-1" points="23.8 33 23.9 33 23.9 33 23.8 32.9 23.8 33"/><polygon class="cls-1" points="24.5 33.2 24.4 33.2 24.5 33.3 24.5 33.2"/><path class="cls-1" d="M24.4,33.2s-.1-.1-.3-.1l.2,.1h.1Z"/><polygon class="cls-1" points="53.5 50.2 53.4 50.2 53.5 50.3 53.5 50.2"/><path class="cls-1" d="M54.7,43.3l-.1,.1v.1h.2l.1,.1c0-.2,0-.3-.2-.3,0-.1,0,0,0,0h0Z"/><path class="cls-1" d="M54.8,37.6l.1,.1-.1-.1h0Z"/><path class="cls-1" d="M54.8,39.4l-.1-.2c0,.1,.1,.1,.1,.2Z"/><polygon class="cls-1" points="53.8 50.4 53.8 50.3 53.7 50.4 53.8 50.4"/><path class="cls-1" d="M54.5,44.4h0c.1-.1,0-.1,0-.1v.1h0Z"/><path class="cls-1" d="M54.6,36.4h0c-.1,0-.1,.1,0,.1-.1,0,0,0,0-.1Z"/><polygon class="cls-1" points="54.5 37.3 54.6 37.4 54.6 37.3 54.5 37.3"/><path class="cls-1" d="M54.4,43.1h-.1v.1l.1,.1v-.2Z"/><path class="cls-1" d="M54.6,44.1v-.1h-.1l.1,.1h0Z"/><path class="cls-1" d="M54.6,42.8s-.1,0,0,0v.3h.1v-.3c-.1,0-.1,.1-.1,.1v-.1Z"/><path class="cls-1" d="M55,36.9l.1,.1q0-.1-.1-.1Z"/><path class="cls-1" d="M54.9,36.6h.1c0-.1-.1-.1-.1,0h0Z"/><path class="cls-1" d="M52.7,51.5s0-.1,0,0q-.1-.1,0,0h0Z"/><path class="cls-1" d="M52.7,49.8h-.2v.1l.1-.1h.1Z"/><rect class="cls-1" x="52.7" y="51.3" width=".1" height=".1"/><path class="cls-1" d="M52.9,49.4h0c.1-.1,0,0,0,0h0Z"/><rect class="cls-1" x="52.8" y="50.5" width=".1" height=".1"/><path class="cls-1" d="M52.4,49h0c.1,.1,.1,0,.1,0h-.1Z"/><path class="cls-1" d="M52.4,49.7c.1,0,.2-.1,.2-.1h-.2v.1Z"/><rect class="cls-1" x="52.9" y="49.2" width=".1" height=".1"/><path class="cls-1" d="M53.1,47.8l-.1,.2q.1-.1,.1-.2Z"/><path class="cls-1" d="M52.8,48.6l.2-.1v-.1c-.1,0-.1,.1-.2,.2Z"/><rect class="cls-1" x="52.8" y="46.4" width=".1" height=".1"/><path class="cls-1" d="M52.7,49c.3,0,.4-.1,.4-.2l-.4,.2h0Z"/><path class="cls-1" d="M52.3,45c.1,0,.2,0,.3-.1,0,0-.1,0-.3,.1Z"/><path class="cls-1" d="M52.2,48.2h0c.1-.1,0,0,0,0h0Z"/><path class="cls-1" d="M52.4,39.9h0c.1-.1,0-.1,0,0Z"/><polygon class="cls-1" points="52.5 43.9 52.4 43.8 52.5 44 52.5 43.9"/><polygon class="cls-1" points="52.4 44.7 52.3 44.7 52.4 44.8 52.4 44.7"/><polygon class="cls-1" points="52.5 40.6 52.4 40.7 52.5 40.7 52.5 40.6"/><polygon class="cls-1" points="52.4 44.4 52.3 44.4 52.4 44.5 52.4 44.4"/><rect class="cls-1" x="51.5" y="45.8" width=".1" height=".1"/><path class="cls-1" d="M51.4,44.7h0c0-.1-.1,0,0,0h0Z"/><polygon class="cls-1" points="54.3 43.2 54.2 43.2 54.3 43.3 54.3 43.2"/><path class="cls-1" d="M52.3,44v-.1c-.2,0-.3,0-.3,.1q.2-.1,.3,0Z"/><path class="cls-1" d="M52,42.7h-.2l.1,.1c-.1,0,0-.1,.1-.1Z"/><polygon class="cls-1" points="52 42.5 51.9 42.5 52 42.6 52 42.5"/><rect class="cls-1" x="53.4" y="49.3" width=".1" height=".1"/><polygon class="cls-1" points="53.5 44.9 53.5 44.8 53.4 44.8 53.5 44.9"/><polygon class="cls-1" points="53.5 42.3 53.5 42.2 53.4 42.2 53.5 42.3"/><path class="cls-1" d="M54.2,43.9s-.1,0,0,0h0c-.1,.1,0,0,0,0h0Z"/><rect class="cls-1" x="53.6" y="35.1" width=".1" height=".1"/><polygon class="cls-1" points="53 43.4 53 43.3 52.9 43.3 53 43.4"/><path class="cls-1" d="M52.9,42.2c-.1,0-.1,.1-.1,.2,.1,0,.1-.1,.1-.2Z"/><path class="cls-1" d="M52.6,43.8l.1,.1c0-.1-.1-.1-.1-.1Z"/><polygon class="cls-1" points="52.7 39.6 52.6 39.6 52.7 39.7 52.7 39.6"/><rect class="cls-1" x="52.5" y="43.2" width=".1" height=".1"/><polygon class="cls-1" points="52.7 39.3 52.6 39.3 52.7 39.4 52.7 39.3"/><polygon class="cls-1" points="52.7 41.5 52.7 41.6 52.8 41.5 52.7 41.5"/><path class="cls-1" d="M53.1,44h0c.1,0,.1-.1,.1-.1h-.1c0-.1,0,0,0,.1h0Z"/><path class="cls-1" d="M53.1,37.5h0c0,.1,0,0,0,0,.1,0,0,0,0,0h0Z"/><path class="cls-1" d="M50.9,33.4l-.4,.1v.1c.3,0,.4-.1,.4-.2Z"/><polygon class="cls-1" points="51 49.8 50.9 49.8 51 49.9 51 49.8"/><polygon class="cls-1" points="50.8 49.4 50.8 49.3 50.7 49.3 50.8 49.4"/><polygon class="cls-1" points="50.8 48.9 50.8 48.8 50.7 48.8 50.8 48.9"/><polygon class="cls-1" points="51 50 51 49.9 50.9 49.9 51 50"/><path class="cls-1" d="M50.9,49.2h0c.1,.1,0,.1,0,0,0,0-.1,0,0,0q-.1,0,0,0h0Z"/><polygon class="cls-1" points="50.8 50.8 50.8 50.7 50.7 50.7 50.8 50.8"/><rect class="cls-1" x="52" y="33.3" width=".1" height=".1"/><path class="cls-1" d="M51.8,33.1h.2v-.1c0,.1-.1,.1-.2,.1h0Z"/><polygon class="cls-1" points="52.5 32.4 52.5 32.3 52.4 32.3 52.5 32.4"/><path class="cls-1" d="M50.6,50.7h0c-.1,.1-.1,.2-.1,.2q.1-.1,.1-.2h0Z"/><polygon class="cls-1" points="52.4 33.6 52.4 33.5 52.3 33.5 52.4 33.6"/><polygon class="cls-1" points="51.3 48.2 51.3 48.1 51.2 48.1 51.3 48.2"/><polygon class="cls-1" points="51.1 48.1 51.1 48 51 48 51.1 48.1"/><path class="cls-1" d="M51,51.4l-.1-.2c-.1,.1,0,.1,.1,.2Z"/><polygon class="cls-1" points="51.2 51.1 51.2 51 51.1 51 51.2 51.1"/><path class="cls-1" d="M51.1,49.9h.1v-.1h-.2c.1-.1,.1,0,.1,.1Z"/><polygon class="cls-1" points="50.9 50.6 50.8 50.6 50.9 50.7 50.9 50.6"/><path class="cls-1" d="M51.1,48.8s0-.1-.1-.1l.1,.1Z"/><path class="cls-1" d="M50.7,33.1h0l.2,.1q-.1,0-.2-.1Z"/><rect class="cls-1" x="50.3" y="32.4" width=".1" height=".1"/><polygon class="cls-1" points="50.4 32.5 50.3 32.5 50.4 32.6 50.4 32.5"/><polygon class="cls-1" points="54.9 32.4 54.9 32.5 55 32.4 54.9 32.4"/><path class="cls-1" d="M51.1,32.1v.1l.1-.1h-.1Z"/><path class="cls-1" d="M51.2,33.4s-.1,0,0,0q-.1,.1,0,0h0Z"/><path class="cls-1" d="M50.9,32.6c0-.1-.1-.2-.2-.2q0,.1,.1,.2h.1Z"/><path class="cls-1" d="M51.1,33.8h0l-.1,.1c-.1,0-.2,0-.2,.2,.1-.1,.2-.1,.2-.1l.1,.1v.1h-.2l.3-.1-.1-.2v-.1h0Z"/><polygon class="cls-1" points="51.7 32.3 51.6 32.3 51.7 32.4 51.7 32.3"/><polygon class="cls-1" points="51.7 33.2 51.7 33.1 51.6 33.1 51.7 33.2"/><polygon class="cls-1" points="51.5 34 51.5 33.9 51.4 33.9 51.5 34"/><path class="cls-1" d="M52.7,49.8c.1,0,.1-.1,.1-.1t-.1,.1Z"/><path class="cls-1" d="M50.3,34.2s0-.1,.1-.1l-.1-.1v.2Z"/><rect class="cls-1" x="50.5" y="33.2" width=".1" height=".1"/><path class="cls-1" d="M50.9,33.8l-.2,.1,.1,.1c-.1-.1,0-.1,.1-.2h0Z"/><path class="cls-1" d="M50.7,34.1h-.1s.1,.1,.1,0q0,.1,0,0v.2l.1-.1s0,0-.1-.1q.1,0,0,0Z"/><polygon class="cls-1" points="51.4 46.1 51.3 46.1 51.4 46.2 51.4 46.1"/><path class="cls-1" d="M50.4,33.8h0l-.2-.1s.1,.1,.2,.1Z"/><polygon class="cls-1" points="52 48.3 52 48.2 51.9 48.2 52 48.3"/><path class="cls-1" d="M52.2,46.8v-.2l-.2,.3c.1-.1,.2-.1,.2-.1h0Z"/><polygon class="cls-1" points="52.1 48.6 52 48.8 52.1 48.8 52.1 48.6"/><path class="cls-1" d="M51.7,51.1l.1,.1c.1,0,.1-.1,.1-.1h-.2Z"/><polygon class="cls-1" points="51.8 47.3 51.8 47.2 51.7 47.2 51.8 47.3"/><path class="cls-1" d="M52.3,48.8c.1,0,.2,.1,.3,.1v-.2h-.1l-.1-.1s0,.1-.1,.1,0,0,0,.1h0Z"/><polygon class="cls-1" points="52.7 44.8 52.7 44.7 52.6 44.7 52.7 44.8"/><polygon class="cls-1" points="52.5 47.5 52.4 47.5 52.5 47.6 52.5 47.5"/><path class="cls-1" d="M52.5,46.9c.1,0,.2-.1,.2-.1l-.2,.1h0Z"/><path class="cls-1" d="M52.4,48s.1-.1,0,0v0h0Z"/><path class="cls-1" d="M52.3,50.4h0c.1-.1,0-.1,0-.1v.1Z"/><polygon class="cls-1" points="51.6 46.9 51.6 46.8 51.5 46.8 51.6 46.9"/><path class="cls-1" d="M51.5,47.1s.1-.1,0,0q.1-.1,0,0Z"/><polygon class="cls-1" points="52.3 49 52.3 48.9 52.2 48.9 52.3 49"/><polygon class="cls-1" points="51.7 46.6 51.6 46.6 51.7 46.7 51.7 46.6"/><polygon class="cls-1" points="51.6 50.1 51.6 50 51.5 50 51.6 50.1"/><polygon class="cls-1" points="51.6 50.2 51.6 50.1 51.5 50.1 51.6 50.2"/><path class="cls-1" d="M52,44.4h0v-.1c0,.1-.1,.1-.1,.1v.1l.1-.1q0,.1,0,0h0Z"/><polygon class="cls-1" points="52 46.8 52 46.7 51.9 46.7 52 46.8"/><path class="cls-1" d="M52,44.8h0c.1-.1,0-.1,0,0,0-.1,0,0,0,0h0Z"/><path class="cls-1" d="M51.4,50.4h0q.1,.1,.1,0c.1,0,0,0-.1,0h0Z"/><path class="cls-1" d="M52.2,47.6h-.1s0,.1,.1,0c0,.1,0,0,0,0Z"/><polygon class="cls-1" points="52.2 44.5 52.2 44.4 52.1 44.4 52.2 44.5"/><rect class="cls-1" x="52" y="48.2" width=".1" height=".1"/><polygon class="cls-1" points="52.2 46.6 52.2 46.5 52.1 46.5 52.2 46.6"/><polygon class="cls-1" points="54.9 37.2 54.9 37.1 54.8 37.1 54.9 37.2"/><rect class="cls-1" x="60" y="33.6" width=".2" height=".1"/><rect class="cls-1" x="59.5" y="34.1" width=".2" height=".1"/><polygon class="cls-1" points="60.6 33.2 60.5 33.2 60.6 33.3 60.6 33.2"/><polygon class="cls-1" points="60.5 34.8 60.5 34.7 60.4 34.7 60.5 34.8"/><rect class="cls-1" x="59.5" y="34.9" width=".1" height=".1"/><rect class="cls-1" x="59.1" y="34" width=".2" height=".1"/><path class="cls-1" d="M59.1,35.7l.1-.1s-.1,0-.1,.1Z"/><rect class="cls-1" x="60.7" y="33" width=".1" height=".1"/><rect class="cls-1" x="59.1" y="34.6" width=".1" height=".1"/><rect class="cls-1" x="59.3" y="35.8" width=".1" height=".1"/><rect class="cls-1" x="59.5" y="35.3" width=".1" height=".1"/><path class="cls-1" d="M59.1,35.1h0c.1-.1,0-.1,0,0Z"/><polygon class="cls-1" points="60.8 34.7 60.8 34.6 60.7 34.6 60.8 34.7"/><rect class="cls-1" x="60.5" y="34.1" width=".1" height=".1"/><path class="cls-1" d="M60.7,34.4s-.1-.1,0,0h0Z"/><path class="cls-1" d="M60.4,38.1h-.2v.1c.2,0,.2-.1,.2-.1Z"/><polygon class="cls-1" points="60.8 36.9 60.7 36.9 60.8 37 60.8 36.9"/><path class="cls-1" d="M60.5,36.2h0c.1,.1,0,0,0,0h0Z"/><rect class="cls-1" x="61.2" y="37.7" width=".1" height=".1"/><polygon class="cls-1" points="61.4 37.5 61.3 37.5 61.4 37.6 61.4 37.5"/><polygon class="cls-1" points="61.4 35.2 61.3 35.2 61.4 35.3 61.4 35.2"/><rect class="cls-1" x="61.1" y="34.2" width=".1" height=".1"/><path class="cls-1" d="M60.9,34v.1q.1-.1,.2-.1l-.2-.1q-.1,0,0,.1Z"/><polygon class="cls-1" points="61.1 34.1 61.1 34 61 34 61.1 34.1"/><polygon class="cls-1" points="60.8 33.3 60.8 33.2 60.7 33.2 60.8 33.3"/><polygon class="cls-1" points="60.8 35.3 60.7 35.3 60.8 35.4 60.8 35.3"/><path class="cls-1" d="M61.3,38.1q.1,0,.1-.1h-.5l.2,.1h.2Z"/><path class="cls-1" d="M60.9,35.1h-.1s0,.1,.1,0h0Z"/><polygon class="cls-1" points="61 35.2 61 35.1 60.9 35.1 61 35.2"/><path class="cls-1" d="M59.3,35.3v.1s.1-.1,0-.1c.1,0,0,0,0,0Z"/><path class="cls-1" d="M62.2,45.3h0c.1-.1,0-.1,0-.1v.1Z"/><polygon class="cls-1" points="61.9 50.9 61.9 50.8 61.8 50.8 61.9 50.9"/><rect class="cls-1" x="60.2" y="45.1" width=".1" height=".1"/><path class="cls-1" d="M61.2,43.8h.2c0-.2-.1-.2-.1-.2-.3,0-.5,0-.7,.1h.6v.1h0Z"/><path class="cls-1" d="M61.2,45.1v-.1s-.1,0-.2,.1c.1-.1,.2,0,.2,0h0Z"/><rect class="cls-1" x="60.4" y="45" width=".2" height=".1"/><path class="cls-1" d="M63.6,51.2s0-.1,0,0q-.1-.1,0,0Z"/><rect class="cls-1" x="65.1" y="50.6" width=".1" height=".1"/><polygon class="cls-1" points="59.1 38.9 59.2 39 59.2 38.9 59.1 38.9"/><path class="cls-1" d="M71.4,45.8c-.2-.1-.3-.2-.3-.4,.1-.6,.2-1.2,.2-1.8v-2.8c-.1-.1-.2-.2-.3-.4-.1-.3,0-.6,.2-.8,0-.6-.1-1.2-.2-1.8-.2-1.1-.4-2.2-.7-3.3-.3-.1-.4-.3-.5-.7,0-.2,0-.4,.2-.6-.5-1.7-1.2-3.3-2.1-4.8-.8-1.5-1.7-2.9-2.8-4.2q-.4-.5,0-1c.7-.7,1.4-1.3,2.1-2,.7-.6,1.4-1,2-1.7,.3-.4,.7-.5,1.1-.5,.6,0,1.6,.8,1.6,1.6,.4-.2-.3-.5,.2-.7,.1,.1,.1,.2,.2,.3,.2,.3,.5,.7,.7,1,.2,.2,.3,.5,.5,.8l.2-.2c.2,.3,.8,.1,.7,.6h.1c.2,.1,.2,.3,.2,.4v.6h.1l.1-.4c.2,.2,.3,.4,.1,.7-.1,.1,0,.2,0,.4l.2-.4c.3,.1,.2-.3,.4-.3l-.3-.2v-.1h.3l.3,.3-.1-.5,.4-.3-.5-.2v-.3c-.1-.2-.3-.3-.4-.5s-.1-.4-.1-.7l.5,.1-.3,.3c.5,0,.8,.3,.9,.6l.6,.2h-.1l.1,.4c.2-.1,.3-.2,.4-.3h.5v-.1l-.5-.2,.7-.4c-.1-.1-.2-.3-.2-.4-.2-.2-.4-.5-.7-.7l.5-.3-.1-.1h-.3l-.2-.5,.7,.2-.4-.5,.5-.1-.7-.3c.2-.2,.4-.3,.6-.4h.2c.3,.1,.3,.4,.5,.6v-.4c.3,.1,.1-.2,.2-.3,0,.1,.1,.2,.1,.3v.2h.3v.2h.1l.1-.9,.2,.2c.2-.3,.2-.5-.1-.5l.3-.3c-.2-.2-.1-.4,0-.7h-.4l.1-.3c-.5-.2-.5-.1-.7,.2l.4-.2v.1c-.2,.1-.3,.3-.4,.2-.2-.1-.3,0-.4,.1s-.2,.1-.2,.2l-.2-.4,.4-.5-.2-.3c-.2,.1-.5,.1-.6,.3s-.1,.4-.2,.7c-.1-.1-.2-.2-.2-.3,0-.2-.1-.2-.3-.2-.3,0-.4-.1-.3-.4,.1,.2,.5,.2,.6,.1,.1-.1,.2-.1,.3-.2-.1-.3,.6-.5,.2-.9l-.4,.1-.1-.9,.2-.1-.3-.1c0-.2,.1-.5,0-.6-.3-.2-.1-.4,.1-.6l-.9-.6c-.1,0-.2,.1-.3,.1v-.5l-.4-.1v-.4l.4,.2c-.3-.3-.1-.4,.1-.5-.2-.3-.4-.4-.8-.2l.2-.3-.1-.1-.4,.5-.3-.2-.1,.1,.2,.2c-.3,.1-.8-.3-.8-.6l-.9-.5,.4-.1c-.1-.1-.2-.2-.3-.2s-.2,.1-.3,.2c-.1,0-.1,.1-.2,.1l-.1-.1,.2-.3c-.4-.3-.7,.1-1.2,.1l.3-.9c-.2,.1-.3,.1-.4,.2-.2,.1-.3,.3-.2,.5,.1,.3,.2,.5,.3,.8l-.1,.1c-.1,0-.1-.1-.2-.1s-.2-.1-.2-.1c-.2,.2-.4,.1-.5,0l-.5-.5-.3,.3-.1-.1,.1,.2c-.2,0-.3,0-.4,.1-.1,0,0,.2,0,.4l-.2-.1c-.1,.2,.6,.2,.1,.4,.1,0,.1,.1,.2,.2h-.4v-.3c0-.2,0-.3-.2-.3s-.3,0-.5-.1l-.1,.2-.6-1.2-.1,.3-.2-.2c-.1,.3-.4,.3-.7,.4,0,0,0-.2-.1-.3l-.3-.1,.4,.9-.1,.1c0-.6-.6-.4-.8-.7-.2,.2-.3,.3,0,.4l-.1,.5h-.5c.5,.3,.6,.4,.3,.8h.4v.3c.1,0,.2-.1,.3-.1s.2-.1,.2-.1c0,.1,.1,.3,0,.3-.1,.2-.3,.3-.5,.5l-.1,.1,.1,.1c.1,0,.1,.1,.2,.2l-.1,.1c-.3-.2-.6-.5-1.1-.3l-.3-.5-.4-.2-.2,.3v-.3l-.5,.5-.2-.3v.5c.4-.3,1.1-.2,1.3,.2-.1,.1-.2,.4-.2,.4,.1,.1,.3,.2,.5,.2,.3,0,.6,0,.9-.1l-.1,.7h.4l.2-.4,.3,.7,.2-.1c.1,.3-.2,.2-.3,.2l.1,.3-.5-.3-.1,.1q0,.5-.5,.4c-.1,0-.2,0-.2,.1-.1,.2-.2,.3-.3,.5l-.4-.2-.1,.1,.6,.5,.5-.2-.2-.4c.4,0,.6,.1,.7,.5l-.2,.1v.1h.5l-.3-.7,.1-.1,.2,.2h0c.1,.2,.1,.5,.2,.6,.3,.2,.7,.4,1,.5s.5,.4,.7,.6c.1,.1,.2,.3,.3,.4h0l.5,.5-.7,.7,.1,.1c-.1,.2-.1,.5-.3,.6-.3,.3-.7,.7-1.1,1-.7,.5-1.4,1.1-2.1,1.6-.3,.3-.6,.6-1,.9-.2-.2-.4-.5-.6-.7-1.6-1.6-3.3-3.1-5.2-4.3-.2-.1-.3-.3-.2-.5l.9-2.7c.2-.7,.5-1.4,.7-2.2l-.8-.2-.5,1.3c-.4-.1-.7-.2-1-.3-.2-.1-.2-.2-.2-.3l.3-.9c0-.1,0-.2-.1-.3-.5-.2-1-.3-1.6-.5l-.4,1.3-1.2-.4,.4-1.3-1.7-.6-.5,1.3c-.4-.1-.7-.2-1-.3-.2-.1-.2-.2-.2-.4,.1-.3,.2-.7,.3-1l-1.1-.4c-.1,.3-.2,.5-.2,.7-.4,1.2-.8,2.5-1.2,3.7,0,.1-.1,.2-.2,.3l-.1-.1,.7-2.2-3.5-1.2c-.1,.2-.1,.3-.2,.4-.3,.8-.5,1.5-.8,2.3,0,.1-.2,.2-.2,.2h-3.2c-.1,0-.4-.2-.4-.3-.1-.3-.1-.5-.1-.8V3l.3,.1c.1-.2,.1-.4-.2-.3l.1-.6,.1,.1c.1,.4,.4,.6,.8,.6s.7-.2,.8-.6c0-.1,.1-.2,.2-.4,.1-.3,.3-.6,.2-1h0l.2-.1-.6-.7h-.1l-.6,.7c.1,0,.1,.1,.2,.1-.2,.4,0,.7,.2,1,.1,.2,.2,.4,.1,.5s-.4,.3-.6,.4c-.4,0-.6-.2-.6-.7l.3-.3s-.1-.2-.1-.1c-.1,.1-.3,.2-.4,.4-.1-.2-.2-.3-.2-.5,0-.3,.1-.7,.1-1,0-.1,0-.2-.1-.3h-.2c-.1,.1-.1,.2-.1,.2V1.7c0,.1-.1,.3-.2,.4-.2-.1-.3-.3-.4-.4l-.1,.1c0,.1,.1,.2,.1,.4l.2-.2c0,.5-.2,.9-.7,.8-.2,0-.4-.2-.5-.4-.1-.1,0-.3,.1-.5s.2-.8,.1-1c.1,0,.2-.1,.2-.1l-.6-.8h-.1l-.6,.8s.2,.1,.2,.2c-.1,.6,.3,1.1,.5,1.6,.1,.2,.4,.3,.6,.4,.2,0,.4-.1,.5-.1l.1,.2,.2-.8h.1l.1,.5-.3,.4h.4v3.5c0,2.2-.1,4.3-.1,6.5,0,.3-.3,.5-.6,.6l-3.6,.6c-.4,.1-.8,.2-1.3,.3,.3-1,.2-1.9-.5-2.4-.6-.5-1.3-.4-2.2,.2-.2-.2-.1-.3,0-.4,.4-.3,.9-.4,1.4-.4h.3v-.1c-.2,0-.4-.1-.6-.1-.3,0-.6,0-.7-.3h-.2l.2,.3-.6,.5-.6-.7,.6-.3v-.1h-.2c-.2,.1-.3,.3-.5,.4-.3,.1-.4,.2-.1,.4-.4,.3-.8,.6-1.3,.8h-.2c-.4-.1-.8-.3-1.1-.4l.2-1.5c.2,.1,.3,.1,.3,.2,.2,.2,.5,.4,.9,.3,.3-.1,.6,0,.9,0,.1,0,.1,.1,.2,.1s.2-.1,.2-.1c.2-.1,.3-.2,.1-.4-.1-.1-.3-.1-.4-.1-.2,.2-.5,.2-.7,.1-.3-.1-.7-.2-.9-.4-.3-.3-.7-.4-.7-.9,0,0,.1,0,.1-.1,.5-.1,.6-.1,.6-.7,0-.2-.1-.5-.2-.7-.1-.4-.6-.7-1-.5-.2,.1-.4,.3-.6,.5-.3,.3-.1,.8-.5,1,0,0-.1,.2,0,.3,.1,.2,.2,.4,.4,.5,.2,.2,.4,.3,.4,.6,0,.6,0,1.3-.2,1.9-.1,.4,0,.7,.3,.8,0,.4-.2,.7-.6,.9-.2,.1-.3,.1-.5,.2-.1,.1-.2,.2-.2,.4h.6c-.2,.2-.3,.4-.4,.5l-.3,.6c.2-.2,.4-.5,.6-.7,.1-.1,.2-.2,.3-.1,.2,.1,0,.2-.1,.3-.6,.7-.6,1.5,0,2.2,.2,.2,.4,.4,.6,.5l-4.7,3.7-.8-.4c-.3,.3-.6,.7-.9,1q-.3,.4-.7,0l-.3,.1c.1-.3,.1-.6-.2-.8,.2-.1,.4-.1,.6-.2,.1-.1,.2-.3,.3-.4-.1,0-.2-.1-.4-.1-.6,0-1.4,.8-1.5,1.5-.1,.6,.1,.9,.8,.9,0-.1,.1-.2,.1-.3,.1-.3,.3-.4,.6-.3,.1,.1,.2,.1,.2,.2l-.1,1c-.3-.1-.6-.1-.9-.2-1.2-.6-2.5-1.2-3.8-1.5-.2-.1-.3,0-.4,.2-.3,.7-.6,1.3-1,2-.1,.3-.3,.5-.4,.9,.3-.1,.6-.2,.8-.3,.1-.1,.3-.2,.4-.1,.4,.2,.7,.3,1.1,.5q-.1,.1-.2,.1c-.2,.1-.4,.1-.3,.4,0,.1,.2,.2,.3,.3,.7,.3,1.4,.7,2,1,.1,0,.1,.1,.2,.2h-.2c-.8-.4-1.7-.8-2.5-1.2-.1,0-.2-.1-.2-.2,0-.3-.2-.2-.3-.3-.1,.1-.2,.3-.4,.4-.7,.4-1.5,.7-2.2,1-.2,.1-.3,.2-.2,.4,.1,.7,.2,1.3,.4,2,0,.3,.1,.7,.1,1.1h.5c.8,.4,1.7,.8,2.5,1.3,.1,0,.1,.2,.1,.2h-.2c-.3-.2-.7-.4-1-.5-.6-.2-1-.8-1.8-.6l.1,.8c-.2-.1-.5-.2-.7-.3-.5-.1-.6-.5-.6-.9,0-.2-.1-.4-.1-.6h-.1l-1.4,2.9c1.3,1.1,2.7,1.8,4.2,2.5h0l.3,.2c-.2,.2-.3,.3-.4,.5-.1,.1-.2,.1-.3,.1,.2,.4,0,.6-.2,.8l-2.5-1c.1-.2,.2-.3,.3-.4l.3-.6c.1-.1,.1-.3,.2-.4,.1-.2,0-.7-.3-.8s-.7-.1-1.1,0c-.4,.1-.8,.2-.8,.7h0c-.3,.1-.3,.4-.3,.6,0,.1,0,.2-.1,.3-.3,.5-.2,1-.2,1.5,0,.3,.2,.5,.3,.8,.1,.4,.4,.5,.7,.4,.1-.3,.2-.7,.3-1,0-.2,0-.4,.1-.5,.2-.3,.4-.4,.8-.2l1.8,.9q.3,.2,.1,.5h.3l-.2,.4,.9,.5c-.3,3.2-.2,6.4,.5,9.5l-.3-.1-.1,.1,.5,.2-.1,.1-1.1-.3v.1l.7,.5-.5-.1,.5,.4-1.2,.3v.1l1.3,.3c-1.9,.9-6.8,1.2-7.5,.4,.7,.4,1.2-.2,1.8-.2h-.2v-.1l.8-.2-.3-.1,.6-.3v-.1l-.2,.2h0l.7-.4v-.1l-.7,.3h0l.3-.3v-.1l-.8,.4,.1-.2-.3,.1h0l.3-.3v-.1l-1.1,.5-.1-.1,.3-.3h-.6q-.1,0-.2,.1c-.2,0-.5,0-.7,.1-.3,.2-.6,0-.9,.1v-.1h.9l-.2-.2,.5-.1-.4-.1v-.1l.7-.1h-.7v-.1l.5-.1-.3-.1v-.1h.4v-.2l.8-.2v-.1l-.6-.1v-.1l.5-.1-.3-.1,1.2-.5v-.1l-.3,.1h0l.5-.3v-.1l-.9,.2,.1-.4-.7,.6h0l.2-.3v-.1l-.7,.6,.1-.3h-.1l-.6,.7h0l.2-.5h-.1l-.8,.9v-.2h-.1c0,.2-.1,.4-.1,.6-.1,.2-.2,.3-.4,.5v-.6l-.4,.2,.2-.3h-.1l.4-.3h-.3l.6-.4h-.3l.5-.4h0l-.8,.4v-.1l.6-.5-.9,.2,.5-.4v-.1l-.5,.3v-.1l.7-.5-.1-.1-.4,.1v-.1l.3-.3h0l-.7,.3,.9-1.1-.1-.1-.3,.1,.5-.4-.1-.1-.4,.2,.3-.4-.1-.1c-.3,.3-.8,.6-1,1-.3,.5-.7,1.1-.5,1.8v.3c0,.2,0,.4-.2,.4v-.4c0-.1-.1-.3-.1-.4l-.4,.3v-.1l.5-.6h-.3l.3-.8h-.2c0-.1,.1-.2,.1-.3s0-.2-.1-.2c-.3,.2-.5,.6-.8,.9-.3,.2-.2,.8-.3,1.2-.1,.2,0,.4,.1,.6,.2,.4,.5,.8,.8,1.1,.2,.2,.3,.3,.2,.5-.2-.2-.4-.4-.5-.6s-.2-.2-.3,0l.1,.3-.1,.1-.2-.3v.3c-.3-.4-.6-.6-1.1-.7v.2h-.2c.2,.2,.3,.5,.6,.7,.2,.2,.5,.3,.8,.5,.2,.1,.3,.2,.5,.3l-.1,.1-.5-.3,.1,.2-.7-.2,.2,.3-.6-.1c.7,.6,1.4,.8,2.3,.5-.3,.2-.5,.4-.7,.6s-.3,.5-.4,.8l.2-.1-.1,.5h.1l.2-.3,.2,.3v-.4h.2v-.5h.1l.1,.3h.1l.1-.6,.1,.4c.1-.2,.1-.3,.2-.4,.1-.1,.2-.2,.2-.3h.1c-.4,1,.1,1.7,.6,2.4l-.8,.8c-.2,.3-.4,.6-.7,1v-.3l-.1,.1s-.1,.1,0,0l.1-.7h-.1l-.6,1h0l.4-.9h-.1l-.3,.2h0l.2-.5h-.1l-.5,1h-.1l.5-1.1h0l-.3,.4v-.5l-.3,.6h0l.2-1.1h-.1l-.2,.2-.1-.1c-.1,.2,.1,.6-.2,.8,.1,.4,.1,.9,.3,1.3,.5,.7,1,1.3,1.5,2,.1,.1,.1,.2,.1,.3h-.1l-.7-.6-.1,.1-.3-.5-.1,.4h-.1l-.1-.8h-.1l-.1,.3-.1-.2,.3,1.1-.4-.5h0l.1,.3-.5-.4h0l.1,.3h0l-.7-.5,.1,.3-.1,.1-.6-.5c.2,.4,.6,.8,1,.9,.5,.2,.9,.4,1.4,.6,.1,0,.1,.1,.2,.2h-.1l-.3-.2v.2l-.5-.3v.1l.1,.3h0l-.5-.5v.3l-.3-.2h0l.2,.3-.3-.2h0l.2,.3-.6-.2-.2,.2,.3,.4-.6,.1,.2,.2-.6-.2v.1l.5,.3-.2,.1v.1l.5,.1v.2c.2,0,.3,.2,.5,.1,.1-.1,.3-.1,.4-.1v.1l-.3,.2c.6-.1,1.1-.1,1.5-.6v.1l.4-.2c-.4,.4-.9,.7-1.1,1.3h.2l-.5,.5,.2,.1-.5,.5h.2v.6h0l.3-.5,.1,.3,.2-.5v.3h0l.1-.5h.1v.2c.1-.4,.2-.8,.7-.8l.3-1,.1,.2,.3-.8,.1,.1c.1-.2,.2-.5,.4-.7-.1,.5-.3,.9-.4,1.3-.1,.5-.1,.9-.2,1.4v.2h.1l.1-.3h.1v.7h0l.1-.4,.1,.6,.1-.3c.1,.2,.1,.4,.2,.5,.2,.2,.4,.5,.7,.7l.5,.5,.1-.1-.5-.5h0l.2,.1v-.1l-.5-.4v-.1l.8,.4v-.1l-.7-.7h.3l-.9-.6v-.1l1,.3v-.1l-.4-.2v-.1h.2c-.2-.5-.5-.8-.9-1.1l.7,.3c-.3-.1-.3-.5-.3-.9,.3,.5,.6,1,1.1,1.3,.5,.4,1.1,.3,1.7,.6l-.2-.1h.6v-.1l-.3-.1c.2-.2,.5,.1,.5-.3,.8,.2,1.5,0,2.2-.5l-.8,.1-.1-.1h.3v-.1l-.6,.1v-.1l.9-.4v-.1l-.9,.3-.1-.1,.3-.2-.1-.1-.8,.4h0l.3-.3h-.2l.2-.2v-.1l-.6,.2,.1-.2-.4,.1h0l.3-.3-.5,.1s0-.1,.1-.1v-.1l-1,.4h0l.6-.4-.9-.4c.2,0,.5,.1,.7,.2h.6v-.1l-.5-.1v-.1l.8,.1v-.1l-.3-.1v-.1h.6v-.1l-.6-.1v-.1h1v-.1l-.3-.1,.6-.3v-.1l-.3,.1,.6-.6-.1-.1-.6,.4,.3-.5-.7,.4,.3-.6h-.1l-.8,1.2-.1-.1,.4-.8h-.1l-.2,.4h0l.2-.4-.1-.1-.7,.9,.2-.4h0l-.5,.6h0l.2-.4-.2-.2-1,.7h0l.3-.5h-.1l-.6,.6h0l.2-.3-.1-.1-.6,.5c1.3-1.6,2.7-3.1,4.5-4.1,1.7-1.1,3.3-2.4,5.3-3l-.4,.5v.1l1.1-.7-.4,.7,.1,.1,.7-.5c1.1,3.2,2.6,6.1,4.7,8.7l-2.7,3.1,7.8,6.2,2.4-3c.7,.4,1.3,.8,2,1.1,1.7,.8,3.4,1.5,5.2,2,1.3,.3,2.5,.6,3.8,.8,.9,.2,1.8,.1,2.8,.2,.2,0,.4,.1,.5,.2,.1,.2,.1,.4,.1,.7,.1,.6,.2,1.3,.2,1.9,.1,.3,.2,.6,.2,1,.1,1.1,.2,2.3,.2,3.4,.1,1.2,.2,2.4,.2,3.6,0,.4-.1,.7-.3,1v.1l.3-.1v.3c-.4-.1-.8,.2-1.1-.1-.2,.2-.4,.5-.5,.7-.3,.4-.2,.8,.1,1.1s.8,.2,1.1-.1,.3-.8,0-1.2c-.1-.1-.1-.2-.2-.3,.1,0,.2,0,.3-.1,.3-.1,.5,0,.5,.4,0,.1,.1,.3,.2,.5,.1-.2,.1-.3,.1-.4,.1-.5,.2-.6,.8-.5-.1,.1-.1,.2-.1,.2-.3,.4-.3,.9,0,1.2,.3,.3,.8,.3,1.1-.1,.3-.3,.3-.8-.1-1.2l-.6-.6c-.1,.2-.5,.3-.7,.1-.3-.3-.5-.7-.5-1.1-.1-1.7-.2-3.5-.2-5.2,0-1-.1-2.1-.1-3.1,0-.7,.1-1.4,.1-2.1,0-.4,.2-.3,.4-.3,.4,0,.8,0,1.2-.1,.4,0,.8-.1,1.2-.1,0,.3-.2,.4-.4,.5-.2,.1-.5,.2-.7,.3-.5,.4-.7,.9-.3,1.4,.3,.5,.7,.8,1.4,.7,.2,0,.5,0,.7-.1,1.2-.3,2.4-.3,3.5,.1,.6,.2,1.1,.2,1.7,.1,.8-.2,1.5-.4,2.3-.6,1-.3,1.8-.7,2.5-1.4,.4-.4,.9-.8,1.4-.9,.2-.1,.3-.2,.3-.4-.1-.5-.2-1.1-.3-1.6-.1-.4-.3-.5-.7-.4-.4,.1-.8,.1-1.1,.2-.4,.1-.7,0-.9-.4,.6-.3,1.1-.6,1.7-1,1.3-.8,2.6-1.7,3.8-2.7,.2-.2,.4-.3,.6-.1l.4-.6,10.2,7.1c1.1-1.6,2.2-3.2,3.4-4.8l-3.9-2.8,3.3-4.8c-2.1-1.4-4.1-2.9-6.2-4.3l.4-.6c-.3-.4,.1-.7,.1-1l12.3,3.8,1.8-5.8c-.2-.1-.3-.1-.4-.2-4-1.4-8-2.7-11.9-3.9h0Zm6-27.9c.1,.1,.2,.2,.3,.4h.3c-.2,.1-.3,.3-.5,.4h-.2l.1-.2-.2-.4,.2-.2h0Zm-.6-.5h.2l-.1-.3,.5,.1c-.1,.1-.1,.3-.2,.4h-.3l-.1-.2h0Zm-2.9-.1l.1,.1-.2,.3-.2-.2,.3-.2Zm-.4,2.4l.5,.3c-.2,0-.1,.4-.4,.2-.1-.1-.1-.3-.1-.5h0Zm-.2,0c.2,.1,.1,.5,.2,.8l.3-.1,.1,.1-.4,.3c.1,.1,.2,.1,.2,.2s-.1,.3-.1,.4c-.2-.2-.3-.3-.4-.5v-.3l-.2,.1q-.3-.3,0-.5l-.1-.5h-.1l-.1,.6h-.1l-.6-.7c-.4,.3-.4-.2-.7-.3v-.1c.1,0,.2-.1,.3-.1,.7-.1,1.1,.3,1.7,.6h0Zm-1.2-1.1c-.3,.3-.5-.1-.7-.1,.3-.3,.5-.1,.7,.1Zm-.6-4.4l-.1-.1-.3,.1-.1-.1c.3-.1,.2-.3,.1-.5q.3,.1,.4,.6Zm-.5-1.4q.2,.4-.2,.5c.1-.1-.3-.5,.2-.5Zm-.3,3.2c.1-.1,.1-.2,.2-.3,.1,0,.2,.1,.3,.2,.1,.1,0,.3,.2,.3l-.1,.4c-.2-.2-.3-.2-.4-.4l-.2-.2h0Zm-.1,.4h.1l.4,.5h-.1l-.2-.2v.1h-.4l.2-.4h0Zm-.7,1.2h.4v-.5c.3,0,.7,0,.8,.4,0,.2-.1,.5-.2,.6s-.4,.1-.6,.1c-.1,.2-.2,.3-.4,.1,0-.1,.1-.2,.1-.3-.1-.1-.1-.2-.1-.4h0Zm-.3-3.1l.2,.7-.4-.3,.2-.4Zm-3.1,1c0-.2,0-.4,.2-.3l.2,.5c-.1-.1-.3-.1-.4-.2Zm2.1-.4h.1l.3,.5-.6-.2c.1,0,.2-.3,.2-.3Zm-.3-.5c0,.6-.1,.7-.4,.6l.4-.6Zm-.6-.2l-.4,.5-.3-.2,.7-.3h0Zm1.1,3.2c-.1-.4-.2-.7-.3-1.1,0-.1-.2-.2-.3-.3-.3-.1-.5-.5-.4-.7l-.5-.4v-.1l1.2,.7-.3,.1c.2,.3,.4,.4,.9,.3l-.1,.6,.4,.1-.1,1.1c-.2-.1-.4-.2-.5-.3h0ZM4.2,47.5c0,.5,.4,.8,.3,1.3-.1-.4-.6-.7-.3-1.3Zm.7,2.2c-.3,0-.6-.1-1-.1h-.6v-.1h1.6q.3,.1,.3-.3c.2,.3,.1,.5-.3,.5h0Zm.3,6.1c-.1,.2,0,.5,0,.8h-.2v-.7l-.4,.3v-.1l.6-.5v-.1l-.3,.1,.4-.9h-.1l.3-1.1-.5,.3h0l.5-.6h0l-.3,.2,.3-.4,1.2,.5c-.3,.4-.7,.8-1,1.2-.3,.2-.4,.6-.5,1h0Zm1-2.9h.8v.1l-.8-.1h0Zm5.6-1.1c-1.4,.9-2.8,1.9-4.1,2.9-.3,.2-.6,.6-.9,.9-.2,.2-.4,.3-.8,.3l.5-.3v-.1l-.7,.1,.9-.3v-.1h-.3l.7-.3v-.1l-.4-.1,.7-.5h-.5l.4-.2-.2-.1,.5-.5,.7,.5,.1-.1-.4-.5,.3,.1-.5-.4v-.1l.3,.1v-.1l-.8-.4v-.1l.6,.2v-.1l-.9-.2v-.1l.8,.2v-.1l-1-.4v-.1l.6,.1-.2-.2h.2l-.6-.3v-.1h.4v-.1h-.4l.2-.1-.4-.4,.1-.1-.4-.1v-.1h.4v-.1l-.6-.2v-.1c.8,.2,1.6,.4,2.3,.5,.8,.1,1.7,.2,2.5,.3,.8,0,1.6,0,2.5-.1-.5,.4-1.1,.7-1.6,1.1h0Zm2.4-20.6l.6,.3-.2,.4-.6-.3,.2-.4Zm.2,1l-.2,.4-.6-.3q.3-.5,.8-.1h0Zm-.5,1.1l-.6-.3,.2-.4,.6,.3-.2,.4h0Zm.9,.5l-.6-.3,.2-.5,.6,.3-.2,.5h0Zm.4-.8l-.6-.3,.2-.4,.6,.3-.2,.4Zm.3-.7l-.6-.3c.1-.3,.4-.4,.8-.1,0,.1-.2,.5-.2,.4Zm1.7-2.3l-1.7-.9,.9-1.8,1.7,.8c.1,0-.9,1.9-.9,1.9Zm1-6.8l.6,.3-.2,.5-.6-.3,.2-.5Zm-.3,2.2l-.6-.3,.2-.5,.6,.3-.2,.5Zm-.2-1q.2-.5,.7-.2l-.2,.4-.5-.2Zm1.1,1.4l-.6-.3,.2-.4q.7,.2,.4,.7Zm.3-.7l-.6-.3,.2-.4,.6,.3-.2,.4h0Zm.4-.7q-.1,0-.2-.1c-.1-.1-.2-.1-.4-.2l.2-.5,.6,.3-.2,.5Zm26.6,48c-.3,.2-.5,0-.7-.2l.9-.2,.1,.1c-.2,.1-.2,.3-.3,.3h0Zm.4-59.8c.1-.4,.2-.8,.4-1.2,0-.1,.2-.1,.3-.1,.3,.1,.7,.2,1,.3,.1,0,.2,.2,.2,.2-.1,.5-.3,.9-.5,1.4-.4-.1-.8-.3-1.2-.4-.1,0-.2-.1-.2-.2h0Zm1.1,31.9v-.1h.3v.1s0,.1-.1,.1v-.1h-.2Zm-1.3-11h0l.2-.1v0c0,.1-.2,.1-.2,.1Zm.1-.6h0q-.1,0-.2-.1v-.1h.2v.2Zm-.2-.4h0l-.2,.2,.2-.2Zm-1.6-.5h0l.1-.1v.1h.1v-.1h.6c.2,0,.4,0,.6,.1h.2c-.1,0-.2,.1-.3,.1,0,0,.1,0,.2,.1v.1h-.3c-1-.1-1.4-.2-1.4-.3h.2Zm1,.5c.1-.1,.2-.1,.2-.1l-.2,.1Zm.2,.6h-.1v-.1l.1,.1Zm-.3-.7h0Zm.1,.5v.1h-.1v-.1h.1Zm-.5-.3s.1,0,.1,.1,.1,.1,.1,.1h-.3v-.1l.1-.1h0Zm-1-.7h.3l-.1,.1-.4-.1h.2Zm-4.3,11.5l.1-.1v-.1l-.1-.2h.4l-.1-.1c0,.1-.1,.1-.2,.1v-.1h-.2l.1-.3h-.1v-.1l.3,.1c0-.1,.1-.1,.2-.1l.2,.1c-.1,0-.1,.1-.1,.1h.2s-.1,0-.1,.1c.1,.1,.2,.1,.3,.1,0,.1,0,.2,.1,.3,.1,0,.1-.1,.2-.1s.2-.1,.2-.1c.1,0,.2,.1,.3,.2,0-.1,.1-.1,.1-.2v.2l.1,.1,.1-.1q.1-.1,.1-.2h.1c0-.1-.1-.1-.2-.1h-.7v-.3h.1v-.1h-.2l-.2,.1c-.1,0-.1-.1-.1-.2q-.2,0-.3-.1v-.1h-.1v.1l-.2-.1v.1q.1,0,.1,.1l-.2-.1c-.1-.5,0-.9,.1-1.1-.1-.3,0-.5,.2-.6-.1,0-.2-.1-.2,0,0-.1,.1-.1,.2-.2h-.2l.6-5.4,.1-1.6c0-.2,.1-.4,.1-.5,0-.2,.1-.3,.1-.5v-.4h2c0,.1,.1,.1,.2,.1h.2v.1h-.4l.6-.1v.1c0,.1,.1,.1,.3,.1h-.3c0,.1,.1,.2,.2,.2s.2,0,.2-.1h-.2c0-.1,.2-.1,.6,0q-.1,0-.1,.1l.4,.1c0,.2-.1,.2-.1,.1h-.4c.1,0,.1,.1,.2,.1s.1,.1,.1,.1h.4q-.1,0-.2,.1c-.1,.1-.1,0-.1,.1h.7l.1,.1,.6,.1-.3,.1c.2,0,.3,0,.5-.1v-.1h.2v.2s-.2,0-.4,.1v.1l.2-.1,.1,.2h-.1l.4,.2v.7q.1,0,.2-.1c.1-.1,.1-.2,.1-.2,.1,.2,.1,.3,.2,.4l-.6,.2h.4l.6,5.3h0v.1h0l.3,2.8h-.4l.5,.2v.4l-.3,.1h.4v.1c-.2-.1-.3-.1-.6-.1-.2,0-.3,0-.3,.1-.3-.1-.5-.1-.7-.2h-.1c-.1,0-.2-.1-.4-.1v.1h-.2c-.2,0-.2-.1-.2-.2h-.1c0-.1-.1-.2-.2-.2l-.1,.1s.1,0,.2,.1v.1l.1,.1c-.2,0-.3,.1-.3,0l.1-.1h-.6q-.1-.1-.1-.2h.1v-.2l.3,.1c0-.1-.1-.1,0-.1h.2v-.1q.1,.1,.1,0h.1v.2h.2v-.1l-.4-.1c0,.1-.1,.1-.1,.1l-.1-.1h-.1v.2l-.2-.1v-.1h-.2c-.1-.6-.2-1.1-.2-1.6-.2-.7-.2-1.1-.2-1.5l-.1-.3c-.1-1.6-.2-2.5-.3-3,0,.1-.1,.5-.1,1.2-.1,.7-.2,1.7-.3,3,0,.5-.1,.8-.1,1.1v.6l-.1,.1v.3c-.1,.1-.2,0-.2-.1l-.2,.1c0,.1,.1,.2,.3,.2l-.1,.2,.1,.1c-.2,0-.3,0-.4,.1l-.1,.1s.1,.1,.2,.1h-.1s-.1,0-.1-.1v.1h-.1l.1-.1c-.2,0-.2-.1-.2-.1l.1-.1-.1-.1,.2,.1v-.2h.2v-.1h-.2v-.2h-.2v-.1h-.1l-.1,.2h.2l.2,.2h-.4v.1h-.6s-.1,0-.1-.1l-.2,.1h0v-.1h-.3l-.1,.1c.2,.1,.3,.1,.3,.1v.2s-.1-.1-.2-.1l-.1,.1-.4,.1c0-.1-.1-.1-.3-.1l.1-.3s-.1-.1-.2-.1l-.1,.1c.1,0,.1,.1,.1,.1-.1,.1-.2,.1-.2,.1l.1-.2h0Zm1.2-.5h0Zm5.4,.9h0Zm-.7,.5c.1-.1,.2-.1,.3,0h-.3Zm.4-.5h0Zm-.9,.3v-.1l.1,.1h-.1Zm0,.3v-.1h.1l-.1,.1h0Zm-.2-.5v-.1l.1,.1c0-.1-.1-.1-.1,0Zm-.1,.7h0c-.1,0-.1,.1-.2,.1-.1-.1-.2-.1-.2-.2h.3l.1,.1h0Zm.2,.9c.2,0,.3,0,.3,.1h-.6s.1-.1,.3-.1h0Zm.8,.1s0-.1,0,0c-.1-.1-.2-.1-.4-.1s-.2,0-.2-.1c.1-.1,.2-.1,.5,0,.2,0,.4,.1,.4,.2h-.3Zm.2,.1c0,.1-.1,.1-.2,.1-.2,0-.3-.1-.3-.1v-.1h.5v.1Zm-1.4-.3h0Zm-.4-.5c-.2-.1-.3-.1-.5-.1h-.2q.1,.1,.2,.1h0c-.2,0-.2,.1-.2,.2h-.3v-.1q.1,0,.1-.1s-.1,0-.1-.1h.1l-.2-.1h.3v-.2c-.1-.1-.2-.1-.2-.2h.2v-.1c-.1,0-.1-.1-.1-.1,.1,0,.2,.1,.2,.1,.1,0,.2,0,.3,.1l-.2,.1,.2,.1s0-.1,.1-.1,.1-.1,.1-.1h.2l-.1,.1-.1,.1c.2,0,.4,0,.6,.1l-.4,.3h0Zm.3,.2h0l-.1-.1c.1,0,.1,.1,.1,.1Zm-.2,.1h0Zm-.8,.1h0l.2-.1-.2,.1h0Zm.1,.3h0Zm-.4-.9s-.1,0,0,0h0c-.1,0,0,0,0,0h0Zm-.1-1.1q.1,0,.1,.1l-.1-.1c.1,0,0,0,0,0Zm.5,.6l-.1,.1-.1-.1h.2Zm-.1-.3h0Zm.8-.3h0v.2h-.5l.3-.2h.2Zm0-.6s.1,0,0,0q.1,0,0,0h0Zm.2,1.1h0Zm-.4-.2v.1h-.1l.1-.1h0Zm-.3-.2l-.1-.1c.1-.1,.2-.1,.2-.1,.1,0,.2,0,.3,.1l-.4,.1Zm-.1,.2h0Zm1.1,.2l-.1-.1v-.1h-.1v-.1l.2-.1v-.1c0,.1,.1,.2,.2,.3-.1,.2-.2,.2-.2,.2h0Zm-1.8-.1h0c0,.1,0,0,0,0Zm-.8,.4h-.1v-.1l.2-.1s-.1,.1-.1,.2Zm-.2-.2v-.2q.1,0,.2,.1l-.2,.1Zm.3,1.1s-.1,0-.1,.1c0,0-.1,0-.1-.1h.2Zm-.1,.2l.2,.1-.2-.1h0Zm.2,.1h0Zm-.2-.4h0Zm0-.1s-.1,0-.1-.1l.4-.1c-.1,.1-.2,.1-.3,.2Zm.2-.3h.3v.1h-.2c-.1,0-.1-.1-.1-.1Zm.2-.6c0-.1,.1-.1,.2-.1l-.2,.1Zm.1,.2h0Zm0-.6s-.1-.1,0,0h0c.1-.1,0,0,0,0Zm0,.1l-.2,.1c.1-.1,.2-.1,.2-.1Zm-.1,.4h0Zm0,1.3h.1l-.1,.1v-.1h0Zm.1-1.3s.1-.1,.2,0c-.1-.1-.2-.1-.2,0Zm.1-.3h0Zm-.6-.6s0-.1,0,0h0Zm-.3,.4c0-.1,.1-.2,.1-.2l-.1,.2h0Zm-.4,.1c-.1,0-.2,0-.3,.1v-.1c0-.1-.1-.1-.1-.1,0,0,0,.1,.1,.1h-.1v-.2l-.2,.1v-.1l.3-.2c.3,.1,.5,.2,.6,.2h-.4l-.3,.1c.2,0,.3,0,.4,.1h0Zm-.3,.6s0-.1,0,0c.1-.1,.2-.1,.3-.1q-.1,0-.2,.1c0-.1-.1,0-.1,0Zm.1,.1l-.1,.1-.2-.1c.2-.1,.3-.1,.3,0h0Zm-.2-.3q.1-.1,.2-.1c0,.1,.1,.1,.1,.1h-.3Zm.7-.8v-.1h0v.1h0Zm-1.1,.5h0c-.1,0,0,0,0,0Zm-.1-.1h0c0-.1,.1-.1,0,0h0Zm.2-.1h0q0-.1,0,0h0Zm-.4,.6h0Zm0-.2s0-.1,0,0l-.1-.1,.2,.1h-.1Zm-.2-.4c-.1-.1-.1-.2-.1-.2,.1,.1,.2,.2,.1,.2h0Zm.1,1.2h0c0-.1,0,0,0,0h0Zm-.4-1.3h0q0-.1,0,0h0Zm.1,.1s0,.1,0,0h0c-.1,0,0,0,0,0h0Zm.2,.4q0,.1,.1,.1c-.1,0-.2,0-.2,.1q-.1,0-.1,.1c-.1-.2,0-.3,.2-.3h0Zm.3,1.1s.1,0,0,0h0Zm-.8-1.5h0v-.1h.1v.1h-.1v0h0Zm-.1,.4h.1c.1,0,0,0-.1,0h0Zm-7.2-31.3c.3,.3,.5,.6,.7,.9,.1,.2,.3,.3,.5,.2,.1-.1,.2-.3,.2-.4,0-.2-.2-.3-.4-.2-.4,.2-.6-.2-.8-.4,0,0,0-.2,.1-.3,.5-.4,1-.3,1.5,.1,.5,.3,.7,.8,.5,1.4-.4,.8-1.3,1.5-2.1,.5-.5-.6-.6-1.2-.2-1.8h0Zm-1.3-1.1h0l-.8,2.8c-.2-.7,.2-1.3-.2-2l1-.8h0Zm-.8,4.2q.5-.2,.4-.8c0-.1,0-.2,.1-.3l-.4-.1,1-3c.6,.3,.2,.7,.1,1.2,.3-.1,.2-.5,.6-.5-.5,1.3-.3,1.9,.8,2.7l-2.9,1.3c-.1-.3,.1-.4,.3-.5h0Zm-.5-3.1c.1,.1,.2,.2,.2,.3v1.6h-.1v-1c0-.2-.1-.4-.2-.5,0-.1-.1-.2-.1-.3,0-.1,.1-.1,.2-.1h0Zm-1.3,2.4v-.3h.3c.2,.1,.3,.2,.5,.4l-.6,.4c-.1-.2-.1-.4-.2-.5h0Zm0,.6h-.2c-.2-.2-.4-.5-.6-.8,.4-.2,.6-.1,.7,.2,0,.2,.1,.3,.2,.4,0,0,0,.2-.1,.2h0Zm.4-1.2c-.2-.1-.5-.1-.8-.2,.3-.1,.6-.1,.9-.2h.2c.2,.3,.3,.5,.5,.8-.3-.1-.6-.3-.8-.4Zm.4-1.3c.1,.1,.2,.3,.3,.4,.1,.2,0,.5,0,.8l-.7-1.1c.1,0,.3-.2,.4-.1h0Zm-.6,.3c.1,0,.2,.2,.2,.3s-.1,.2-.1,.3c-.2,.1-.8-.1-.8-.4,.2-.2,.4-.2,.7-.2Zm-1.7,.7c.3-.4,.6-.5,.8-.3l-.8,.3Zm.3,.1c.2-.1,.4-.1,.6-.2,0,0,.1,.1,.2,.1l-.1,.1c-.3,0-.5,.4-.7,0Zm-7.1,20.7c0-.1,0-.3,.1-.7v-.7l.1-.1-.1-.1v-.1h0v-.4l.1-.1c0-.1,0-.2-.1-.2s0-.2-.1-.3l.2-.1v-.1l-.2,.1c-.1-.3-.1-.5,0-.6h4.4c1.1,.2,1.9,.6,2.4,1.3h0v.1h0c.5,.6,.8,1.5,.7,2.6h0v.1h0v.1l.1,.1h-.2l-.1,.1c.1,0,.2,0,.3,.1-.1-.1-.2-.1-.4-.1,0-.2-.1-.2-.2-.2h-.2v.1h-.2c-.1-.1-.3-.2-.8-.2l.2,.2h-.4s0,.1,.1,.2l.2,.1h0c-.1,0-.2,0-.2-.1q-.1,0-.1-.1h-.1l-.2-.1,.2-.1c0-.1,0-.2-.1-.2s-.3,.1-.8,.2l.1-.2h-.1l-.2,.1,.1,.2h-.1l.2,.2-.2,.1c-.1-.1-.1-.2-.1-.3,0,0,.1,0,.1,.1v-.2s-.1,0-.1-.1,.1-.2,.2-.3h-.2l-.1-.9-.3-.5h-.6c0,.9-.1,1.3-.1,1.3v-.2l-.2,.1-.5-.2,.1-.1c-.1,0-.2,0-.3,.1s-.3,.1-.4,.1v-.1h0v-.1l.1,.1,.1-.1-.2,.1s-.1,.1-.1,.2h-.1v.1s0,.1,.1,.1h-.1v-.2h-.2l.1,.1h-.4s0-.1,.1-.2l-.1-.1v.1l-.1-.1h-.2v.1l-.2,.2c-.1,0-.2-.1-.3-.1h-.1c-.1,0-.2,0-.3-.1v-.1h0c.1-.1,0-.1,0,0h0Zm7.4,1.4h0c0-.1,0,0,0,0Zm-.2-.2h0l.1-.1-.1,.1Zm.1,.2h-.1l.1-.2v.2h0Zm-.2-.1h0Zm-.3-.1l-.2,.1v-.1h.2Zm-.1-.1s0-.1,0,0h0Zm-.4,.2q0-.1,.1-.1-.1,0-.1,.1Zm-.9,0l.1-.2h.1v.1q.1,0,.1,.1c-.1-.1-.2-.1-.3,0h0Zm.2,.1h-.1c-.1,0,0,0,.1,0h0Zm.1-.1h-.1v-.1c0,.1,.1,.1,.1,.1Zm-.6-.4h0Zm0,.2h0c-.1-.1,0,0,0,0h0Zm.2-.2l-.1,.2-.1-.2h.2Zm-2.9-.6h0s-.1-.1,0,0q0-.1,0,0h0Zm-1.6,.3v.1h-.1l.1-.1h0Zm-.1,0h-.1v-.1s.1,0,.1,.1Zm-1,25.9l.9,.7-.5,.6-.9-.7,.5-.6Zm-1,1.3l.5-.6,.9,.7-.5,.6-.9-.7Zm2,1.6l-1-.8,.5-.6,1,.8-.5,.6h0Zm-.4-1.5l.5-.6,1,.8-.5,.6-1-.8Zm1.4,1.4l1.6-1.9,1.4,1.2-1.5,1.9-1.5-1.2Zm3.5,1.6l-.5,.6-.9-.7,.5-.6,.9,.7h0Zm-2,.6l.5-.6,.9,.7-.5,.6-.9-.7Zm2,1.6l-1-.8,.5-.6,1,.8-.5,.6h0Zm.6-.7l-1-.8,.5-.6,1,.8-.5,.6Zm1.2-17.6c0,.2-.2,.4-.5,.8-.4,.3-.7,.4-1,.5l-.1,.1h-.1l.1-.1h-.1l-.1,.1v-.2h-.2q.1,.1,.2,.1c-.2,.1-.3,.1-.5,.1v-.1h-.1v.1c-.3,0-.9,.1-1.6,.1h-2.9c0-.9,.1-1.8,.1-2.7v-2.6c.2,0,.3-.1,.5-.1v-.1c.1,0,.2-.1,.3-.1s.1,0,.2-.1v-.1c-.5,0-.8,.1-.9,.1v-.3h.1s-.1,0-.1-.1v-1.2l.3-.1-.6,.1v-.1h.4l-.1,.1h.2c.1,0,.3-.1,.5-.1l.2,.1h.2v-.1h1.4l.1,.2,.4-.1h-.3s.2-.1,.4-.1v1.6c-.3-.1-.5-.1-.6-.1l.2,.1h.4l.1,3.1c.5,0,.9-.2,1.1-.6v-4.1c.7,0,1.2,0,1.3,.1,.1,0,.2-.1,.2-.1v-.1l.2-.1c-.1-.1-.3-.1-.5-.1l-.1-.1c.1-.1,.2-.2,.1-.3h-.4c.1,0,.2,0,.2-.1l-.3-.2s-.2,.1-.4,.1v-.1h.2c0-.1-.1-.2-.2-.2-.1-.1-.2-.1-.3-.1v-.7l-.4-.4c-.1,0-.2-.1-.4-.1-.1,0-.2,0-.3-.1-.1,.3-.2,.6-.1,.8h-.1q0,.2-.1,.2v-.1c-.1,0-.2-.1-.3-.1s-.2,0-.2-.1v.1h.2v.2c-.2,0-.3-.1-.3,0v-.1l-.1,.1-.1-.1-.1,.1,.3,.2c-.2,.1-.3,.1-.4,.1l.1-.1h-.2v.2h-.1c0-.1-.1-.2-.1-.2v0h0s-.1-.1-.3-.2c0,0,0,.1,.1,.1h-.1v.1l-.1,.2s.1,0,.1,.1v.1l-.3,.1v-.1c-.1,0-.2-.1-.2,0l-.1-.2h-.1c0-.1,.1-.1,.2-.2q.1,0,.1,.1c0,.1,.1,0,.1,.1v-.3l-.2-.1c-.2,.1-.4,.2-.6,.2,.1,0,.1,.1,.1,.1v.1h0l-.2,.3c-.3-.1-.4-.1-.5-.1v-6h1c-.5-.1-.8-.1-1.1-.1v-1.1l.4-.1,.2,.1v.2h.2l.1-.1-.1-.1c.3,.1,.5,.2,.6,.1-.1,0-.2-.1-.2-.1l-.2-.1,.1-.1c0,.1,.2,.1,.5,.1s.5-.1,.5-.1h0q.1,0,0,0v.1h.1v-.1h-.1v-.1l.5-.1c0,.1-.1,.1-.1,.1h.1l-.2,.2,.2-.1,.1-.3,.1,.2v-.1l.4,.1v.3h-.1c0,.2,.1,.4,.1,.6v.7h-.6v.1h.4l.1-.1,.1,.1v1.2c.2-.3,.1-.3,.1-.3l-.1,.1s.1,.1,.3,.1l-.1,.1s.1,0,.1,.1,0,0,.1,.1c0,0-.1,.1-.1,.2s.1,.2,.1,.2l-.1,.1,.1,.1c-.1-.1-.2-.1-.3-.1h.3v.7c.5,0,.9-.1,1.1-.4h0c.1-.1,.1-.3,.1-.6h.3c.1,0,.2,0,.2-.1-.2-.2-.3-.2-.4-.2s-.1,0-.1,.1v-.6h.2l-.3,.1h.4l.2-.1h-.7v-1.2h.1c0-.1,.1-.2,.2-.2-.1,0-.2,.1-.2,.1-.1,0-.1-.1-.1-.2,.2,.1,.3,.1,.4,.1,0,0,0-.1,.1-.1l.1,.1h.1l-.1,.2-.1-.1q-.1,.1-.1,.2c.2-.1,.3-.1,.4-.1v-.1l.5,.2,.2-.2c0,.1,.1,.2,.2,.2l.1-.1h-.2v-.1h.2v.1h.1c0,.1,.1,.1,.2,.1h.2v-.1l-.1-.1,.2-.1v.2l.1-.1v-.1c-.1,0-.1-.1-.1-.1h.2v.1h.2l.1,.1c.1-.1,.2-.2,.4-.1v.8c-.1,0-.2,0-.3,.1v.1l.1,.1c-.2,0-.4,.1-.5,.1s-.2,0-.3,.1l.1,.1c-.1,0-.3,0-.6,.1h.7l.1,.1h.2c-.1-.1-.2-.1-.2-.1h.8c-.1,1-.5,1.9-1.3,2.5-.4,.1-.7,.3-1,.4,1.5,.6,2.3,1.4,2.4,2.4h0v.1h0v.1c-.3,0-.4,.1-.4,0v.1h.4v.1h-.1l.1,.1-.2-.1c.1,0,.1,.1,.1,.2h-.5v.1h-.2s0,.1,.1,.2l.1-.1c.1,0,.2,.1,.3,.1s.2,.1,.2,.1q0-.1,.1-.1l.1,3.5c-.3,1.2-.6,1.9-1,2.1h0Zm-6.9-6.8c.2-.1,.3,.1,.4,.3-.1,0-.1,.1-.2,.1s-.1,0-.1,.1q0-.1-.1-.1c.1,0,.2,0,.2-.1h-.2v-.1h.2l.1-.1-.3-.1h0Zm.6,.2c.2-.1,.3-.1,.4-.1,0,0-.1,.1-.2,.1s-.2,.1-.2,0l-.2-.1,.2,.1h0Zm-.1-.2h0l.1-.1h.2s-.1,.1-.3,.1Zm.2,.5h-.1l-.1-.1c.1,.1,.2,.1,.2,.1Zm-.2,.1h-.2s0-.1,.1-.1l.1,.1h0Zm.5-.2h0q.1,0,.2-.1,0,.1-.1,.2,0-.1-.1-.1Zm1-.2h.6v.1c-.2,0-.4,0-.4,.1v-.1q-.2,0-.2-.1,0,.1,0,0h0Zm.9-.5h-.3v-.1c.1,0,.2,.1,.3,.1Zm.3,0l-.2,.1v-.1c0-.1,.1,0,.2,0Zm-.1-.2s.1,0,0,0h0Zm.1,.5l-.1,.3v-.2l-.2-.1c-.1,0-.1,.1-.1,.1-.1,0-.1-.1-.1-.3-.1,0-.1-.1,0-.1v.1c.1,0,.2,.1,.5,.2h0Zm-.1,.5s-.1,0,0,0h0Zm0,.2h0Zm-.1,0h0l-.2-.1c.1,0,.2,.1,.2,.1h0Zm-.1-.5h0Zm-.2-.1l-.1,.1-.1-.1h-.1v-.2h.1s0,.1,.1,.2c0-.1,.1-.1,.1,0Zm-.3,0s.1,0,0,0l-.2,.1,.2-.1Zm-.3,0s0-.1,0,0h-.1v-.1h.2s0,.1-.1,.1h0Zm.5,.8l-.1,.1-.1-.1h.2Zm-.6-.2h-.2v-.1q.2,0,.2,.1Zm-.2-.6l-.1-.1c.1,0,.2,.1,.2,.1h-.1Zm-.2,.2h0c0-.1,.1-.1,.1-.1h0l-.1,.1c.1-.1,.1,0,0,0Zm.1,.2v.1h-.1v-.1h.1Zm0-.7h0l-.2,.1v-.1h.1q0-.1,.1-.1-.1,0,0,.1v-.1q.1,0,.2,.1h-.2Zm-.2,.6s0,.1,0,0l-.2,.2v-.1s.1-.1,.2-.1Zm3.1-.2h0q0-.1,0,0h0Zm.1,.2v.1h-.1q0-.1,.1-.1Zm-.2-.3c0-.1-.1-.2-.1-.2h0l.1,.1v.1Zm0,.8h-.1v-.1l.1,.1Zm.3-.2c-.1,0-.1-.1-.1-.1l.1-.2,.1,.1c0-.1,.1-.1,.2-.1-.1,.1-.1,.2-.3,.3h0Zm2.7-6.2v.2h-.1v-.3c0,.1,.1,.1,.1,.1Zm.1,6.6h-.4l-.1-.1c.2,.1,.3,.1,.5,.1h0Zm-.5-.1h0Zm.6-7.1v0h0Zm-.4-19.9c-.3-.4-.6-.8-.5-1.3,0-.2,.1-.3,.2-.5,.1-.2,.3-.2,.4,0,.1,.2,.3,.3,.4,.5,.1,.1,.1,.2,.1,.3-.1,.3,.1,.5,.4,.4,.1,0,.3-.1,.6-.2h.3c0,.1-.1,.3-.1,.4-.2,.2-.5,.4-.8,.5-.5,.3-.7,.3-1-.1h0Zm1.8,18c0-.1,0-.3,.1-.7v-.7l.1-.1-.1-.1v-.1h0v-.4l.1-.1c0-.1,0-.2-.1-.2s0-.2-.1-.3l.2-.1v-.1l-.2,.1c-.1-.3-.1-.5,0-.6h4.4c1.1,.2,1.9,.6,2.4,1.3h0v.1h0c.5,.6,.8,1.5,.7,2.6h.1v.1h-.1v.1l.1,.1h-.2l-.1,.1c.1,0,.2,0,.3,.1,0-.1-.1-.1-.3-.1,0-.2-.1-.2-.2-.2h-.2v.1h-.2c-.1-.1-.3-.2-.8-.2l.2,.2h-.4s.1,.1,.1,.2l.2,.1h0c-.1,0-.2,0-.2-.1q-.1,0-.1-.1h-.1l-.1-.1,.2-.1c0-.1-.1-.2-.1-.2-.1,0-.3,.1-.8,.2l.1-.2h-.1l-.2,.1,.1,.2h-.1l.2,.2-.2,.1c-.1-.1-.1-.2-.1-.3,0,0,.1,0,.1,.1v-.2s-.1,0-.1-.1,.1-.2,.2-.3h-.2l-.1-.9-.5-.5h-.6c0,.9-.1,1.3-.1,1.3v-.2l-.2,.1-.5-.1,.1-.1c-.1,0-.2,0-.3,.1s-.3,.1-.4,.1v-.1h0v-.1l.1,.1,.1-.1h-.2s-.1,.1-.1,.2h-.1s0,.1,.1,.1c0,0,0,.1,.1,.1h-.1v-.2h-.2l.1,.1h-.4s0-.1,.1-.2l-.1-.1v.1l-.1-.1h-.2v.1l-.2,.1c-.1,0-.2-.1-.3-.1h-.1c-.1,0-.2,0-.3-.1h-.1s.1,0,0,0q.1,0,0,0h0Zm7.4,1.4h0c.1-.1,.1,0,0,0Zm-.2-.2h0l.1-.1-.1,.1Zm.2,.3h-.1l.1-.2v.1q-.1,0,0,.1h0Zm-.2-.2s-.1,0,0,0h0Zm-.4-.1s-.1,0-.2,.1v-.1h.2Zm-.1-.1s.1-.1,0,0q.1,0,0,0h0Zm-.2,.3h0q-.1,0,0,0Zm-.2-.1q0-.1,.1-.1l-.1,.1Zm-.8,0l.1-.2h.1v.1q.1,0,.1,.1h-.3Zm.1,.1h0Zm.2-.1h-.1v-.1q0,.1,.1,.1Zm-.7-.4h0Zm.3,0l-.1,.2-.1-.2h.2Zm-2.9-.6h0q-.1,0,0,0-.1-.1,0,0h0Zm-1.6,.3v.1h-.1l.1-.1h0Zm-.2,0h-.1v-.1q.1,0,.1,.1Zm6.3,14.2c0,.2-.2,.4-.6,.8-.4,.3-.7,.4-1,.5h0l.1-.1h-.1l-.1,.1-.1-.1h-.2q.1,.1,.2,.1c-.2,.1-.3,.1-.6,.1v-.1h-.1v.1c-.3,0-.9,.1-1.6,.1h-2.9c0-.9,.1-1.8,.1-2.7v-2.6c.2,0,.3-.1,.5-.1v-.1c.1,0,.2-.1,.3-.1s.1,0,.2-.1v-.1c-.5,0-.8,.1-.9,.1v-.3h.1s-.1,0-.1-.1v-1.2l.3-.1-.4,.1v-.1h.6c.1,0,.3-.1,.5-.1l.2,.1-.3,.1h1.8l.1,.2,.4-.1h-.3s.2-.1,.4-.1v1.6c-.3-.1-.4-.1-.6-.1l.2,.1h.4l.1,3.1c.5,0,.9-.2,1.1-.6v-4.1c.7,0,1.2,0,1.3,.1,.1,0,.2-.1,.2-.1v-.1l.2-.1c-.1-.1-.3-.1-.5-.1l-.1-.1c.1-.1,.2-.2,.1-.3h-.4c.1,0,.2,0,.2-.1l-.3-.2s-.2,.1-.4,.1v-.1h.2c0-.1-.1-.2-.2-.2-.1-.1-.2-.1-.3-.1v-.7l-.4-.4c-.1,0-.2-.1-.4-.1-.1,0-.2,0-.3-.1-.1,.3-.2,.6-.1,.8h-.1q0,.2-.1,.2v-.1c-.1,0-.2-.1-.3-.1s-.2,0-.2-.1v.1h.2v.2c-.2,0-.3-.1-.3,0v-.1l-.2,.2-.1-.1-.1,.1,.3,.2c-.2,.1-.3,.1-.4,.1l.1-.1h-.2v.2h-.1c0-.1-.1-.2-.1-.2v0h0s-.1-.1-.3-.2c0,0,0,.1,.1,.1h-.1v.1l-.1,.2s.1,0,.1,.1v.1l-.3-.1v-.1c-.1,0-.2-.1-.2,0l-.1-.2h-.1c0-.1,.1-.1,.2-.2q.1,0,.1,.1c0,.1,.1,0,.1,.1v-.3l-.2-.1c-.2,.1-.4,.2-.6,.2,.1,0,.1,.1,.1,.1v.1h0l-.2,.3c-.3-.1-.4-.1-.5-.1v-6h1c-.5-.1-.8-.1-1.1-.1v-1.1l.4-.1,.2,.1v.2h.2l.1-.1-.1-.1c.3,.1,.5,.2,.6,.1-.1,0-.2-.1-.2-.1l-.2-.1,.1-.1c0,.1,.2,.1,.5,.1s.5-.1,.6-.1h0q.1,0,0,0v.1h.1v-.1h-.1v-.1l.5-.1c0,.1-.1,.1-.1,.1h.1v.3l.2-.1,.1-.3,.1,.2v-.1l.4,.1v.3h-.1c0,.2,.1,.4,.1,.6v.7h-.6v.1h.4l.1-.1,.1,.1v1.2c-.1-.1-.1-.2-.2-.2l-.1,.1s.1,.1,.3,.1l-.1,.1s.1,0,.1,.1l.1,.1s-.1,.1-.1,.2,.1,.2,.1,.2l-.1,.1,.1,.1c-.1-.1-.2-.1-.3-.1v-.2h.3v.7c.5,0,.9-.1,1.1-.4h0c.1-.1,.1-.3,.1-.6h.3c.1,0,.2,0,.2-.1-.2-.2-.3-.2-.4-.2s-.1,0-.1,.1v-.6h.2l-.2,.1h.4l.2-.1h-.7v-1.2h.1c0-.1,.1-.2,.2-.2-.1,0-.2,.1-.2,.1-.1,0-.1-.1-.1-.2,.2,.1,.3,.1,.4,.1,0,0,0-.1,.1-.1l.1,.1h.1l-.1,.2-.1-.1q-.1,.1-.1,.2c.2-.1,.3-.1,.4-.1v-.1l.5,.2,.2-.2c0,.1,.1,.2,.2,.2l.1-.1h-.2v-.1h.2v.1h.1c0,.1,.1,.1,.2,.1h.2v-.1l-.1-.1,.2-.1v.2l.1-.1v-.1c-.1,0-.1-.1-.1-.1h.2v.1h.2l.1,.1c.1-.1,.2-.2,.4-.1v.8c-.1,0-.2,0-.3,.1v.1l.1,.1c-.2,0-.4,.1-.5,.1s-.2,0-.3,.1l.1,.1c-.1,0-.3,0-.6,.1h.5l.1,.1h.2c-.1-.1-.2-.1-.2-.1h.8c-.1,1-.5,1.9-1.3,2.5-.4,.1-.7,.3-1,.4,1.5,.6,2.3,1.4,2.3,2.4h0v.1h0v.1c-.3,0-.4,.1-.4,0v.1h.4v.1h-.1l.1,.1-.1,.1c.1,0,.1,.1,.1,.2h-.6v-.1h-.2s0,.1,.1,.2l.1-.1c.1,0,.2,.1,.3,.1s.2,.1,.2,.1q0-.1,.1-.1l.1,3.5c-.1,1.3-.3,1.9-.8,2.1h0Zm-6.9-6.8c.2-.1,.3,.1,.4,.3-.1,0-.1,.1-.2,.1s-.1,0-.1,.1q0-.1-.1-.1c.1,0,.2,0,.2-.1h-.2v-.1h.2l.1-.1-.3-.1h0Zm.7,.2c.2-.1,.3-.1,.4-.1,0,0-.1,.1-.2,.1s-.2,.1-.2,0l-.2-.1,.2,.1h0Zm-.1-.1h0l.1-.1h.2c-.1,0-.2,0-.3,.1Zm.2,.4h-.1l-.1-.1q.1,.1,.2,.1Zm-.2,.2s-.1,0,0,0h-.2s0-.1,.1-.1l.1,.1h0Zm.5-.3h0q.1,0,.2-.1,0,.1-.1,.2c-.1,0-.1-.1-.1-.1Zm.9-.2h.7v.1c-.2,0-.4,0-.4,.1v-.1c-.2,.1-.3,.1-.3-.1q0,.1,0,0h0Zm.9-.5h-.2v-.1c0,.1,.1,.1,.2,.1Zm.3,0s-.1,0-.2,.1v-.1h.2Zm0,.3l-.1,.3v-.2l-.2-.1c-.1,0-.1,.1-.1,.1-.1,0-.1-.1-.1-.3-.1,0-.1-.1,0-.1v.1c.1,.1,.3,.1,.5,.2h0Zm-.1,.5h0Zm.1,.2h0q-.1,0,0,0h-.1s0,0,.1,0c-.1,0,0,0,0,0h0Zm-.1,0h0l-.2-.1q.1,.1,.2,.1h0Zm-.2-.5h0Zm-.2-.1l-.1,.1-.1-.1h-.1v-.2h.1s0,.1,.1,.2c0-.1,.1-.1,.1,0Zm-.3,0s.1,.1,0,0l-.2,.1c.2,0,.3-.1,.2-.1Zm-.2,0s0-.1,0,0h-.1v-.1h.2l-.1,.1h0Zm.4,.8l-.1,.1-.1-.1h.2Zm-.5-.2h-.2v-.1c.1,0,.2,.1,.2,.1Zm-.3-.6v-.1c.1,0,.2,.1,.2,.1h-.2Zm-.1,.2h0l.1-.1h0l-.1,.1c.1,0,0,0,0,0Zm0,.2v.1h-.1v-.1c0,.1,.1,0,.1,0Zm0-.7h0l-.2,.1v-.1h.1q0-.1,.1-.1c-.1,0-.1,.1,0,.1l-.1-.1q.1,0,.2,.1h-.1Zm-.2,.6s0,.1,0,0l-.1,.2v-.1l.1-.1Zm3.2,0v.1h-.1l.1-.1Zm-.1-.3c0-.1-.1-.2-.1-.2h0s.1,0,.1,.1v.1Zm0,.8h-.1v-.1l.1,.1Zm.3-.2c-.1,0-.1-.1-.1-.1l.1-.2,.1,.1c0-.1,.1-.1,.2-.1l-.3,.3h0Zm2.6-6.2v.2h-.1v-.3c0,.1,.1,.1,.1,.1Zm.1,6.6h-.4l-.1-.1c.2,.1,.4,.1,.5,.1h0Zm-.4-.1h0Zm.5-7.1v.4c.1-.1,0-.2,0-.4h0Zm6.6,9.1h-1.3c-.1,.6-.2,1.3-.3,2.2-.1,.9-.3,1.9-.4,3.1-.1,.1-.3,.1-.8,.1h-2.2v-.1c.1-.7,.2-1.5,.2-2.3,.1-.8,.2-1.6,.3-2.5h.2l-.2-.1v-.2l.1-.1c0-.4,0-.6,.1-.7s.3-.1,.7-.2c-.2,.2-.4,.3-.5,.4,.2,0,.3,0,.4-.1,.3,.1,.7,.1,1,.2s.6,.1,.8,.1h.5c.2,.1,.3,.1,.5,.1,.3,0,.5,0,.8-.1l-.1,.1s.1,0,.1,.1h.1Zm-.1-.8h0Zm.3,.7h0Zm3.2,25.3c-.4,0-.8-.4-.8-.8s.3-.7,.9-.7c.3,0,.6,.3,.7,.7,0,.5-.3,.8-.8,.8Zm-.2-19.9h-1.8l-.1-.1-.3-2.7c-.1-.9-.2-1.7-.2-2.6h.6v-.1h.2c-.2-.1-.3-.1-.4-.1l.1-.2s-.2,.1-.4,.1v-.1h-.2v.1c.2,.1,.3,.1,.4,.1,0,.1,0,.2-.1,.2h-.3c0-.1-.1-.2-.3-.2,0-.1,0-.2,.1-.2l2.3,.4h-.8l.1,.1h1.1l-.1-.1v-.2h0v-.1c0-.1,0-.2-.1-.2h-.2v.1l.2,.2h-.4v-.1h-.3v-.1h.4l-.1-.1-.1-.1h-.2c-.1-.1-.2-.2-.3-.2v-.1h.3c.1,0,.3,.1,.6,.1-.1,0-.1-.1-.2-.1v-.6l.1-.2h-1.3c-.2,.1-.3,.1-.4,.1s-.3,0-.5-.1c.5-.1,.7-.2,.8-.2l-.1,.1h.5l.1-.1h.5c.2,0,.3,0,.5,.1l.3,.1v-.1c-.1,0-.2-.1-.2-.2h-.9v-.1h0l.1-.2,.9,.1h0l.2,.1v-.1l.4-.1v.1h.1v.1c-.3,0-.6,0-.6,.1,0,.2,.3,.3,.8,.4v1.1h-.4v-.1c-.1,0-.2,.1-.3,.1h0l.8,.1,.1,.2h-.1l.3,2.7c0,.5,.1,.9,.2,1.4,.1,.4,.2,.9,.3,1.3-.6,.2-1.1,.2-1.7,.2h0Zm11.5,17.3l.1,.9c-.4-.1-.5-.2-.6-.8l.5-.1Zm-6.5-54c.2-.6,.4-1.2,.6-1.9,0,0,.1-.1,.2-.1,.5-.1,1-.3,1.5-.4,.1,0,.2,0,.3,.1,.3,.4,.7,.8,1,1.2,.1,.1,.1,.2,.1,.2-.2,.7-.4,1.3-.7,2l-.1,.1c-.9-.4-1.9-.7-2.8-1.1-.1,.1-.1,0-.1-.1h0Zm-1.7-2.2l.2-.1c.3,.1,.7,.2,1,.3,.1,0,.2,.1,.1,.2-.2,.5-.3,1-.5,1.5l-1.4-.5c.3-.5,.5-1,.6-1.4h0Zm-.3,39c-.1-1.4,0-2.4,.1-2.9l.1-.1-.1-.1c.1-.5,.2-.8,.2-.9,.2,0,.2-.1,.2-.1h-.1l.2-1,.1-.1c0-.1,0-.3,.1-.6s.1-.4,.2-.5c0-.3,0-.5,.2-.6,.1-.8,.2-1.6,.5-2.4h.1v-.3c0-.1,0-.3,.1-.5h.1l-.1-.1c0-.3,.2-.8,.4-1.3,0-.1,0-.2,.1-.4l1.2-5.4h-3.4v-.7h0v-1.7h5v.9c0,.4,0,.7-.1,.8,0,.1,.1,1,.1,2.5l-.2,.1v-.1s-.1,0-.2,.1v.3l.2-.1,.1,.1v.5h.2l.1-.1c-.1-.3-.1-.5-.1-.6l.1,.1,.1-.1v-.1h-.2l.1-.1c-.1,0-.1-.1-.1-.2s0-.2,.1-.3l.1-.2-.2-.2v-.4c0-.1,0-.2-.1-.3l.1-.7h-.1q0-.1,.1-.1l-.1-.1,.2-.5h-.1c0-.3,0-.5,.2-.7h-.2v-.2c.2-.2,.4-.2,.8-.2h1l.1,2.4-1.2,4.8c-.3,1.2-.5,2.1-.7,2.6h-.1v.1h.1l-.1,.2h-.2l.1-.6-.1-.2,.1-.2-.1-.1c.1-.1,.1-.4,.1-1s0-.9,.2-1v-.2c.1,0,.1-.1,.1-.1h-.2v-.1l.1-.1-.3-.2,.2-.1-.2-.2,.2-.1-.1-.3c.1,0,.2,0,.3-.1-.1-.1-.2-.1-.2-.2h.2c-.1-.2-.2-.3-.1-.4h-.3v.1l-.1-.1,.1,.4c-.1,.1-.2,.1-.2,.2h.1v.1l.1,.1h-.1v1.4s-.1,.2-.1,.4v.7l.1,.1v1.9c.1,0,.1,.1,.1,.3v.4q0,.1,0,0c-.1,0-.1-.1-.1-.1-.1,0-.1,.1-.1,.1l.1-.1c0,.1,.1,.2,.1,.3,0,.2,0,.4-.1,.7l-.1-.2h-.2s.1,0,.1,.1,.1,.1,.1,.1l-.1,.1-.2-.2-.1,.1c.1,.2,.2,.3,.2,.4,0,0-.1,0-.1-.1v.2h.1c0,.2-.1,.3-.1,.4s0,.2-.1,.3l-.5,1.9c-.3,1.3-.5,1.9-.4,2.1,.3,0,.5,0,.7,.1,.2,0,.4,0,.5,.1l-.1,.3h-.1v-.1h-.2v-.1h-.1c.1,.1,.1,.2,.2,.2v.1c.1,.1,.2,.1,.2,.1l.1,.2-.1,.1h.1c0,.1-.1,.2,0,.4l-.1,.1v.6l.1-.1,.1,.1s-.1,.1-.1,.2h-.1c0,.3,0,.4-.1,.5l-.6,.1c-.2,0-.3-.1-.3-.1v.1h-3.2c-.1-.3-.2-.3-.4-.3h0Zm5.2-9.3h-.1v-.1l.1,.1Zm-.1-3.4s0-.1,0,0q0-.1,0,0c0-.1,0,0,0,0h0Zm-.2,10.4v.1h-.1l.1-.1h0Zm0,2.2h0l-.1-.1q0,.1,.1,.1h0Zm-.8,16.6l-1.6,.6v-.1l1.5-.6,.1,.1h0Zm-3.8,4.3l.1-.6c.5-.1,1.1-.3,1.6-.4,.1,0,.3,.1,.3,.2,.2,.2,.4,.5,.6,.8-.8,.4-1.7,.4-2.6,0Zm3.2-.1c-.1,0-.2,0-.2-.1-.1-.3-.3-.5-.4-.8,0-.1,.1-.2,.1-.2,.5-.1,1-.3,1.5-.4,.1,0,.2,.1,.2,.1,.1,.2,.2,.5,.4,.8-.6,.3-1.1,.5-1.6,.6h0Zm2.4-1.2c-.2,.2-.5,.4-.7,.7l-.4-1c.3-.1,.6-.2,.9-.2,.1,0,.2,.1,.3,.2,0,0,0,.2-.1,.3h0Zm.1-2.8c0,.4-.4,.8-.8,.8s-.8-.4-.8-.8c0-.5,.4-.7,.8-.8,.4,0,.8,.4,.8,.8h0Zm1.5-16.8l-2.4,.1v-.1h-.2c0-.1,.1-.2,.2-.2-.1-.1-.2-.1-.2-.1h0l.3-.1v-.1s.1,0,.2-.1c-.2,0-.3-.1-.4-.3l.3-.2s-.1,0-.1-.1-.1,0-.2-.1h0l.2,.1v-.2c-.2,0-.2-.1-.1-.1,0-.2,.1-.2,0-.3h-.2l.2-.2h-.2v-.1h.1s-.1,0-.1-.1l.2-.1h-.2v-.2h2.5v1.2c0,.4,0,.8,.1,1.3h0Zm.1-36.4c-.1,.4-.3,.8-.4,1.2q-.1,.2-.3,.1l-.9-.3c-.1,0-.2-.2-.1-.3,.1-.4,.3-.8,.4-1.2,0-.1,.1-.1,.1-.2,.4,.2,.8,.3,1.2,.4v.3h0Zm10.6,43.7l.9-1.4,1.4,1-1,1.4-1.3-1h0Zm2.5,3.7l-1,1.4-1.4-1,1-1.4,1.4,1h0Zm-2.1-1.4l-1,1.4-1.4-.9,1-1.4,1.4,.9h0Zm-9.8-16.8v0Zm.2-1.1c0-.1,.1-.1,.1-.1l-.1,.1Zm.2,.1v.1l-.2,.1v-.2h.2Zm-.1,.7h.1v.1h-.2s0-.1,.1-.1Zm-.1-.1c.1,0,.2-.1,.2,0h-.2Zm.2,.4h-.1v-.1l.1,.1Zm-.1,.2h0q-.1,0,0,0Zm.1-.7h-.2s.1-.1,.3-.1v.1h-.1Zm0-.6h0Zm-.1,8.3v-6.8h1l-.2-.1c.5-.1,.8,0,1,.1h.5c.1,0,.2,0,.3,.1,0-.1,.1-.1,.2-.1l-.2-.1v.1c-.2,0-.3-.1-.5-.1s-.3-.3-.4-.4c.1,0,.1-.1,.1-.1h0v-.1h.1c-.2-.1-.3-.1-.3-.1v.4l-.1-.1h-.1v.1c-.1,0-.1-.1-.2-.1,.1-.1,.2-.2,.2-.3-.1-.1-.2-.1-.2-.1h.1l-.3,.1c.1,.1,.2,.2,.2,.3h.2v.2h-.3v-.3l-.8,.2v-.1l.2-.1v-.1h-.1l-.1,.2h-.2l.1-.1,.2-.1q0-.1-.1-.3t-.1-.3h-.1v-.1h.1q0-.1,.1-.2c.1-.1,.1-.2,.1-.2h.2v.2c.1,0,.2,0,.4,.1v-.1h.1v.1h.1v-.2c-.1,0-.3,0-.4-.1,0,.1-.1,.1-.3,.1h-.3l-.2,.1v-.1q.1,0,.1-.1h0v-.1h-.1c-.1-1.3-.2-2.6-.2-3.8l.3,.2v.2h.1v.1h.1l-.1,.1,.1,.1,.1-.1h.1v.1h.1l-.1,.1q.1,0,.1,.1-.1,0-.1,.1h.3l.1,.1h.5v-.2c-.1,0-.2-.1-.2-.1,.2,0,.3,.1,.3,0v-.1h-.1v-.1h-.3c-.2,0-.3,0-.3-.1,.2,0,.3,0,.3-.1l-.1-.2h.1c-.2-.2-.4-.2-.7-.3,.2,.2,.3,.2,.4,.3v.1h-.3l.1-.1-.1-.1v-.1l-.2-.2h0l-.2-.1h0l-.1-.1-.1,.1c.1,0,.1,.1,.1,.2h-.1c0-.1,0-.6-.1-1.7h.1c-.1-1-.1-1.5-.1-1.9q.1,0,.1-.1h-.1v-3.3l6.6-.1c0,.1,0,.5,.1,1.3,0,.6,0,1-.1,1.2l-3.2,.1v3.7h0v1.7h2.9c.1,.1,.1,.3,.1,.6s0,.6-.1,1h.1l-.2,.1,.2,.1v.4h-2.8v1.4s-.1-.2-.1-.3h-.6l.1,.1h-.4l-.1-.1,.1-.1c-.1-.1-.1-.2-.1-.2v.1h-.5v.2h-.3v-.1c0,.1-.1,.1-.1,.1v-.1h-.2v.1h.1l.1,.1h-.3v.2c0,.1,0,0,0,0h-.1v.1h.1l.1-.2,.2,.1v-.1h.2s-.2,.1-.5,.2h.2v.1h.5v-.1c.1,.1,.2,.1,.2,.1v-.1h.1v-.2h.7c0,.1,.1,.2,.1,.2,0-.1,0-.2-.1-.3,.2,0,.3,.1,.4,.3l-.2,.1c.1,0,.2,.1,.2,.2-.1,0-.1,.1-.2,.1l.1,.1c-.2,.1-.3,.1-.6,.1l.1-.1h-.3c.2,.1,.3,.1,.3,.1-.2,0-.4,0-.6-.1q0,.1,.1,.1l.6,.1,.1,.1c0,.1,.1,.1,.1,.2l.2-.1h-.1v-.2l.1-.1s.1,0,.1,.1v.1l-.1,.1,.2,.3-.1,.2h.1v.1h-.3l-.1,.1h.3s.1,.2,.1,.4v3.6c.1,0,.4,0,1,.1,.6,0,1.3,0,2.3,.1v1.4h.1l-.1,1h-.1l-.1-.1h-1v.1l-5.4-.2h0Zm.3-7h0l.2-.1v.1l-.1,.1v-.1h-.1Zm1.1,0h0Zm-.6-1.5s0-.1,0,0h0Zm-.9-4.3c.1,.1,.2,.1,.3,.2l-.2,.1c-.1,0-.1-.1-.1-.3Zm.3,.5v.1c0,.1,0,0,0-.1Zm.2,.2h-.2v-.1l.2,.1Zm2.6,3.8h-.1v-.1l.1,.1Zm-1.1-.2h0Zm-.1,.2h-.1c-.1,0,0-.1,.1,0h0Zm2.5,18.4l1.7-1.9,1,.7-1.4,2.1-1.3-.9h0Zm1.5,2l.9-1.4,1.4,.9-.9,1.4-1.4-.9h0Zm2,1.5l.9-1.4,1.4,.9-.9,1.4-1.4-.9Zm2.1,1.4l.9-1.4,1.4,1-.9,1.4-1.4-1h0Zm3.4,2.4l-1.4-1,.9-1.4,1.4,1-.9,1.4h0Zm2.4-3.5l-1,1.4-1.4-.9,1-1.4,1.4,.9Zm-2-1.4l-1,1.4-1.4-1,1-1.4,1.4,1h0Zm-1.2-2.8l-1.4-.9,.9-1.4,1.4,.9c.1,0-.9,1.4-.9,1.4Zm2.4-3.5l-1,1.4-1.4-.9,1-1.4,1.4,.9h0Zm-3.4-2.4l1.4,.9-.9,1.4-1.4-.9,.9-1.4h0Zm-1.2,.2l-1.4,2.1-1-.7,1.2-2.2,1.2,.8h0Zm.7-5.5l.6-2.6,1.7,.5-.8,2.5c0,.1-1.5-.4-1.5-.4Zm3.8,2.1l-1.7-.5,.5-1.7,1.7,.5-.5,1.7Zm-.9-3l.5-1.7,1.7,.5-.5,1.7c-.1,0-1.7-.5-1.7-.5Zm3.4,3.8l-1.7-.5,.5-1.7,1.7,.5-.5,1.7Zm-.9-3.1l.5-1.7,1.7,.5-.5,1.7c0,.1-1.7-.5-1.7-.5Zm3.4,3.8l-1.7-.5,.5-1.7,1.7,.5-.5,1.7h0Zm-.9-3l.5-1.7,1.7,.5-.5,1.7-1.7-.5h0Zm3.4,3.8l-1.7-.5,.5-1.7,1.7,.5-.5,1.7Zm.8-2.5l-1.7-.5,.5-1.7,1.7,.5-.5,1.7h0Z"/><path class="cls-1" d="M60.1,40.1h0c-.1,.1-.2,.1-.2,.2,.2-.1,.5-.1,.8-.1-.1-.1-.3-.1-.6-.1Z"/><path class="cls-1" d="M59.6,40.2s0,.1,0,0l-.2,.2q-.1,0-.1,.1v.1c.2-.1,.3-.2,.6-.2l-.3-.2Z"/><polygon class="cls-1" points="59.7 42.5 59.6 42.5 59.7 42.6 59.7 42.5"/><rect class="cls-1" x="59.5" y="42.7" width=".4" height=".1"/><polygon class="cls-1" points="59.7 38.7 60.1 38.6 60 38.5 59.7 38.7"/><polygon class="cls-1" points="60.1 38.8 60.1 38.7 60 38.7 60.1 38.8"/><path class="cls-1" d="M60.8,42.7l-.1,.1h.1c0,.1,0,0,0-.1Z"/><path class="cls-1" d="M60.8,39.5h0c.1-.1,0-.1,0,0h0Z"/><path class="cls-1" d="M61,38.7c0,.1-.1,.2-.1,.2l.4,.2h.3v-.1h-.2l.1-.1h.1l.1-.1-.1-.1-.3,.1c.1-.2,.2-.3,.3-.3l-.9-.1c.1,.1,.3,.2,.6,.2v.1h-.5v-.2h-.4v-.1l-.1,.1c.1,0,.1,.1,.2,.1s.1,.1,.1,.1v.1l-.2,.1c.1,.1,.3,.1,.6,.1-.3-.2-.2-.3,0-.3h0Zm-.4,.1s-.1,.1,0,0c-.1,0-.1-.1-.1-.1h.1v.1Z"/><path class="cls-1" d="M60.1,43.4q.1-.1,.2-.1v-.1c-.3,0-.5-.1-.5-.1,0,.1,.1,.1,.2,.2l-.1,.1-.2-.1c.2,.3,.2,.5,.2,.5h.1v-.1h.4s0-.1-.1-.1c0,0,0-.1,.1-.1l-.3-.1Zm-.2,.1v0h0Z"/><path class="cls-1" d="M61.3,44l.1,.1,.1-.1h-.2Z"/><polygon class="cls-1" points="61.5 43.7 61.5 43.6 61.4 43.6 61.5 43.7"/><polygon class="cls-1" points="60.3 40.6 60.2 40.6 60.3 40.7 60.3 40.6"/><path class="cls-1" d="M61.9,44l.1,.1-.1-.1c.1-.1,0-.1,0,0h0Z"/><path class="cls-1" d="M61.8,43.6s-.1,0,0,0h-.1l.2-.1q-.1,0-.1,.1h.1c.1,0,.2-.1,.1-.1l-.1-.1v-.1c-.1,0-.2,.1-.3,.2l-.1-.1v.1c-.1,0-.1,.1-.2,.1,.1,0,.3,.1,.5,.2v-.2h0Z"/><polygon class="cls-1" points="60.4 44.3 60.3 44.3 60.4 44.4 60.4 44.3"/><path class="cls-1" d="M60.1,44h0c-.3-.1-.4-.1-.4-.1,0,.1,0,.2,.1,.2v-.1l.2,.1v.1l.2-.1-.4-.1h.3Z"/><polygon class="cls-1" points="50.4 48.4 50.3 48.4 50.4 48.5 50.4 48.4"/><path class="cls-1" d="M64.8,41c0-.1-.1-.2-.1-.2,0,0-.1,0-.1,.1,.1,0,.2,.1,.2,.1Z"/><polygon class="cls-1" points="64.5 41 64.4 41 64.5 41.1 64.5 41"/><polygon class="cls-1" points="62.3 44.7 62.2 44.6 62.1 44.7 62.2 44.7 62.3 44.7"/><polygon class="cls-1" points="64.2 40.9 64.1 40.9 64.2 41 64.2 40.9"/><path class="cls-1" d="M60.3,36h0c.1-.1,0-.1,0,0Z"/><path class="cls-1" d="M60.6,43.4h0c.1-.1,0-.1,0,0Z"/><path class="cls-1" d="M62.6,41l.1-.1-.1,.1c-.1-.1,0,0,0,0h0Z"/><path class="cls-1" d="M63.8,41v.1h-.6l.4,.1h1v-.1l.5-.1h-.3c-.1,0-.3,0-.4,.1h-.5v.1c.1,0,0-.1-.1-.2h0Z"/><polygon class="cls-1" points="62.8 40.7 62.7 40.7 62.8 40.8 62.8 40.7"/><path class="cls-1" d="M62.7,40.7h-.2v.1q.1,0,.2-.1Z"/><rect class="cls-1" x="62.5" y="33.9" width=".1" height=".1"/><path class="cls-1" d="M63.9,33.7s-.1,.1,0,0h0Z"/><path class="cls-1" d="M63.2,41.2l-.2-.1v.1h-.1v.1s.1,0,.1-.1,.1,0,.2,0h0Zm-.1,0h0q-.1,0,0,0Z"/><rect class="cls-1" x="63.6" y="41" width=".1" height=".1"/><path class="cls-1" d="M63.6,40.9l-.1-.1c0-.1,0,0,.1,.1-.1,0,0,0,0,0Z"/><rect class="cls-1" x="63.4" y="40.9" width=".1" height=".1"/><polygon class="cls-1" points="50.2 51.5 50.4 51.5 50.2 51.4 50.2 51.5"/><polygon class="cls-1" points="50.3 50.2 50.2 50.2 50.3 50.3 50.3 50.2"/><path class="cls-1" d="M50.9,47.3h0c-.1-.1-.2-.1-.2-.1v.1h.2Z"/><polygon class="cls-1" points="51.3 45.7 51.2 45.7 51.3 45.8 51.3 45.7"/><path class="cls-1" d="M50.9,46.8s-.1,.1,0,0l.1,.1q.1-.1,.2-.1v-.1c-.1,.1-.2,.1-.3,.1v-.2l-.2,.2h.2Z"/><path class="cls-1" d="M50.5,48.4v.1l.2-.1q-.2,.1-.2,0Z"/><path class="cls-1" d="M55.2,50.8h.3v.1l.1-.1-.4-.2c.1,.1,0,.1,0,.2h0Z"/><polygon class="cls-1" points="55.6 51.5 55.6 51.4 55.5 51.4 55.6 51.5"/><path class="cls-1" d="M55.4,49.8l-.1,.2h.6v-.1c-.1,.1-.3,0-.5-.1h0Z"/><rect class="cls-1" x="50.5" y="50.3" width=".1" height=".1"/><path class="cls-1" d="M50.5,48.6s0,.1,0,0h0c.1,0,0,0,0,0h0Z"/><polygon class="cls-1" points="55.8 49.4 55.7 49.4 55.8 49.5 55.8 49.4"/><path class="cls-1" d="M55.5,51.3l-.2,.1v.1h.1v-.2h.1Z"/><polygon class="cls-1" points="60.2 35.9 60.1 35.9 60.2 36 60.2 35.9"/><polygon class="cls-1" points="60.1 37.6 60 37.6 60.1 37.7 60.1 37.6"/><path class="cls-1" d="M59.6,34.6s0,.1,0,0h0c.1,0,0,0,0,0h0Z"/><rect class="cls-1" x="59.5" y="37.6" width=".3" height=".1"/><path class="cls-1" d="M60,35.7h.2s-.1-.1-.2,0h0Z"/><path class="cls-1" d="M59.6,36.7q-.1,0-.1,.1h.2v-.1c0-.1-.1-.1-.1,0,0-.1,0,0,0,0Z"/><polygon class="cls-1" points="59.9 38.3 59.9 38.2 59.8 38.2 59.9 38.3"/><polygon class="cls-1" points="59.8 35.2 59.7 35.2 59.8 35.3 59.8 35.2"/><polygon class="cls-1" points="59.9 35.3 59.8 35.3 59.9 35.4 59.9 35.3"/><polygon class="cls-1" points="60.4 35.2 60.5 35.2 60.5 35.1 60.4 35.1 60.4 35.2"/><polygon class="cls-1" points="60.5 35.1 60.5 35 60.4 35 60.5 35.1"/><path class="cls-1" d="M60.3,38l-.1-.1,.1,.1h0Z"/><rect class="cls-1" x="59.9" y="38.2" width=".1" height=".1"/><path class="cls-1" d="M60.1,37.9h0l.1,.2c-.1,.1-.1,0-.1-.2h0Z"/><polygon class="cls-1" points="60.5 35.5 60.5 35.4 60.4 35.4 60.5 35.5"/><path class="cls-1" d="M61.7,38.8h.3s-.1-.1-.3,0c0-.1,0,0,0,0Z"/><rect class="cls-1" x="62.1" y="40.6" width=".2" height=".1"/><rect class="cls-1" x="62.1" y="39.1" width=".1" height=".1"/><rect class="cls-1" x="62" y="37.5" width=".1" height=".1"/><polygon class="cls-1" points="61.3 40.3 61.5 40.3 61.5 40.2 61.2 40.3 61.3 40.3"/><polygon class="cls-1" points="61.9 42.9 61.9 42.8 61.8 42.8 61.9 42.9"/><polygon class="cls-1" points="61.4 32.9 61.3 32.9 61.4 33 61.4 32.9"/><rect class="cls-1" x="61.5" y="36.6" width=".1" height=".1"/><polygon class="cls-1" points="61.4 32.8 61.3 32.8 61.4 32.9 61.4 32.8"/><polygon class="cls-1" points="59.4 36.1 59.3 36.1 59.4 36.2 59.4 36.1"/><polygon class="cls-1" points="59.4 38.2 59.4 38.1 59.3 38.1 59.4 38.2"/><rect class="cls-1" x="62.1" y="33" width=".1" height=".1"/><polygon class="cls-1" points="61.6 34.8 61.5 34.8 61.6 34.9 61.6 34.8"/><rect class="cls-1" x="61.7" y="32.3" width=".1" height=".1"/><path class="cls-1" d="M34.7,39.4h0s.1,0,0,0q.1,0,.1-.1s-.1,0-.1,.1h0Z"/><path class="cls-1" d="M31.7,46s-.1,.1,0,0q-.1,.1,0,0h0Z"/><path class="cls-1" d="M31.4,45.7l.3,.1c.1,0,.2-.1,.1-.1h-.4Z"/><polygon class="cls-1" points="32.8 51.4 32.8 51.3 32.7 51.4 32.8 51.4"/><path class="cls-1" d="M31.2,48.8c.1,0,.2,0,.2-.1q.1,0,.2-.1c-.1,0-.2,0-.2,.1q-.1,0-.2,.1Z"/><polygon class="cls-1" points="30.7 44.7 30.6 44.7 30.7 44.8 30.7 44.7"/><path class="cls-1" d="M36.5,44.6l.1-.1h-.1v.1Z"/><path class="cls-1" d="M31.6,51.4c.1,0,.2-.1,.1-.1q0,.1-.1,.1Z"/><path class="cls-1" d="M31.3,51.4h0c.1-.1,0,0,0,0h0Z"/><path class="cls-1" d="M31.2,45.9s0-.1,0,0h.1c-.1,0-.2,0-.5,.1v.1c.1,0,.2,.1,.2,.1h.1l.1-.3c-.1,0,0,0,0,0h0Z"/><polygon class="cls-1" points="34.8 50.9 34.7 50.9 34.8 51 34.8 50.9"/><path class="cls-1" d="M34.2,51.4h.1v-.1h-.2s.1,0,.1,.1Z"/><rect class="cls-1" x="35.1" y="51.1" width=".1" height=".1"/><rect class="cls-1" x="33.3" y="51.4" width=".1" height=".1"/><path class="cls-1" d="M35.7,47.4v-.1h-.1l.1,.1h0Z"/><path class="cls-1" d="M34.5,51s-.1,.1,0,0l.2,.1c.1-.1,.3-.1,.6-.2v-.1c-.1,.2-.3,.2-.8,.2Z"/><path class="cls-1" d="M33.4,51.1h.1l-.1-.1v.1Z"/><path class="cls-1" d="M33.6,51.1q0,.1,.1,.2h-.1v.1h.2l.1-.1-.1-.1,.1-.1h.2l-.3,.1-.2-.1h0Z"/><rect class="cls-1" x="34.1" y="39.8" width=".1" height=".1"/><rect class="cls-1" x="32.4" y="39.2" width=".1" height=".1"/><path class="cls-1" d="M32.7,38.7h-.1v.1c-.1,0,0,0,.1-.1h0Z"/><rect class="cls-1" x="32.6" y="42.4" width=".1" height=".1"/><polygon class="cls-1" points="33.3 41.5 33.3 41.4 33.2 41.4 33.3 41.5"/><path class="cls-1" d="M31.8,45.6h.2s-.2-.1-.6-.1l.4,.1Z"/><rect class="cls-1" x="31.4" y="44.3" width=".1" height=".1"/><path class="cls-1" d="M31,44.5h0c0,.1,0,0,0,0q.1,0,0,0Z"/><path class="cls-1" d="M30.2,44.7h-.2v.2h.2v-.2h0Z"/><polygon class="cls-1" points="34.3 43 34.3 42.9 34.2 42.9 34.3 43"/><polygon class="cls-1" points="34.3 42.7 34.3 42.6 34.2 42.6 34.3 42.7"/><polygon class="cls-1" points="34.3 42.4 34.3 42.3 34.2 42.3 34.3 42.4"/><polygon class="cls-1" points="29.9 45 29.9 44.9 29.8 44.9 29.9 45"/><path class="cls-1" d="M34.6,39s.1,0,.1,.1h.1l-.2-.1c.1-.1,0-.1,0,0Z"/><rect class="cls-1" x="34.8" y="38.1" width=".1" height=".1"/><path class="cls-1" d="M29.9,32h.2c0,.1-.1,0-.2,0h0Z"/><polygon class="cls-1" points="34.7 39.6 34.7 39.5 34.6 39.5 34.7 39.6"/><polygon class="cls-1" points="35 42.1 34.9 42.1 35 42.2 35 42.1"/><path class="cls-1" d="M34.7,40.1h0c-.1,0-.1,.1,0,.1l.2-.1h-.2c.1,0,0,0,0,0h0Z"/><path class="cls-1" d="M34.9,42.4h.2c-.1,0-.2-.1-.2-.1v.1Z"/><path class="cls-1" d="M35.2,38.1h-.1v.1l.1-.1h0Z"/><path class="cls-1" d="M36.4,38.3h-.2v.1c-.1,0,0,0,.2-.1h0Z"/><path class="cls-1" d="M35.4,37.6h.1s0-.1-.1,0h0Z"/><path class="cls-1" d="M35.5,38.1c-.1,0-.2,0-.3,.1h-.3v0c0,.1,.1,.1,.2,.2v.1h.2c.1,0,.2,0,.3,.1,.1-.1,.2-.1,.3,0l.1-.4h-.1v.1c-.2,0-.3,0-.4-.1v-.1h0Z"/><rect class="cls-1" x="35.2" y="38.6" width=".1" height=".1"/><polygon class="cls-1" points="35.7 39 35.7 38.9 35.6 38.9 35.7 39"/><rect class="cls-1" x="34.9" y="39.5" width=".2" height=".1"/><path class="cls-1" d="M35.1,39.4l-.2,.1c.2-.1,.3-.1,.2-.1h0Z"/><path class="cls-1" d="M35.3,38.9h.1s0-.1-.1,0h0Z"/><rect class="cls-1" x="35" y="38.7" width=".1" height=".1"/><polygon class="cls-1" points="35.5 42.9 35.5 42.8 35.4 42.8 35.5 42.9"/><polygon class="cls-1" points="36.3 43.6 36.2 43.6 36.3 43.8 36.3 43.6"/><path class="cls-1" d="M35.9,42.2c.1,0,.1,.1,.2,.1s.1,.1,.1,.1l.1-.1c-.1-.1-.1-.2-.2-.2-.3,.1-.5,.1-.7,.1l.6,.2-.1-.2h0Z"/><path class="cls-1" d="M36.5,43.5h0c0,.1,.1,.1,0,0l.1-.1h-.3q.1,.1,.2,.1h0Z"/><path class="cls-1" d="M36.7,43.3h0c-.2-.1-.3-.2-.3-.2l.2,.2c-.1,0,0,0,.1,0Z"/><polygon class="cls-1" points="36.2 42.5 36.1 42.5 36.2 42.6 36.2 42.5"/><path class="cls-1" d="M36.9,43.4h0c-.1-.1-.2-.1-.2,0h.2Z"/><path class="cls-1" d="M36.5,42.9h0l-.1-.2c0,.1-.1,.2-.1,.2h.2Z"/><path class="cls-1" d="M35.3,43.1l.1,.1q0-.1-.1-.2v.1Z"/><rect class="cls-1" x="35.3" y="42.4" width=".2" height=".1"/><path class="cls-1" d="M35.4,43.2l.2,.2c0-.1-.1-.2-.2-.2Z"/><path class="cls-1" d="M36.9,44h0c0,.1,.1,.1,.2,.1v-.1c0-.1-.1-.1-.2,0h0Z"/><rect class="cls-1" x="30.3" y="37.9" width=".1" height=".1"/><path class="cls-1" d="M34.6,37.3s0,.1,0,0c0,.1,.1,.1,0,0,.1,.1,0,0,0,0Z"/><path class="cls-1" d="M35.8,37.7l.2-.2v.2l.2-.1v-.2c-.1,0-.2,0-.4,.1,.1,0,.1,.1,.1,.1v.1h-.1Z"/><polygon class="cls-1" points="35.8 37.3 35.7 37.3 35.8 37.4 35.8 37.3"/><path class="cls-1" d="M34.1,37.4h.1q0-.1-.1,0,0-.1,0,0Z"/><polygon class="cls-1" points="35.9 37.3 35.8 37.3 35.9 37.4 35.9 37.3"/><polygon class="cls-1" points="34.2 37 34.1 37 34.2 37.1 34.2 37"/><path class="cls-1" d="M35.9,37.9v-.1h-.2l.1,.1h.1Z"/><path class="cls-1" d="M29.9,37.2h-.2v.1s.1,0,.2-.1h0Z"/><polygon class="cls-1" points="29.8 43 30 43 29.8 42.8 29.8 43"/><polygon class="cls-1" points="30 42.7 29.9 42.7 30 42.8 30 42.7"/><polygon class="cls-1" points="29.8 41 29.9 41.1 29.9 41 29.8 41"/><polygon class="cls-1" points="30 39 29.8 39.1 30 39.1 30 39"/><path class="cls-1" d="M29.7,35.1l.1-.1,.1,.1c0-.1,.1-.1,.2-.1h-.3c0-.1-.1-.1-.1-.2v.2l.1,.1c-.1-.1-.1,0-.1,0Z"/><path class="cls-1" d="M34.1,39.7c.1,0,.1-.1,.1-.1h-.3s.1,0,.1,.1c0-.1,.1,0,.1,0h0Z"/><path class="cls-1" d="M29.7,33.4c-.1,0-.1,.1-.2,.1h.2v-.1Z"/><path class="cls-1" d="M29.8,33.2l-.2-.1q0,.1,.1,.1l-.1,.1,.2-.1h0Z"/><path class="cls-1" d="M35.5,36.8l-.1-.1-.1,.1h.2Z"/><path class="cls-1" d="M36.8,39s.1-.1,0,0c.1,0,.2,0,.2-.1l-.1-.1-.1,.2Z"/><path class="cls-1" d="M30,33.1s.1,0,0,0h-.1c0,.1,.1,.1,.1,0q0,.1,0,0h0Z"/><polygon class="cls-1" points="29.9 33.3 29.9 33.2 29.8 33.2 29.9 33.3"/><polygon class="cls-1" points="36.5 37 36.4 37 36.5 37.1 36.5 37"/><path class="cls-1" d="M36.6,36.8s-.1,0,0,0q-.1,0,0,0h-.1q0,.1,.1,0,0,.1,0,0h0Z"/><path class="cls-1" d="M36.6,37.8l.2-.1h-.4s.1,0,.2,.1q0-.1,0,0h0Z"/><path class="cls-1" d="M36.5,37.5h.1v-.1s-.1,0-.1,.1Z"/><path class="cls-1" d="M36.6,38.5h0l-.1-.1c0,.1,.1,.1,.1,.1Z"/><polygon class="cls-1" points="37 36.8 36.9 36.8 37 36.9 37 36.8"/><path class="cls-1" d="M36.7,37.5h0q.1,0,.2-.1l-.2,.1h0Z"/><polygon class="cls-1" points="30.7 37.8 30.7 37.9 31 37.8 30.7 37.8"/><path class="cls-1" d="M30.7,37.7l.2-.1h-.1l-.1,.1Z"/><path class="cls-1" d="M30.8,39.1h.1v-.1s-.1,0-.1,.1h0Z"/><path class="cls-1" d="M31.4,37.1h-.7l.1,.1,.6-.1h0Z"/><path class="cls-1" d="M32.2,38.3s0-.1,0,0c-.1-.1-.2-.1-.2-.1,0,0,.1-.1,.3-.1l.1,.1,.1-.1-.4-.1h-.2c-.1,.1-.2,.1-.4,.1v-.1h-.6l.1-.1q-.1,0-.2,.1l.4,.4c.2-.1,.4-.1,.6-.1h.4Zm-1,.1h0Zm.2,0h0Zm.5-.2s.1,0,.1,.1c-.1,0-.2,0-.1-.1h0Z"/><path class="cls-1" d="M31.3,37.9h0c-.1-.1-.1,0,0,0Z"/><path class="cls-1" d="M31.6,35.9h.1q0,.1-.1,0l.2,.1c-.1-.2-.2-.3-.3-.3,0,0-.1,0-.1,.1l.2,.1h0Z"/><path class="cls-1" d="M31.9,42.5s.1,0,.1,.1c0,0,.1-.1,.1-.2h-.2v.1Z"/><polygon class="cls-1" points="32.2 38.5 32.2 38.4 32.1 38.4 32.2 38.5"/><rect class="cls-1" x="32.3" y="38.4" width=".2" height=".1"/><path class="cls-1" d="M31.4,42.5s0,.1,0,0c.1,.1,.2,0,.2,0h-.2Z"/><polygon class="cls-1" points="31.5 42 31.4 42 31.5 42.1 31.5 42"/><path class="cls-1" d="M32.3,37.4h0c.1-.1,0-.1,0,0Z"/><path class="cls-1" d="M32.7,38h0c-.1-.1-.2-.1-.2-.1h-.1l.3,.1h0Z"/><rect class="cls-1" x="32.1" y="37.5" width=".1" height=".1"/><rect class="cls-1" x="30.5" y="37.6" width=".1" height=".1"/><polygon class="cls-1" points="30.7 40.2 30.7 40.1 30.6 40.1 30.7 40.2"/><path class="cls-1" d="M30.7,42.9h0c0,.1,.1,.1,.1,.1v-.2l-.1,.1h0Z"/><path class="cls-1" d="M32.6,36.4v-.2h-.1l.1,.2h0Z"/><path class="cls-1" d="M31.6,35.9l-.1,.1,.1-.1q0,.1,0,0h0Z"/><polygon class="cls-1" points="31.7 36.1 31.8 36.2 31.8 36.1 31.7 36.1"/><polygon class="cls-1" points="31.9 36.2 31.9 36.1 31.8 36.1 31.9 36.2"/><rect class="cls-1" x="54.9" y="32.8" width=".1" height=".1"/><path class="cls-1" d="M32.4,35.7s0,.1,0,0v.2c.1-.1,.2-.2,.3-.2h-.3Z"/><path class="cls-1" d="M31.8,37.3v-.1c.2,0,.4,0,.4,.1v-.1h-.6s.1,0,.2,.1h0Z"/><polygon class="cls-1" points="32.7 35.9 32.7 35.8 32.6 35.8 32.7 35.9"/><path class="cls-1" d="M32.4,36.1s.1,0,.1,.1h.1v-.1l-.2-.1v.1Z"/><path class="cls-1" d="M32.4,36c-.1,0-.2,0-.3,.1l.3-.1h0Z"/><path class="cls-1" d="M31.4,37.9h.2s-.1,0-.2-.1v.1Z"/><polygon class="cls-1" points="47.2 45.3 47.2 45.2 47.1 45.3 47.2 45.3"/><rect class="cls-1" x="42.7" y="46" width=".1" height=".1"/><polygon class="cls-1" points="54.3 50.2 54.3 50.1 54.2 50.1 54.3 50.2"/><path class="cls-1" d="M42.1,46.5h.2v-.2l-.2,.1v.1h0Z"/><polygon class="cls-1" points="45.7 50.8 45.7 50.7 45.6 50.7 45.7 50.8"/><rect class="cls-1" x="47.6" y="45.1" width=".1" height=".1"/><path class="cls-1" d="M46.8,50.2c.1,0,.1-.1,.1-.1h-.2l.1,.1Z"/><path class="cls-1" d="M45.5,46.2h-.2c.2,0,.3,0,.4-.1v-.1h-.2v.2h0Z"/><path class="cls-1" d="M47.6,44.9c-.1,0-.1,.1-.2,.1l.3-.1c.1,0,0,0-.1,0h0Z"/><polygon class="cls-1" points="36.6 47 36.6 46.9 36.5 46.9 36.6 47"/><polygon class="cls-1" points="36.6 49.5 36.6 49.4 36.5 49.4 36.6 49.5"/><polygon class="cls-1" points="36.6 48.3 36.6 48.2 36.5 48.2 36.6 48.3"/><path class="cls-1" d="M36.8,49.3l.1-.1h-.1c.1,0,0,0,0,.1h0Z"/><polygon class="cls-1" points="35.4 37.4 35.3 37.4 35.4 37.5 35.4 37.4"/><path class="cls-1" d="M40.4,46.4c.1,0,.2,0,.2-.1q.1,0,.1-.1h-.5l.1,.2h-.4v.1c.5-.1,.8-.1,1-.1v-.1h-.2c-.2,.1-.3,.1-.3,.1h0Z"/><polygon class="cls-1" points="55.9 33.7 55.8 33.7 55.9 33.8 55.9 33.7"/><path class="cls-1" d="M55.4,40.4l.1,.1h.1v-.1h-.2Z"/><path class="cls-1" d="M53.9,49.4h0q-.1,0-.1,.1t.1-.1h0Z"/><path class="cls-1" d="M54.2,49.5s-.1,0,0,0l-.1-.2v.2h.1Z"/><path class="cls-1" d="M55.8,37.8s0,.1,0,0h0c.1,.1,0,.1,0,0h0Z"/><polygon class="cls-1" points="55.5 36.6 55.4 36.7 55.6 36.7 55.5 36.6"/><path class="cls-1" d="M54.3,49.3h0l-.1-.1q0,.1,.1,.1h0Z"/><polygon class="cls-1" points="55.7 37.2 55.6 37.2 55.7 37.3 55.7 37.2"/><path class="cls-1" d="M54.2,49.6c.1,0,.2,0,.3,.1v-.2l-.3,.1h0Z"/><polygon class="cls-1" points="54.4 49.7 54.3 49.7 54.4 49.8 54.4 49.7"/><path class="cls-1" d="M54.5,51.2h0c.1-.1,0-.1,0,0Z"/><polygon class="cls-1" points="54.6 51.5 54.6 51.4 54.5 51.4 54.6 51.5"/><polygon class="cls-1" points="54.4 50.3 54.4 50.2 54.3 50.2 54.4 50.3"/><rect class="cls-1" x="54.6" y="49.9" width=".1" height=".1"/><path class="cls-1" d="M54.1,49.9h.2v-.1c-.2,0-.2,.1-.2,.1Z"/><path class="cls-1" d="M54.5,50.2h.2l-.1,.1,.1,.1,.1-.3-.1-.1-.1,.1c0-.1-.1-.1-.1-.1v.2h0Z"/><path class="cls-1" d="M54.8,49.6h0c-.1,0-.1,.1-.1,.1l.1-.1h0Z"/><path class="cls-1" d="M40.5,45.8h0c-.1-.1-.2-.1-.5-.1-.2,0-.4,.1-.4,.1v.1l.5,.1c.1-.1,.2-.2,.4-.2h0Z"/><rect class="cls-1" x="34.9" y="36.8" width=".1" height=".1"/><path class="cls-1" d="M34.6,38.4c.1,0,.1-.1,.2-.1h-.2v.1h0Z"/><path class="cls-1" d="M34.7,43c0,.1,.1,.2,.3,.2l-.3-.2Z"/><path class="cls-1" d="M35.2,37.9s-.1,0-.4,.1c.1,0,.2,0,.2-.1h.2Z"/><path class="cls-1" d="M36.1,47.8h0c-.1,0,0,.1,0,0h0Z"/><path class="cls-1" d="M34.4,38.2l-.2,.1,.2-.1h0Z"/><rect class="cls-1" x="36.1" y="48" width=".1" height=".1"/><path class="cls-1" d="M34.5,38.4h-.3l.1,.1c.1,0,.2,0,.2-.1h0Z"/><rect class="cls-1" x="35" y="42.7" width=".1" height=".1"/><polygon class="cls-1" points="34.6 38.8 34.5 38.8 34.6 38.9 34.6 38.8"/><path class="cls-1" d="M34.4,39.9h.2c-.1,0-.1-.1-.1-.1h-.2l.1,.1Z"/><path class="cls-1" d="M34.8,42.8h.2l-.1-.1c.3-.1,.5-.1,.6-.1,0,0-.1-.1-.3-.1-.1,0-.2,.1-.4,.1h-.3l.1-.1h-.1l-.1,.2h.4v.1h0Zm.4-.3h0q-.1,0,0,0Z"/><path class="cls-1" d="M35.6,43.2v.1c.1,0,.2,0,.3,.1,.1-.2,0-.2-.3-.2Z"/><path class="cls-1" d="M36.4,48.2h0c.1-.1,0-.1,0,0h0Z"/><path class="cls-1" d="M35.2,43.1c-.1,.1-.2,.2-.2,.3l.2-.1,.1,.1,.1-.1c-.1-.1-.1-.2-.2-.2Z"/><path class="cls-1" d="M35.2,43.6c.1,0,.1-.1,.1-.1l-.1,.1h0Z"/><path class="cls-1" d="M35.2,38l.4-.1c-.2,0-.4,0-.4,.1-.1,0,0,0,0,0h0Z"/><path class="cls-1" d="M34.4,43.1h0l.1,.1h.1q-.1-.1-.2-.1h0Z"/><polygon class="cls-1" points="35.4 37.7 35.3 37.7 35.4 37.8 35.4 37.7"/><polygon class="cls-1" points="36.5 46.9 36.5 46.8 36.4 46.8 36.5 46.9"/><rect class="cls-1" x="34.5" y="42.8" width=".1" height=".1"/><path class="cls-1" d="M84.8,25.9c-.1-.1-.2-.2-.2-.3-.2-.3-.3-.5-.4-.8-.1-.2-.2-.3-.2-.5-.1-.6-.7-1-1.4-.9-.6,.1-.7,.6-.9,1-.1-.7,.3-1.2,.9-1.3s1.2,.3,1.4,.9c.1,.3,.2,.5,.4,.9,.6-.7,.5-1.8-.1-2.5-.3-.3-.7-.6-.8-1,0-.2-.2-.3-.3-.5-.1-.1-.2-.2-.2-.4-.1-.4-.3-.7-.6-.9-.8-.4-1.8,.2-1.7,1.1,.1,1.8,.3,3.5,.4,5.2,.1,.5,.4,.9,.9,1.2,.1,.8,.1,1.6,.2,2.4,0,.3,.2,.6,.4,.9,.4,.4,.9,.4,1.3,.2,.5-.2,.6-.7,.7-1.2,0-.1,.1-.2,.1-.3,1.2-.7,1.2-2.4,.1-3.2h0Z"/><path class="cls-1" d="M70.7,33.2c.3,0,.5,.2,.5,.5s-.2,.5-.5,.5c-.2,0-.3-.1-.4-.2,0,.2,.1,.3,.1,.5,.1,0,.2,.1,.3,.1,.3,1.6,.6,3.1,.9,4.7,.4,0,.7,0,.9,.3-.4-.2-.7-.3-1.1,0h0c0,.4,.1,.8,.1,1.2,.2,.1,.3,.2,.6,.2-.1,.6,.3,1.1,.9,1,1-.2,2.1-.3,3.1-.6,.5-.1,.8-.5,.7-1-.2-1.2-.4-2.3-.6-3.5-.2-1.3-.5-2.6-.7-3.9-.1-.4-.1-.7-.2-1.1-.1-.5-.5-.8-.9-.8-.9,.1-1.8,.3-2.7,.5-.1,.4-.4,.6-.8,.5-.1,0-.1-.1-.1-.1-.1-.3-.2-.2-.4-.1l.2,.9c.4,0,.8,0,1,.4-.3-.3-.7-.5-1.1-.3-.1,0-.2,.1-.3,.2,.1,.2,.1,.3,.1,.5-.1-.2,.1-.4,.4-.4h0Zm1.2,7.5c-.3,0-.5-.2-.5-.5s.2-.5,.5-.5,.5,.3,.5,.5-.3,.5-.5,.5Zm4.1-1.5c.1,.4,.2,.9,.2,1.3,0,.1-.1,.2-.2,.2-.5,.1-.9,.2-1.4,.3-.3,0-.5-.2-.5-.4-.1-.4-.2-.8-.2-1.2,.6-.1,1.3-.2,1.9-.3,0-.1,.1,0,.2,.1h0Zm-.4-1.7c.1,.4,.1,.7,.2,1.1q0,.2-.2,.3c-.5,.1-1.1,.2-1.6,.3-.1,0-.2-.1-.2-.1-.1-.4-.2-.9-.3-1.4,.7-.1,1.2-.2,1.8-.3,.2-.1,.3,0,.3,.1h0Zm0-.5c0,.1-.1,.2-.2,.2l-1.8,.3-.3-1.6,2.1-.4c0,.6,.1,1.1,.2,1.5h0Zm-.3-1.5l-2.1,.4c-.1-.5-.2-1-.3-1.6,0-.1,.1-.2,.2-.2l1.8-.3,.4,1.7h0Zm-.4-2.1c0,.1,0,.2,.1,.3-.2,.1-.4,.1-.6,.2-.4,.1-.7,.1-1.1,.2-.2,0-.4,0-.4-.3,0-.2-.1-.4,.3-.5,.4,0,.9-.1,1.3-.2,.3-.1,.4,0,.4,.3Zm-.7-1.8c.1,0,.4,.2,.4,.3,.1,.3,.1,.6,.2,.9-.7,.1-1.3,.3-1.9,.4-.3,0-.5-.1-.6-.4-.1-.2-.1-.5-.2-.8,.7-.1,1.4-.3,2.1-.4h0Z"/><path class="cls-1" d="M13.2,14.4c.2-.2,.4-.3,.6-.5,1.1-1,2.1-2,3.2-2.9,.5-.5,.6-1.2,.2-1.7-.5-.7-1.3-.7-2.1-.1-1.3-.6-2.8,.2-2.8,1.6,0,.3,0,.6-.2,.8-.1,.2-.2,.4-.2,.6-.1,.2-.1,.4-.2,.5-.4,.5-.4,1.2,0,1.6,.4,.5,1,.5,1.5,.1h0Z"/><path class="cls-1" d="M17.4,62.8h0c-.4,1.2-.7,2.3-1,3.4v.2c.4,.3,.8,.6,1.1,.9l.3-.4c.2,.2,.2-.1,.3-.1l1.2-1.5,3.7,2.9-1.4,1.8c.3,.3-.1,.3-.2,.5,.4,.3,.7,.6,1.1,.9,.1,.1,.2,.1,.3,.1,1-.5,2-1.1,3.1-1.7-2.7-2.4-5.6-4.7-8.5-7h0Z"/><path class="cls-1" d="M35.2,74.6c-.6-.2-1.2-.3-1.8-.4-1-.2-1.9-.5-2.9-.7-.6-.1-1.1,.1-1.3,.5-.2,.4-.3,1,.1,1.3l1.5,1.2h.1c.1,.1,.3,.2,.3,.3,.5,1.1,2,1.4,2.9,.7,.3-.2,.5-.5,.8-.3,.2,0,.3,0,.4-.1,.6-.2,.9-.6,.9-1.2,.1-.6-.3-1.1-1-1.3h0Z"/><path class="cls-1" d="M51.5,9.5c.5-.3,1.1-.1,1.2,.4,0,.1,.1,.2,.2,.2,.4,.2,.8,.3,1.3,.4h.3c.5-.3,1.1-.2,1.3,.4,0,.1,.1,.2,.2,.2,.4,.2,.8,.3,1.2,.4h.3c.5-.3,1.1-.2,1.3,.4,0,.1,.1,.2,.1,.2,.3,.1,.6,.2,1,.3,0-.6,.1-1.2,.1-1.8,0-.1-.2-.2-.3-.3-2.7-.9-5.5-1.8-8.2-2.8-.2-.1-.3,0-.3,.1-.3,.5-.6,1-.8,1.5l.9,.3c0,.2,.1,.1,.2,.1h0Z"/><path class="cls-1" d="M30.6,76.7c-.4-.3-.8-.7-1.2-.9-.8-.4-1-.6-.9-1.6-.8-.2-1.5-.4-2.3-.5-.5-.1-.8,.2-1,.6s-.2,.9,.2,1.2l1.5,1.2c.2,.1,.3,.2,.4,.4,.6,1.1,2.1,1.4,3,.5,.2-.2,.4-.4,.7-.2-.1-.3-.2-.6-.4-.7h0Z"/><path class="cls-1" d="M19,70c.8,0,1.6,.1,2.4,.1,.1,0,.2,0,.2-.1,.5-.6,.9-1.1,1.4-1.7l-3.5-2.8c-.5,.6-.9,1.1-1.3,1.7-.1,.1-.1,.2,0,.3,.2,.8,.4,1.5,.6,2.3-.1,0,0,.2,.2,.2h0Zm2.1-.3l-1.2-1,.5-.6,1.2,1-.5,.6h0Zm1.3-1.6l-.7,.9-1.2-1,.7-.9,1.2,1Zm-2.7-2.1l1.2,1-.7,.9-1.2-1,.7-.9h0Zm-.8,1l1.2,1-.5,.6-1.2-1,.5-.6h0Z"/><path class="cls-1" d="M15.1,24.7c-.9,.4-1.8,.8-2.8,1.3-.3,.1-.5,.2-.8,0s-.7-.4-1-.5v.6c0,.1-.2,.2-.2,.3-.3,.4-.3,.7,.2,.9,.1,.1,.2,.1,.3,.1l.7-1.3c.5,0,.6,.4,.6,.8,.2,1,.4,2.1,.6,3.2,.1,.4,.3,.6,.7,.7v-.2c-.2-1.2-.4-2.4-.7-3.7,0-.3,0-.4,.2-.5,.4-.2,.9-.4,1.3-.6,.5-.2,1-.4,1.6-.6h0c.2-.1,.3-.2,.5-.3q-.6-.4-1.2-.2h0Z"/><path class="cls-1" d="M49.6,10.6l-3.1-1-.7,1,3.5,1.2,.3-1.2h0Z"/><path class="cls-1" d="M79,20.7l.4-.6h.6c-.2-.5-.4-1-1-1-.1,.5-.4,.1-.6,.1,0,.3,.1,.5,.1,.7l.2,.1c.1,0,.1-.1,.2-.2-.4,.5-.1,.7,.1,.9h0Z"/><path class="cls-1" d="M71.7,23.1l.2,.3,.3-.1,.1,.5h.1l.1-.7,.6,.2c-.1-.2-.1-.4-.2-.6,0-.1-.1-.1-.1-.2,0,0-.1,0-.2,.1,0,0,0,.1,.1,.2v.1h-.1c-.2-.1-.4-.3-.4-.6h.4c-.1-.3,.1-.5,0-.8-.2-.5-.1-.5-.4-.6,.5,.4,.2,.8,.2,1.2l-.3,.1v-.2h-.1l-.2,.6,.2,.1-.2,.5-.1-.1h0Z"/><path class="cls-1" d="M21.6,70.1h-2q-1,0-1.3-1c-.2-.6-.3-1.3-.5-1.9h-.1c.2,.9,.5,1.9,.7,2.8,0,.1,.2,.1,.3,.1,.9,0,1.8,.1,2.7,.1,.1,.1,.2,0,.2-.1h0Z"/><path class="cls-1" d="M14.1,35.4l.5-.4c-.6-.1-1.1,.3-1.2,.8,0,.2,0,.5,.4,.6,0-.3,.2-.4,.5-.5-.2-.1,0-.4-.2-.5h0Z"/><path class="cls-1" d="M73,24.6l.4-.2h-.4c.5-.2,.2-.5,.2-.8l-.5,.3,.2,.2-.2,.3,.3,.2h0Z"/><path class="cls-1" d="M79.6,16.5l.3,.6c.1-.2,.1-.3,.2-.5l-.5-.1h0Z"/><path class="cls-1" d="M32.1,10.8l.2-.2v-.1h-.1l-.2,.3h.1c-.1,.1,0,0,0,0Z"/></g></g></g></g></g></svg>