<?xml version="1.0" encoding="UTF-8"?><svg id="Layer_2" xmlns="http://www.w3.org/2000/svg" viewBox="0 0 51.8 38.5"><defs><style>.cls-1{fill:#3a9bb6;}</style></defs><g id="PROJECTS_PGE"><g id="FOND_LOCAL_projects"><g id="Number_of_projects"><g id="Logo_fond_local"><path class="cls-1" d="M6.2,0h0l-.1,1.8H45.6V0H6.2Z"/><polygon class="cls-1" points="6.2 2.4 .5 9.5 3.6 9.5 8.5 2.4 6.2 2.4"/><polygon class="cls-1" points="12 2.4 8.5 9.5 11.6 9.5 14.6 2.4 12 2.4"/><polygon class="cls-1" points="18.4 2.4 16.4 9.5 19.5 9.5 21 2.4 18.4 2.4"/><rect class="cls-1" x="24.3" y="2.4" width="3.1" height="7.2"/><polygon class="cls-1" points="30.8 2.4 32.3 9.5 35.4 9.5 33.4 2.4 30.8 2.4"/><polygon class="cls-1" points="37.2 2.4 40.2 9.5 43.3 9.5 39.8 2.4 37.2 2.4"/><polygon class="cls-1" points="43.3 2.4 48.2 9.5 51.3 9.5 45.6 2.4 43.3 2.4"/><rect class="cls-1" x=".4" y="9.9" width="3.1" height="2.5"/><rect class="cls-1" x="8.4" y="9.9" width="3.1" height="2.5"/><rect class="cls-1" x="16.4" y="9.9" width="3.1" height="2.5"/><rect class="cls-1" x="24.3" y="9.9" width="3.1" height="2.5"/><rect class="cls-1" x="32.3" y="9.9" width="3.1" height="2.5"/><rect class="cls-1" x="40.3" y="9.9" width="3.1" height="2.5"/><rect class="cls-1" x="48.3" y="9.9" width="3.1" height="2.5"/><path class="cls-1" d="M0,13.4c0,.4,.3,.7,.7,.7H51.1c.4,0,.7-.3,.7-.7,0-.2-.1-.4-.3-.5-.1-.1-.2-.1-.3-.1H.6c-.1,0-.2,0-.2,.1"/><rect class="cls-1" x="3.2" y="14.5" width="2" height="21.8"/><polygon class="cls-1" points="18.8 14.5 18.8 36.2 48.6 36.2 48.6 14.5 46.7 14.5 46.7 31.9 20.7 31.9 20.7 14.5 18.8 14.5"/><rect class="cls-1" x="27.19" y="20.29" width="7.5" height=".7" transform="translate(-5.53 27.92) rotate(-45)"/><rect class="cls-1" x="27.09" y="22.68" width="12.4" height=".7" transform="translate(-6.54 30.29) rotate(-45)"/><path class="cls-1" d="M15.7,21.4c-.4,0-.8,.4-.8,.8,0,.3,.2,.6,.5,.7-.4,1.1-.4,2.3,0,3.4-.3,.1-.4,.4-.5,.7,0,.4,.4,.8,.8,.8s.8-.4,.8-.8c0-.3-.2-.6-.4-.7,.4-1.1,.4-2.3,0-3.4,.4-.2,.6-.7,.4-1.1-.2-.3-.5-.4-.8-.4h0Z"/><rect class="cls-1" x="31.89" y="25" width="7.5" height=".7" transform="translate(-7.48 32.63) rotate(-45)"/><rect class="cls-1" x="1.4" y="36.6" width="49" height="1.9"/></g></g></g></g></svg>