<?xml version="1.0" encoding="UTF-8"?><svg id="Layer_2" xmlns="http://www.w3.org/2000/svg" viewBox="0 0 39.3 39.3"><defs><style>.cls-1{stroke-miterlimit:10;stroke-width:2px;}.cls-1,.cls-2,.cls-3{fill:none;stroke:#669;}.cls-2{stroke-miterlimit:10;stroke-width:2px;}.cls-3{stroke-miterlimit:10;stroke-width:2px;}</style></defs><g id="PROJECTS_PGE"><g id="PARTAGE_SOCIAL_projects"><g id="Number_of_Projects"><g id="Logo_partage_social"><path class="cls-3" d="M12,15.6c0-3.8,3.5-7,7.5-7s7.7,3.2,7.7,7"/><line class="cls-3" x1="14.4" y1="15.6" x2="27.2" y2="15.6"/><circle class="cls-2" cx="19.78" cy="5.02" r="3.8" transform="translate(11.67 23.75) rotate(-80.83)"/><path class="cls-3" d="M11.9,9.3c-.9-.5-2-.7-3-.8h-.7c-3.8,.1-7,3.2-7.2,7"/><line class="cls-3" x1="1" y1="15.6" x2="9.7" y2="15.6"/><circle class="cls-1" cx="8.41" cy="4.98" r="3.8" transform="translate(1.37 11.77) rotate(-74.61)"/><path class="cls-3" d="M38.3,15.5c0-3.7-3.4-6.8-7.2-7h-.7c-1,0-2,.3-2.9,.7"/><line class="cls-3" x1="29.5" y1="15.6" x2="38.3" y2="15.6"/><circle class="cls-3" cx="30.7" cy="4.8" r="3.8"/><path class="cls-3" d="M38.3,19.7c0,10.3-8.3,18.6-18.6,18.6S1.1,30,1.1,19.7"/><path class="cls-3" d="M29.5,22c0,9-4.4,16.3-9.9,16.3s-9.9-7.3-9.9-16.3"/><line class="cls-3" x1="19.6" y1="19.7" x2="19.6" y2="38.3"/><line class="cls-3" x1="1" y1="19.7" x2="38.3" y2="19.7"/><line class="cls-3" x1="5.1" y1="27.8" x2="34.2" y2="27.8"/></g></g></g></g></svg>