<?xml version="1.0" encoding="UTF-8"?><svg id="Layer_2" xmlns="http://www.w3.org/2000/svg" viewBox="0 0 39.3 37.5"><defs><style>.cls-1{fill:#699;}</style></defs><g id="PROJECTS_PGE"><g id="WIKEND_projects"><g id="Number_of_Projects"><g><path class="cls-1" d="M17.5,13.7C21.4,2.6,23.1,1.1,23.7,.9h.1l11.1,1.7c-.3,.3-1,1.5-2.6,5.7l-9.7,14.8c-3.3,1.5-5.1,1.5-7,1.1h0l-2.3-.5h-.5l-9.4-2.4c1.1,.1,2.1,.2,3,.2,2.6,0,4.7-.5,6.3-1.5,2.9-1.5,4.1-4.1,4.8-6.3Z"/><path class="cls-1" d="M18.7,24.5c.4-.1,.8-.1,1.3-.2l.2,.6-1.5-.4Z"/><path class="cls-1" d="M26.6,26.7h0l-3.7-.8,.1-.2,3.2,.7c.2,.1,.3,.2,.4,.3Z"/><path class="cls-1" d="M1.8,21.5c0-.3,.3-.4,.5-.4h0l9.7,2.4-.3,.3c0,.2-.1,.5,0,.7L1.9,21.9c0,.1-.1-.2-.1-.4Z"/><path class="cls-1" d="M1.1,21.3c0-.2,.2-.3,.4-.3h.1l.4,.1c-.2,.1-.3,.2-.3,.4s0,.4,.1,.5l-.5-.1c-.1-.1-.2-.4-.2-.6Z"/><path class="cls-1" d="M17.4,24.6h1l3.1,.7-.1,.2-4-.9Z"/><path class="cls-1" d="M12.5,24.3c0,.2,0,.4,.1,.5l-.5-.1c-.2-.1-.2-.5-.2-.7,.1-.3,.3-.3,.5-.3l.4,.1c-.1,.1-.2,.3-.3,.5Z"/><path class="cls-1" d="M13.2,25.1c-.2,0-.3-.1-.4-.3-.1-.1-.1-.3-.1-.5,.1-.3,.3-.5,.6-.5h.1l7.7,1.8-.8,1.2-7.1-1.7Z"/><path class="cls-1" d="M29.7,15.5c-1,2.2-2.1,4.1-3.7,5.6l3.7-5.6h0Z"/><path class="cls-1" d="M33.2,28.5l.3,1.1c0,.1,.1,.3,.2,.4l-11.7-2.8,.8-1.2,10.4,2.5Z"/><path class="cls-1" d="M29.2,13.5v.2l.4,1.5-14.4,22c-.1,.2-.3,.3-.5,.3-.1,0-.2,0-.4-.1-.1-.1-.2-.2-.3-.4,0-.2,0-.3,.1-.5L29.2,13.5Z"/><path class="cls-1" d="M35,29.7c.1-.2,.1-.4,.1-.6l-.1-.3,3.8,.9c.2,0,.3,.1,.4,.3,.1,.1,.1,.3,.1,.5-.1,.3-.3,.5-.6,.5h-.1l-4-.9c.1-.1,.3-.2,.4-.4Z"/><path class="cls-1" d="M1.1,32.1c0-.2,.2-.3,.3-.3h.1l12.9,4-.4,.6h0L1.3,32.4c-.2,.1-.3-.1-.2-.3Z"/><path class="cls-1" d="M.7,20.5h.1l3.2,.7c-.5-.1-1-.1-1.6-.2l-.8-.2h-.1c-.2,0-.5,.2-.5,.4-.1,.2,0,.5,.1,.6l-.6-.1c-.2,0-.3-.1-.4-.3-.1-.1-.1-.3-.1-.5,.1-.2,.4-.4,.7-.4Z"/><path class="cls-1" d="M30,12.7h-.3l6.9-10.5c.1-.2,.3-.3,.5-.3,.1,0,.2,0,.4,.1,.1,.1,.2,.2,.3,.4,0,.2,0,.3-.1,.5l-6.9,10.5v-.2c-.1-.2-.4-.5-.8-.5Z"/><path class="cls-1" d="M2.4,32l-.8-.3h-.2c-.2,0-.4,.1-.5,.4-.1,.3,.1,.5,.3,.6l.6,.2-.2,.2c-.1,.2-.3,.3-.5,.3-.1,0-.2,0-.3-.1s-.2-.2-.3-.4c0-.2,0-.3,.1-.4l6.1-9,1.3,.3-5.6,8.2Z"/><path class="cls-1" d="M14.3,11c-.1-.2,0-.3,0-.5,.1-.2,.2-.3,.4-.3h.2c.2,0,.3,.1,.4,.2l-.8,1.3-.2-.7Z"/><path class="cls-1" d="M17,14.9c-.2,.6-.5,1.1-.8,1.7l-1-3.2,.9-1.4,.9,2.9Z"/><path class="cls-1" d="M22.5,1.6c-.1-.1-.1-.3,0-.4,.1-.2,.3-.4,.5-.4h0l.6,.1c-.2,.1-.5,.4-.8,.8h-.1c-.1,0-.2,0-.2-.1Z"/><path class="cls-1" d="M29.5,13.2c.1-.2,.2-.3,.4-.3h.2c.3,0,.5,.2,.6,.5l4.3,15.8c0,.2,0,.3-.1,.5s-.2,.3-.4,.3h-.2c-.3,0-.5-.2-.6-.5l-4.3-15.8c-.1-.2,0-.4,.1-.5Z"/><path class="cls-1" d="M34.6,3.6c.4-.8,.6-.9,.6-.9h0l.9,.1-.6,1-.9-.2Z"/><path class="cls-1" d="M22.4,1.1c-.1,.2-.1,.4,0,.5l.2,.2h0c-.3,.4-.6,.9-1,1.6L9.7,21.1c-.5,.1-1.1,.2-1.6,.2L22.3,.3c.1-.2,.3-.3,.5-.3,.1,0,.2,0,.3,.1s.2,.2,.3,.4v.2l-.4-.1c-.3,0-.5,.3-.6,.5Z"/></g></g></g></g></svg>