<?xml version="1.0" encoding="UTF-8"?><svg id="Layer_2" xmlns="http://www.w3.org/2000/svg" viewBox="0 0 66.4 45.76"><defs><style>.cls-1{fill:#088262;}</style></defs><g id="NEW_PROJECT_PAGE"><g id="NEW_PROJECT_PAGE-2"><g id="Top_Bar"><path class="cls-1" d="M40.94,17.7c-2.7,5-2.4,10.5-2.2,15.1,.1,1.2-.4,2.8-.8,4.1-1.1-3.4-1.5-5.6-1.9-8.3-.3-1.4-.5-2.9-.6-4.3-.1-1.6,1.1-4.1,1.5-9.4,.6-8.1-.5-12.4-1.2-14.4-.2-.7-1-.6-1.3-.1-.9,1.5-2.2,5-2.2,11.4,0,7.3,1.8,12.6,1.8,12.6l.1,.7c-.9-.7-1.9-1.4-2.2-2.3,0-.2-.1-.6-.2-.7-1.3-5-4.8-9.7-10.1-12.9C15.64,5.6,7.64,3.9,.94,4.1c-.9,.1-1.2,.4-.7,1.1,4.7,6.9,9.6,12.5,16.2,16,4.5,2.4,9.5,3.5,13.9,3.2,1.9,0,3.4,2.3,3.7,2.9,.5,3.1,.9,6.5,1.6,8.8,.8,3.1,2.4,7.6,3.3,9,.4,.7,1.3,.8,2,.5,.8-.3,.8-1.1,.1-2.2-.8-1.2-1.6-3.1-2-4.2-.2-.7-.1-1.1,0-1.7,.7-2.7,1.6-5,3.5-7.9,2.8-4.3,4.5-6.3,9.3-10.7,5.3-4.9,11.3-8.7,14.1-10.3,.6-.3,.7-1-.2-1.1-11.7-.9-20.5,2.2-24.8,10.2h0Zm-7,1.8c-.2-1.1-.5-3.9-.4-9.6,.1-4,.8-6.4,1.2-7.4,.1-.4,.3-.2,.3,0,.2,4.8-.4,13.7-.9,16.9,0,.4-.1,.6-.2,.1h0Zm-3.9,2c-1.1-1-5.7-4.7-12.8-9.1C12.54,9.5,6.24,6.8,3.84,5.9c-.6-.2-.3-.3,0-.3,4.8,.3,10.3,1.9,15.3,4.5,5.1,2.7,10.1,8.2,11.1,11.2,0,.2,0,.3-.2,.2h0ZM62.24,9.6c-2.3,1.2-7.9,4.4-12,8.1-4.3,3.9-8.4,8.9-9.2,10.8-.1,.2-.2,.1-.1,0,.1-14.9,13.1-19.8,21.2-19.1,.1,0,.2,.1,.1,.2h0Z"/></g></g></g></svg>