<?xml version="1.0" encoding="UTF-8"?><svg id="Layer_2" xmlns="http://www.w3.org/2000/svg" viewBox="0 0 49.64 41.5"><defs><style>.cls-1{fill:#963;}</style></defs><g id="PROJECTS_PGE"><g id="KINFEST_projects"><g id="Number_of_Projects"><g><g><g><path class="cls-1" d="M17.14,32.4H5.54c-.3,0-.6-.3-.6-.6V.6c0-.3,.3-.6,.6-.6h11.6c.3,0,.6,.3,.6,.6V31.7c0,.4-.3,.7-.6,.7Zm-11-1.3h10.4V1.2H6.14V31.1Z"/><path class="cls-1" d="M5.54,39.2c-.3,0-.6-.3-.6-.6v-6.9c0-.3,.3-.6,.6-.6s.6,.3,.6,.6v6.9c0,.4-.3,.6-.6,.6Z"/><path class="cls-1" d="M16.34,41.5H.64c-.3,0-.5-.2-.6-.5s0-.6,.3-.7l1.6-1c1.9-1.2,4-1.5,6-.9l8.5,1.8c.3,.1,.5,.4,.5,.7-.1,.3-.3,.6-.6,.6Zm-13.5-1.3h7.4l-2.6-.6h-.1c-1.6-.4-3.3-.2-4.7,.6Z"/></g><path class="cls-1" d="M14.44,6c.3-.2,.6-.2,.9,0,.2,.3,.2,.6,0,.9L3.74,17.9c-.2,.1,10.7-11.9,10.7-11.9Z"/><path class="cls-1" d="M7.74,26.2c-.2,0-.3-.1-.5-.2-.2-.3-.2-.6,0-.9,0,0,12.3-11.2,12.5-11,.2,.3-11.7,11.9-11.7,11.9,0,.1-.2,.2-.3,.2Z"/></g><g><path class="cls-1" d="M34.24,34.7h-8.7c-.3,0-.6-.3-.6-.6V10.9c0-.3,.3-.6,.6-.6h8.7c.3,0,.6,.3,.6,.6v23.2c0,.3-.3,.6-.6,.6Zm-8.1-1.3h7.4V11.4h-7.4v22Z"/><path class="cls-1" d="M25.54,39.8c-.3,0-.6-.3-.6-.6v-5.1c0-.3,.3-.6,.6-.6s.6,.3,.6,.6v5.1c0,.3-.3,.6-.6,.6Z"/><path class="cls-1" d="M32.44,41.5h-9.4c-.3,0-.5-.2-.6-.4-.1-.3,0-.5,.2-.7l.9-.7c1.2-.9,2.6-1.2,3.9-.7l5.1,1.3c.3,.1,.5,.4,.5,.7,0,.2-.3,.5-.6,.5Zm-7.5-1.3h2.6l-.4-.1h-.1c-.7-.3-1.4-.2-2.1,.1Z"/><path class="cls-1" d="M25.54,23.1c-.2,0-.3-.1-.5-.2-.2-.3-.2-.6,0-.9l8.7-8.2c.3-.2,.6-.2,.9,0,.2,.3,.2,.6,0,.9l-8.7,8.2c-.1,.1-.3,.2-.4,.2Z"/><path class="cls-1" d="M25.54,31.3c-.2,0-.3-.1-.5-.2-.2-.3-.2-.6,0-.9l8.7-8.2c.3-.2,.6-.2,.9,0,.2,.3,.2,.6,0,.9l-8.7,8.2c-.1,.1-.3,.2-.4,.2Z"/></g><g><g><path class="cls-1" d="M49.04,36h-7.1c-.3,0-.6-.3-.6-.6V16.5c0-.3,.3-.6,.6-.6h7.1c.3,0,.6,.3,.6,.6v18.9c0,.3-.2,.6-.6,.6Zm-6.4-1.3h5.8V17.1h-5.8v17.6Z"/><path class="cls-1" d="M41.94,40.1c-.3,0-.6-.3-.6-.6v-4.2c0-.3,.3-.6,.6-.6s.6,.3,.6,.6v4.2c.1,.3-.2,.6-.6,.6Z"/><path class="cls-1" d="M47.54,41.5h-7.5c-.3,0-.5-.2-.6-.4s0-.5,.2-.7l.7-.6c1-.8,2.1-1,3.2-.6l4.1,1.1c.3,.1,.5,.4,.5,.7,0,.2-.3,.5-.6,.5Zm-5.2-1.3h0Z"/></g><path class="cls-1" d="M41.94,26.5c-.2,0-.3-.1-.5-.2-.2-.3-.2-.6,0-.9l4.8-4.5c.3-.2,.6-.2,.9,0s.2,.6,0,.9l-4.8,4.5c0,.1-.2,.2-.4,.2Z"/><path class="cls-1" d="M43.54,32.2c-.2,0-.3-.1-.5-.2-.2-.3-.2-.6,0-.9l4.9-4.6c.3-.2,.6-.2,.9,0,.2,.3,.2,.6,0,.9l-4.9,4.6c-.1,.2-.2,.2-.4,.2Z"/></g></g></g></g></g></svg>