<?xml version="1.0" encoding="UTF-8"?><svg id="Layer_2" xmlns="http://www.w3.org/2000/svg" viewBox="0 0 16.97 17.13"><defs><style>.cls-1{fill:#963;}</style></defs><g id="PROJECTS_PGE"><g id="FOND_LOCAL_projects"><g id="Search_for_a_project"><g id="Search_icon"><path class="cls-1" d="M7.2,14.4C3.2,14.4,0,11.2,0,7.2S3.2,0,7.2,0s7.2,3.2,7.2,7.2h0c0,4-3.2,7.2-7.2,7.2ZM7.2,1.2C3.9,1.2,1.2,3.9,1.2,7.2s2.7,6,6,6,6-2.7,6-6S10.5,1.2,7.2,1.2Z"/><path class="cls-1" d="M15.6,17.1c-.3,0-.7-.1-.9-.4l-3.3-3.4c-.5-.5-.4-1.4,.1-1.8,.5-.4,1.2-.4,1.7,0l3.4,3.4c.5,.5,.5,1.3,0,1.8-.4,.3-.7,.5-1,.4Z"/><path class="cls-1" d="M2.7,7.2c0-2.7,2.1-4.9,4.8-4.9h0s-2.8,.4-4.8,4.9Z"/></g></g></g></g></svg>