<?xml version="1.0" encoding="UTF-8"?><svg id="Layer_2" xmlns="http://www.w3.org/2000/svg" viewBox="0 0 16.97 17.13"><defs><style>.cls-1{fill:#088262;}</style></defs><g id="PROJECTS_PGE"><g id="ESPACE_VERT_projects"><g id="Search_for_a_Project"><g id="Search_Icon"><path class="cls-1" d="M7.2,14.4C3.2,14.4,0,11.2,0,7.2S3.2,0,7.2,0s7.2,3.2,7.2,7.2h0c.1,4-3.2,7.2-7.2,7.2ZM7.2,1.2C3.9,1.2,1.2,3.9,1.2,7.2s2.7,6,6,6,6-2.7,6-6S10.5,1.2,7.2,1.2Z"/><path class="cls-1" d="M15.6,17.1c-.3,0-.7-.1-.9-.4l-3.3-3.4c-.5-.5-.5-1.3,0-1.8s1.3-.5,1.8,0h0l3.4,3.4c.5,.5,.5,1.3,0,1.8-.3,.3-.6,.5-1,.4Z"/><path class="cls-1" d="M2.7,7.2c0-2.7,2.1-4.9,4.8-4.9h.1s-2.8,.4-4.9,4.9Z"/></g></g></g></g></svg>