<?xml version="1.0" encoding="UTF-8"?><svg id="Layer_2" xmlns="http://www.w3.org/2000/svg" viewBox="0 0 16.98 17.2"><defs><style>.cls-1{fill:#313b43;}</style></defs><g id="PROJECTS_PGE"><g id="HEADER"><g id="Search"><g id="Magnifier_glass"><path class="cls-1" d="M7.1,14.5C3.1,14.4-.1,11.1,0,7.1S3.4-.1,7.4,0s7.1,3.3,7.1,7.2c-.1,4.1-3.4,7.4-7.4,7.3ZM7.1,1.3C3.8,1.3,1.1,4.1,1.2,7.4c.1,3.3,2.8,6,6.1,5.9,3.3,0,5.9-2.7,5.9-6-.1-3.3-2.7-6-6.1-6h0Z"/><path class="cls-1" d="M15.6,17.2c-.3,0-.7-.1-.9-.4l-3.4-3.3c-.5-.5-.5-1.3,0-1.8h0c.5-.5,1.3-.5,1.9,0l3.4,3.3c.5,.5,.5,1.3,0,1.8h0c-.3,.3-.6,.4-1,.4Z"/><path class="cls-1" d="M2.5,7.3c0-2.7,2.1-4.9,4.8-4.9h.1s-2.8,.4-4.9,4.9Z"/></g></g></g></g></svg>